<svg width="676" height="427" viewBox="0 0 676 427" fill="none" xmlns="http://www.w3.org/2000/svg">
<path d="M591.842 409.205L71.8425 394.305C47.6425 393.605 27.7425 375.105 25.3425 351.005L0.24249 103.005C-2.55751 74.9046 19.2425 50.4046 47.4425 50.0046L626.242 42.0046C655.442 41.6046 678.342 67.1046 674.742 96.1046L641.042 367.005C637.942 391.605 616.642 409.905 591.842 409.205Z" fill="#EAEAEA"/>
<mask id="mask0_367_12" style="mask-type:alpha" maskUnits="userSpaceOnUse" x="0" y="42" width="676" height="368">
<path d="M591.842 409.205L71.8425 394.305C47.6425 393.605 27.7425 375.105 25.3425 351.005L0.242505 103.005C-2.55749 74.9046 19.2425 50.4046 47.4425 50.0046L626.243 42.0046C655.443 41.6046 678.343 67.1046 674.743 96.1046L641.042 367.005C637.942 391.605 616.642 409.905 591.842 409.205Z" fill="#EAF9F3"/>
</mask>
<g mask="url(#mask0_367_12)">
<path d="M422.842 476.505H7.3425C-0.957501 476.505 -7.6575 469.805 -7.6575 461.505V225.805C-7.6575 217.505 -0.957501 210.805 7.3425 210.805H422.842C431.142 210.805 437.842 217.505 437.842 225.805V461.405C437.842 469.705 431.142 476.505 422.842 476.505Z" stroke="#B8D8C7" stroke-width="1.8" stroke-miterlimit="10" stroke-linecap="round" stroke-linejoin="round"/>
<path d="M728.542 460.605H604.542C596.242 460.605 589.542 453.905 589.542 445.605V101.305C589.542 93.0047 596.242 86.3047 604.542 86.3047H728.542C736.842 86.3047 743.542 93.0047 743.542 101.305V445.605C743.542 453.905 736.842 460.605 728.542 460.605Z" stroke="#B8D8C7" stroke-width="1.8" stroke-miterlimit="10" stroke-linecap="round" stroke-linejoin="round"/>
<path d="M85.4425 140.405H-4.4575V131.505H85.4425C86.4425 131.505 87.2425 132.305 87.2425 133.305V138.505C87.3425 139.605 86.5425 140.405 85.4425 140.405Z" stroke="#B8D8C7" stroke-width="1.8" stroke-miterlimit="10" stroke-linecap="round" stroke-linejoin="round"/>
<path d="M69.2425 131.605H48.9425C46.7425 131.605 44.9425 130.005 44.6425 127.805L43.0425 113.405C42.7425 110.905 44.7425 108.605 47.3425 108.605H70.8425C73.4425 108.605 75.3425 110.805 75.1425 113.405L73.5425 127.805C73.2425 129.905 71.4425 131.605 69.2425 131.605Z" stroke="#B8D8C7" stroke-width="1.8" stroke-miterlimit="10" stroke-linecap="round" stroke-linejoin="round"/>
<path d="M56.6425 108.605C56.6425 108.605 48.6425 107.805 47.0425 97.0047C47.0425 97.0047 54.2425 99.1047 56.5425 104.205C56.5425 104.205 57.5425 92.8047 62.9425 91.7047C62.9425 91.7047 65.3425 100.205 61.5425 104.405C61.5425 104.405 64.4425 99.6047 71.8425 99.7047C71.8425 99.7047 69.9425 106.505 62.6425 108.505" fill="#B8D8C7"/>
<path d="M419.743 260.505H329.542C327.242 260.505 325.342 258.605 325.342 256.305V228.905C325.342 226.605 327.242 224.705 329.542 224.705H419.743C422.043 224.705 423.943 226.605 423.943 228.905V256.305C423.943 258.605 422.043 260.505 419.743 260.505Z" stroke="#B8D8C7" stroke-width="1.8" stroke-miterlimit="10" stroke-linecap="round" stroke-linejoin="round"/>
<path d="M384.943 234.405H364.142C363.342 234.405 362.642 233.705 362.642 232.905C362.642 232.105 363.342 231.405 364.142 231.405H384.943C385.743 231.405 386.443 232.105 386.443 232.905C386.443 233.705 385.843 234.405 384.943 234.405Z" fill="#B8D8C7"/>
<path d="M419.743 306.305H329.542C327.242 306.305 325.342 304.405 325.342 302.105V274.705C325.342 272.405 327.242 270.505 329.542 270.505H419.743C422.043 270.505 423.943 272.405 423.943 274.705V302.105C423.943 304.405 422.043 306.305 419.743 306.305Z" stroke="#B8D8C7" stroke-width="1.8" stroke-miterlimit="10" stroke-linecap="round" stroke-linejoin="round"/>
<path d="M384.943 280.205H364.142C363.342 280.205 362.642 279.505 362.642 278.705C362.642 277.905 363.342 277.205 364.142 277.205H384.943C385.743 277.205 386.443 277.905 386.443 278.705C386.443 279.505 385.843 280.205 384.943 280.205Z" fill="#B8D8C7"/>
<path d="M66.9425 260.505H-23.2575C-25.5575 260.505 -27.4575 258.605 -27.4575 256.305V228.905C-27.4575 226.605 -25.5575 224.705 -23.2575 224.705H66.9425C69.2425 224.705 71.1425 226.605 71.1425 228.905V256.305C71.2425 258.605 69.3425 260.505 66.9425 260.505Z" stroke="#B8D8C7" stroke-width="1.8" stroke-miterlimit="10" stroke-linecap="round" stroke-linejoin="round"/>
<path d="M32.2425 234.405H11.4425C10.6425 234.405 9.94249 233.705 9.94249 232.905C9.94249 232.105 10.6425 231.405 11.4425 231.405H32.2425C33.0425 231.405 33.7425 232.105 33.7425 232.905C33.7425 233.705 33.0425 234.405 32.2425 234.405Z" fill="#B8D8C7"/>
<path d="M66.9425 306.305H-23.2575C-25.5575 306.305 -27.4575 304.405 -27.4575 302.105V274.705C-27.4575 272.405 -25.5575 270.505 -23.2575 270.505H66.9425C69.2425 270.505 71.1425 272.405 71.1425 274.705V302.105C71.2425 304.405 69.3425 306.305 66.9425 306.305Z" stroke="#B8D8C7" stroke-width="1.8" stroke-miterlimit="10" stroke-linecap="round" stroke-linejoin="round"/>
<path d="M32.2425 280.205H11.4425C10.6425 280.205 9.94249 279.505 9.94249 278.705C9.94249 277.905 10.6425 277.205 11.4425 277.205H32.2425C33.0425 277.205 33.7425 277.905 33.7425 278.705C33.7425 279.505 33.0425 280.205 32.2425 280.205Z" fill="#B8D8C7"/>
<path d="M770.742 191.205H610.943C608.443 191.205 606.342 189.105 606.342 186.605V106.905C606.342 104.405 608.443 102.305 610.943 102.305H770.842C773.342 102.305 775.443 104.405 775.443 106.905V186.605C775.343 189.105 773.342 191.205 770.742 191.205Z" stroke="#B8D8C7" stroke-width="1.8" stroke-miterlimit="10" stroke-linecap="round" stroke-linejoin="round"/>
<path d="M770.742 290.105H610.943C608.443 290.105 606.342 288.005 606.342 285.505V205.805C606.342 203.305 608.443 201.205 610.943 201.205H770.842C773.342 201.205 775.443 203.305 775.443 205.805V285.505C775.343 288.105 773.342 290.105 770.742 290.105Z" stroke="#B8D8C7" stroke-width="1.8" stroke-miterlimit="10" stroke-linecap="round" stroke-linejoin="round"/>
<path d="M646.842 140.905H636.943V191.205H646.842V140.905Z" stroke="#B8D8C7" stroke-width="1.8" stroke-miterlimit="10" stroke-linecap="round" stroke-linejoin="round"/>
<path d="M657.142 154.605H646.842V191.205H657.142V154.605Z" stroke="#B8D8C7" stroke-width="1.8" stroke-miterlimit="10" stroke-linecap="round" stroke-linejoin="round"/>
<path d="M640.742 246.405L641.842 231.505C641.942 230.505 641.142 229.705 640.142 229.705H635.842H631.542C630.542 229.705 629.842 230.505 629.842 231.505L630.942 246.405C630.942 246.405 621.942 252.205 622.042 257.005C622.142 260.705 624.342 278.405 625.342 286.205C625.642 288.405 627.442 290.005 629.642 290.005H635.842H642.042C644.242 290.005 646.042 288.405 646.342 286.205C647.342 278.405 649.542 260.705 649.642 257.005C649.742 252.205 640.742 246.405 640.742 246.405Z" fill="#B8D8C7"/>
<path d="M16.4425 384.505H660.642" stroke="#B8D8C7" stroke-width="1.8" stroke-miterlimit="10" stroke-linecap="round" stroke-linejoin="round"/>
</g>
<path d="M136.72 155.219L174.82 158.119C176.22 158.219 177.32 157.019 177.02 155.719L173.22 132.619C173.02 131.219 171.82 130.119 170.42 130.019L132.72 126.019C131.12 125.819 129.82 127.219 130.02 128.819L133.72 152.619C134.12 154.019 135.32 155.119 136.72 155.219Z" stroke="#45677C" stroke-width="1.8" stroke-miterlimit="10" stroke-linecap="round" stroke-linejoin="round"/>
<path d="M172.22 130.619L155.62 141.319C154.72 141.919 153.52 141.919 152.62 141.319L131.02 126.519" stroke="#45677C" stroke-width="1.8" stroke-miterlimit="10" stroke-linecap="round" stroke-linejoin="round"/>
<path d="M431.121 30.5145L399.821 32.2145L395.221 35.2145C394.121 35.9145 392.821 35.0145 393.021 33.7145L397.921 6.5145C398.321 4.3145 400.121 2.7145 402.321 2.5145L434.921 0.0144978C437.021 -0.185502 438.821 1.7145 438.421 3.8145L434.221 27.6145C433.921 29.3145 432.621 30.4145 431.121 30.5145Z" fill="#599F75"/>
<path d="M404.021 10.5145L430.421 8.6145" stroke="#172D39" stroke-width="1.8" stroke-miterlimit="10" stroke-linecap="round" stroke-linejoin="round"/>
<path d="M402.82 17.2146L429.221 15.4146" stroke="#172D39" stroke-width="1.8" stroke-miterlimit="10" stroke-linecap="round" stroke-linejoin="round"/>
<path d="M401.621 23.8145L415.421 23.0145" stroke="#172D39" stroke-width="1.8" stroke-miterlimit="10" stroke-linecap="round" stroke-linejoin="round"/>
<path d="M489.182 151.282C487.682 149.582 485.082 149.482 483.482 150.982C481.782 152.482 481.682 155.082 483.182 156.682C484.682 158.382 487.282 158.482 488.882 156.982C490.582 155.482 490.682 152.882 489.182 151.282Z" fill="#172D39"/>
<path d="M483.782 141.882L483.082 141.082C480.682 138.482 476.682 138.282 474.082 140.682C471.482 143.082 471.282 147.082 473.682 149.682L474.382 150.482C475.182 151.382 475.782 152.482 476.082 153.682C476.282 154.582 476.582 155.682 476.882 156.682C477.482 158.882 480.082 159.682 481.782 158.182L486.282 154.082L490.782 149.982C492.482 148.482 491.882 145.682 489.782 144.982C488.782 144.582 487.782 144.282 486.882 143.982C485.682 143.382 484.682 142.782 483.782 141.882Z" fill="#599F75"/>
<path d="M566.663 50.5H532.063C530.763 50.5 529.363 49.4 529.063 48.1L524.063 27.4C523.763 26.1 524.563 25 525.963 25H560.563C561.863 25 563.263 26.1 563.563 27.4L568.563 48.1C568.863 49.4 568.063 50.5 566.663 50.5Z" fill="#599F75"/>
<path d="M524.563 25.5L544.163 36.5C545.463 37.3 546.963 37.3 547.963 36.5L562.263 25.5" stroke="#172D39" stroke-width="1.8" stroke-miterlimit="10" stroke-linecap="round" stroke-linejoin="round"/>
<path d="M397.905 252.8H250.605C248.205 252.8 246.205 250.8 246.205 248.4C246.205 246 248.205 244 250.605 244H397.905C400.305 244 402.305 246 402.305 248.4C402.305 250.8 400.305 252.8 397.905 252.8Z" fill="#172D39"/>
<path d="M269.405 252.8H258.605L257.605 265.6H268.105L269.405 252.8Z" fill="#599F75"/>
<path d="M257.605 265.6L246.005 419.7C245.905 421.6 247.305 423.2 249.205 423.2C250.905 423.2 252.305 421.9 252.405 420.3L268.105 265.7H257.605V265.6Z" fill="#B8D8C7"/>
<path d="M379.105 252.8H390.005L390.905 265.6H380.405L379.105 252.8Z" fill="#599F75"/>
<path d="M390.905 265.6L402.605 419.7C402.705 421.6 401.305 423.2 399.405 423.2C397.705 423.2 396.305 421.9 396.205 420.3L380.505 265.7H390.905V265.6Z" fill="#B8D8C7"/>
<path d="M176.3 61.8H209.3L212.7 64C213.8 64.7 215.2 63.9 215.2 62.6V39.3C215.2 36.9 213.3 35 210.9 35H176.3C173.9 35 172 36.9 172 39.3V57.5C172 59.9 173.9 61.8 176.3 61.8Z" fill="#63737A"/>
<path d="M181.8 44.3L183.5 46L186.8 42.7" fill="#63737A"/>
<path d="M181.8 44.3L183.5 46L186.8 42.7" stroke="#172D39" stroke-width="1.8" stroke-miterlimit="10" stroke-linecap="round" stroke-linejoin="round"/>
<path d="M191.9 44.7999H203.5" stroke="#172D39" stroke-width="1.8" stroke-miterlimit="10" stroke-linecap="round" stroke-linejoin="round"/>
<path d="M181.8 52.3999L183.5 54.0999L186.8 50.7999" fill="#63737A"/>
<path d="M181.8 52.3999L183.5 54.0999L186.8 50.7999" stroke="#172D39" stroke-width="1.8" stroke-miterlimit="10" stroke-linecap="round" stroke-linejoin="round"/>
<path d="M191.9 52.8999H203.5" stroke="#172D39" stroke-width="1.8" stroke-miterlimit="10" stroke-linecap="round" stroke-linejoin="round"/>
<path d="M345.556 54.7253C345.556 54.7253 345.256 61.6253 346.456 67.7253C346.856 69.6253 345.756 71.6253 343.956 72.3253C342.756 72.7253 341.356 72.9253 340.056 72.1253C336.856 70.1253 341.856 48.8253 345.556 54.7253Z" fill="#172D39"/>
<path d="M300.456 62.6252C300.456 62.6252 300.556 69.6252 301.156 74.1252C301.456 76.5252 303.856 78.2252 306.256 77.6252C306.556 77.5252 306.756 77.4252 306.956 77.3252C308.756 76.1252 307.456 59.7252 307.456 59.7252C307.456 59.7252 300.856 59.8252 300.456 62.6252Z" fill="#172D39"/>
<path d="M296.156 47.8253C296.156 47.8253 296.256 57.2253 291.356 67.5253C290.856 68.6253 291.156 69.9253 292.056 70.7253C292.056 70.7253 292.056 70.7253 292.156 70.7253C293.456 71.8253 295.456 71.4253 296.256 69.8253C298.256 65.8253 302.056 57.0253 301.756 47.7253C301.456 35.2253 296.156 47.8253 296.156 47.8253Z" fill="#172D39"/>
<path d="M338.356 421.825C338.456 423.325 335.856 426.125 330.656 426.125C325.456 426.125 328.056 426.125 309.856 426.125C291.656 426.125 285.156 425.225 285.856 419.625C286.556 414.025 285.356 409.825 285.356 409.825C285.356 409.825 283.156 408.725 282.756 407.825C282.356 406.925 282.756 405.925 284.456 397.425C284.556 396.925 284.656 396.325 284.756 395.725C286.256 386.925 287.556 372.725 287.556 372.725C291.456 370.825 318.956 376.025 318.956 376.025C318.956 376.025 316.456 386.625 317.756 391.725C317.856 392.025 317.856 392.225 317.956 392.425C319.556 397.325 338.256 420.425 338.356 421.825Z" fill="#B28D93"/>
<path d="M317.356 388.525C317.256 383.125 318.956 376.025 318.956 376.025C318.956 376.025 291.456 370.825 287.556 372.725C287.556 372.725 287.256 375.925 286.756 380.325C295.156 388.125 306.556 390.025 317.356 388.525Z" fill="#896068"/>
<path d="M328.156 407.725C321.856 404.625 309.956 404.325 299.956 407.025C297.756 407.625 295.456 406.325 294.956 404.125C294.256 401.525 293.356 398.825 292.956 395.625C292.556 392.325 288.456 392.925 285.656 389.825C285.256 392.525 284.856 395.225 284.456 397.325C282.756 405.825 282.456 406.825 282.756 407.725C283.156 408.625 285.356 409.725 285.356 409.725C285.356 409.725 286.456 414.025 285.856 419.525C285.156 425.125 291.656 426.025 309.856 426.025C328.056 426.025 325.456 426.025 330.656 426.025C335.856 426.025 338.456 423.225 338.356 421.725C338.256 421.125 333.256 414.525 328.156 407.725Z" fill="#172D39"/>
<path d="M384.456 372.725C384.456 372.725 384.256 388.825 383.156 397.425C382.156 405.925 381.856 406.925 382.256 407.825C382.656 408.725 385.056 409.825 385.056 409.825C385.056 409.825 386.556 414.125 386.256 419.625C385.956 425.225 392.556 426.125 410.756 426.125C428.956 426.125 426.356 426.125 431.556 426.125C436.756 426.125 439.156 423.325 438.956 421.825C438.756 420.325 418.256 397.325 416.256 392.425C414.256 387.625 416.056 375.925 416.056 375.925C416.056 375.925 388.256 370.825 384.456 372.725Z" fill="#B28D93"/>
<path d="M415.356 384.325C415.456 380.025 416.056 376.025 416.056 376.025C416.056 376.025 388.156 370.825 384.456 372.725C384.456 372.725 384.356 377.825 384.156 383.725C393.356 390.125 404.956 387.825 415.356 384.325Z" fill="#896068"/>
<path d="M426.656 406.425C415.956 404.425 404.256 409.425 394.556 405.025C392.256 404.425 391.256 399.625 389.656 396.625C388.356 394.125 386.556 393.325 383.656 391.925C383.556 393.925 383.356 395.825 383.156 397.425C382.156 405.925 381.856 406.925 382.256 407.825C382.656 408.725 385.056 409.825 385.056 409.825C385.056 409.825 386.556 414.125 386.256 419.625C385.956 425.225 392.556 426.125 410.756 426.125C428.956 426.125 426.356 426.125 431.556 426.125C436.756 426.125 439.156 423.325 438.956 421.825C438.856 421.025 432.656 413.725 426.656 406.425Z" fill="#172D39"/>
<path d="M273.056 182.925C273.056 182.925 264.856 191.325 264.756 210.725C264.656 233.825 279.356 250.425 303.456 250.425C327.556 250.425 375.456 249.725 392.556 250.425C409.656 251.125 407.356 213.425 394.756 201.825C382.156 190.325 284.556 168.825 273.056 182.925Z" fill="#172D39"/>
<path d="M296.456 241.225C298.856 233.725 307.356 221.725 322.856 224.825C339.656 228.125 347.856 233.825 339.956 282.725C333.056 325.125 320.756 373.425 318.856 380.525C318.656 381.125 318.256 381.625 317.656 381.825C315.856 382.425 311.756 383.725 305.456 383.725C298.056 383.725 289.956 381.025 286.756 378.225C286.056 377.625 285.656 376.625 285.756 375.725C286.556 363.725 292.556 271.625 293.056 264.725C294.056 254.825 294.756 246.525 296.456 241.225Z" fill="#172D39"/>
<path d="M408.456 224.825C425.656 225.525 434.756 236.725 429.956 282.725C425.656 323.925 417.956 371.025 416.556 379.925C416.356 380.925 415.756 381.725 414.756 382.025C412.756 382.725 408.956 383.625 403.356 383.625C396.356 383.625 388.456 381.225 384.756 378.525C383.656 377.725 383.056 376.425 383.156 375.125C383.456 364.425 384.656 307.825 380.656 264.825C378.056 237.425 392.356 224.125 408.456 224.825Z" fill="#172D39"/>
<path d="M325.056 252.925C332.733 252.925 338.956 247.732 338.956 241.325C338.956 234.919 332.733 229.725 325.056 229.725C317.379 229.725 311.156 234.919 311.156 241.325C311.156 247.732 317.379 252.925 325.056 252.925Z" stroke="#63737A" stroke-width="1.8" stroke-miterlimit="10" stroke-linecap="round" stroke-linejoin="round"/>
<path d="M410.056 252.925C417.733 252.925 423.956 247.732 423.956 241.325C423.956 234.919 417.733 229.725 410.056 229.725C402.379 229.725 396.156 234.919 396.156 241.325C396.156 247.732 402.379 252.925 410.056 252.925Z" stroke="#63737A" stroke-width="1.8" stroke-miterlimit="10" stroke-linecap="round" stroke-linejoin="round"/>
<path d="M389.656 138.725C389.056 137.125 388.656 136.125 388.656 136.125L356.556 142.825L357.156 158.725C369.456 155.325 380.656 147.925 389.656 138.725Z" fill="#896068"/>
<path d="M398.156 164.025C396.456 156.725 391.756 144.125 389.656 138.725C380.656 148.025 369.456 155.325 357.056 158.625L357.556 173.925L371.756 218.325L388.556 208.725C401.156 181.225 400.356 173.425 398.156 164.025Z" fill="#B28D93"/>
<path d="M244.456 142.525C242.956 141.925 242.256 140.225 242.856 138.725C245.956 129.925 256.656 101.225 265.656 91.2253C276.456 79.3253 310.556 78.6252 325.056 78.6252C339.556 78.6252 359.956 81.2253 368.056 88.2253C375.056 94.2253 386.656 124.025 389.856 132.425C390.356 133.725 389.856 135.225 388.756 136.025C384.756 138.725 375.256 144.825 366.256 148.125L370.556 208.725C370.556 208.725 277.156 207.325 273.456 205.525C269.756 203.625 264.956 181.825 265.656 179.525C266.356 177.325 273.056 151.725 273.056 151.725C273.056 151.725 254.256 146.825 244.456 142.525Z" fill="#45677C"/>
<path d="M273.056 151.725C273.056 151.725 276.756 152.725 278.256 153.025C278.256 153.025 286.456 129.825 287.556 123.325C288.656 116.825 288.656 112.025 287.556 109.825" stroke="#DBB146" stroke-width="1.8" stroke-miterlimit="10" stroke-linecap="round" stroke-linejoin="round"/>
<path d="M366.256 148.125C366.256 148.125 365.356 120.925 364.956 115.325C364.556 109.725 364.356 104.925 362.556 101.225" stroke="#DBB146" stroke-width="1.8" stroke-miterlimit="10" stroke-linecap="round" stroke-linejoin="round"/>
<path d="M273.056 151.725C273.056 151.725 253.056 146.325 244.856 142.725C244.856 142.725 244.556 143.525 244.156 144.825C252.456 150.925 261.456 156.425 271.156 158.725L273.056 151.725Z" fill="#896068"/>
<path d="M320.556 201.825C317.556 201.525 307.356 204.025 307.356 204.025C297.356 193.825 268.556 168.825 268.556 168.825L271.256 158.625C261.556 156.325 252.556 150.825 244.256 144.725C242.256 150.725 236.756 168.525 238.256 177.625C240.156 188.725 271.056 208.525 295.556 221.125C295.556 221.125 298.856 224.725 307.056 227.225C309.756 228.025 313.456 229.325 314.956 229.525C316.456 229.725 320.356 229.325 322.756 229.525C325.156 229.725 326.256 227.625 328.856 227.925C331.456 228.225 332.156 226.525 334.056 227.625C335.956 228.725 337.356 226.525 337.356 224.325C337.256 222.225 323.556 202.225 320.556 201.825Z" fill="#B28D93"/>
<path d="M268.556 168.925C268.556 168.925 261.356 166.125 255.656 168.925" stroke="#896068" stroke-width="1.8" stroke-miterlimit="10" stroke-linecap="round" stroke-linejoin="round"/>
<path d="M341.756 86.3253C342.156 95.9253 333.856 103.525 323.356 103.225C312.856 102.925 303.956 94.8253 303.656 85.2253C303.256 75.6253 312.356 72.6253 322.956 72.9253C333.456 73.2253 341.456 76.7253 341.756 86.3253Z" fill="white"/>
<path d="M308.556 61.3253C308.556 61.3253 308.756 81.2253 308.556 84.9253C308.356 88.6253 312.656 97.7253 325.156 97.7253C337.656 97.7253 338.256 85.5253 338.056 84.9253C337.856 84.3253 337.356 65.5253 336.756 64.3253C336.356 63.1253 312.156 56.5253 308.556 61.3253Z" fill="#B28D93"/>
<path d="M315.756 77.2252C321.656 83.9252 329.856 86.4252 338.056 86.0252C338.156 85.4252 338.056 85.0252 338.056 84.9252C338.056 84.7252 337.956 83.2252 337.856 81.0252C330.456 83.3252 323.156 79.3252 315.756 77.2252Z" fill="#896068"/>
<path d="M342.456 62.6253C342.456 62.6253 347.256 55.7253 348.456 45.2253C349.856 33.6253 344.356 25.5253 336.856 21.9253C331.656 19.4253 312.956 15.1253 301.356 26.4253C294.056 33.5253 293.056 56.6253 304.456 62.1253C319.056 69.1253 306.656 70.6253 307.256 71.2253C307.256 71.2253 307.556 72.9253 311.756 68.4253C315.956 63.8253 342.456 62.6253 342.456 62.6253Z" fill="#172D39"/>
<path d="M345.556 48.3253C345.556 48.3253 344.756 61.5253 344.156 69.4253C343.556 77.3253 339.556 85.4253 326.056 85.8253C312.556 86.2253 306.156 75.9253 304.656 68.2253C302.456 56.5253 298.656 33.9253 317.356 31.3253C336.056 28.7253 345.556 34.6253 345.556 48.3253Z" fill="#B28D93"/>
<path d="M345.556 40.2253C345.556 40.2253 333.956 53.6253 316.456 43.0253C310.056 39.1253 308.556 44.9253 308.556 47.2253C308.556 50.4253 310.056 56.7253 305.056 59.3253C303.056 60.3253 299.956 54.1253 301.656 40.2253C303.356 26.3253 329.656 27.4253 338.356 28.4253C347.056 29.4253 346.956 34.0253 345.556 40.2253Z" fill="#172D39"/>
<path d="M307.056 57.9253C307.056 57.9253 305.056 49.6253 299.556 51.3253C293.956 53.0253 296.456 66.5252 305.456 68.2252" fill="#B28D93"/>
<path d="M326.856 76.2252C324.656 76.1252 322.056 75.5252 319.956 73.2252" stroke="#172D39" stroke-width="1.8" stroke-miterlimit="10" stroke-linecap="round" stroke-linejoin="round"/>
<path d="M337.856 61.2253C338.856 61.2253 339.656 60.4253 339.656 59.4253V58.4253C339.656 57.4253 338.856 56.6252 337.856 56.6252C336.856 56.6252 336.056 57.4253 336.056 58.4253V59.4253C336.156 60.4253 336.856 61.2253 337.856 61.2253Z" fill="#172D39"/>
<path d="M320.356 61.2253C321.356 61.2253 322.156 60.4253 322.156 59.4253V58.4253C322.156 57.4253 321.356 56.6252 320.356 56.6252C319.356 56.6252 318.556 57.4253 318.556 58.4253V59.4253C318.556 60.4253 319.356 61.2253 320.356 61.2253Z" fill="#172D39"/>
<path d="M341.456 52.0253C341.356 50.8253 340.156 49.2253 337.856 49.3253C334.756 49.4253 334.256 51.2253 334.656 52.4253C334.956 53.4253 336.356 52.3253 337.956 52.1253C339.756 52.0253 341.556 53.0253 341.456 52.0253Z" fill="#172D39"/>
<path d="M328.756 72.0252C330.256 72.0252 331.556 71.3252 332.156 70.3252C332.456 69.8252 332.756 69.2252 332.856 68.5252C333.056 67.9252 333.056 67.2252 333.156 66.5252C333.256 65.1252 333.056 63.8252 332.956 62.3252C332.856 60.8252 332.656 59.3252 332.956 57.8252C333.456 59.2252 333.956 60.6252 334.356 62.0252C334.556 62.7252 334.756 63.5252 334.856 64.2252C334.956 65.0252 335.056 65.8252 334.956 66.5252C334.856 68.1252 334.456 69.8252 333.256 71.0252C332.656 71.6252 331.856 72.1252 331.056 72.2252C330.256 72.4252 329.456 72.3252 328.756 72.0252Z" fill="#172D39"/>
<path d="M315.756 52.0253C315.856 50.8253 317.156 49.2253 319.556 49.3253C322.956 49.5253 323.456 51.2253 323.056 52.4253C322.656 53.4253 321.256 52.3253 319.556 52.1253C317.556 52.0253 315.656 53.0253 315.756 52.0253Z" fill="#172D39"/>
<path d="M299.656 56.9253C299.756 56.5253 299.956 56.0253 300.356 55.7253C300.556 55.5253 300.956 55.5253 301.256 55.6253C301.456 55.6253 301.556 55.7253 301.656 55.8253C301.756 55.9253 301.956 56.0253 301.956 56.1253C302.356 56.5253 302.556 56.9253 302.756 57.3253C302.956 57.7253 303.056 58.2253 303.156 58.6253C303.356 59.5253 303.256 60.3253 303.156 61.0253C303.156 61.3253 303.056 61.6253 303.156 61.9253C303.256 62.2253 303.556 62.4253 303.856 62.7253C303.456 62.8253 302.956 62.8253 302.456 62.5253C302.056 62.2253 301.756 61.6253 301.656 61.2253C301.456 60.3253 301.356 59.6253 301.256 58.9253C301.156 58.6253 301.156 58.2253 301.056 57.9253C300.956 57.6253 300.856 57.3253 300.756 57.0253C300.656 56.8253 300.656 56.6253 300.356 56.6253C300.456 56.5253 300.056 56.7253 299.656 56.9253Z" fill="#172D39"/>
<path d="M318.656 68.1252C323.35 68.1252 327.156 64.3197 327.156 59.6252C327.156 54.9308 323.35 51.1252 318.656 51.1252C313.961 51.1252 310.156 54.9308 310.156 59.6252C310.156 64.3197 313.961 68.1252 318.656 68.1252Z" stroke="white" stroke-width="1.8" stroke-miterlimit="10" stroke-linecap="round" stroke-linejoin="round"/>
<path d="M341.556 68.1252C345.808 68.1252 349.256 64.3197 349.256 59.6252C349.256 54.9308 345.808 51.1252 341.556 51.1252C337.303 51.1252 333.856 54.9308 333.856 59.6252C333.856 64.3197 337.303 68.1252 341.556 68.1252Z" stroke="white" stroke-width="1.8" stroke-miterlimit="10" stroke-linecap="round" stroke-linejoin="round"/>
<path d="M310.656 56.7252H309.256C308.656 56.7252 308.056 56.5252 307.556 56.1252L305.856 54.7252" stroke="white" stroke-width="1.8" stroke-miterlimit="10" stroke-linecap="round" stroke-linejoin="round"/>
<path d="M326.956 57.8253C326.956 57.8253 331.656 56.1253 333.856 57.8253" stroke="white" stroke-width="1.8" stroke-miterlimit="10" stroke-linecap="round" stroke-linejoin="round"/>
<path d="M411.456 233.825H315.456C312.656 233.825 310.556 231.125 311.356 228.425L318.556 201.925L325.856 174.925C326.656 171.925 329.356 169.825 332.456 169.825H398.356H428.456C431.256 169.825 433.356 172.525 432.556 175.225L418.056 228.725C417.256 231.725 414.556 233.825 411.456 233.825Z" fill="#172D39"/>
<path d="M432.556 175.325L418.056 228.725C417.256 231.725 414.556 233.825 411.456 233.825H315.456" stroke="#63737A" stroke-width="1.8" stroke-miterlimit="10" stroke-linecap="round" stroke-linejoin="round"/>
<path d="M379.633 207.303C382.953 204.387 383.812 199.938 381.552 197.365C379.293 194.793 374.77 195.071 371.45 197.987C368.131 200.902 367.272 205.351 369.531 207.924C371.791 210.496 376.314 210.218 379.633 207.303Z" fill="#63737A"/>
<path d="M296.156 39.0253C296.156 39.0253 294.756 46.9253 288.856 53.6253C287.756 54.9253 287.856 56.8253 289.256 57.8253C290.556 58.8253 292.356 58.6253 293.356 57.3253C295.656 54.4253 299.656 48.9253 301.956 43.0253C303.956 37.8253 296.656 37.1253 296.156 39.0253Z" fill="#172D39"/>
<path d="M441 93H410.4L407.3 95C406.3 95.7 405 94.9 405 93.7V72C405 69.8 406.8 68 409 68H441.1C443.3 68 445.1 69.8 445.1 72V88.9C445 91.2 443.2 93 441 93Z" fill="#45677C"/>
<path d="M424.6 78H435.3" stroke="#172D39" stroke-width="1.8" stroke-miterlimit="10" stroke-linecap="round" stroke-linejoin="round"/>
<path d="M424.6 83.5H431.1" stroke="#172D39" stroke-width="1.8" stroke-miterlimit="10" stroke-linecap="round" stroke-linejoin="round"/>
<path d="M419.1 78H413.6V83.5H419.1V78Z" fill="#45677C" stroke="#172D39" stroke-width="1.8" stroke-miterlimit="10" stroke-linecap="round" stroke-linejoin="round"/>
</svg>
