<svg width="676" height="451" viewBox="0 0 676 451" fill="none" xmlns="http://www.w3.org/2000/svg">
<path d="M591.842 429.205L71.8425 414.305C47.6425 413.605 27.7425 395.105 25.3425 371.005L0.24249 123.005C-2.55751 94.9046 19.2425 70.4046 47.4425 70.0046L626.242 62.0046C655.442 61.6046 678.342 87.1046 674.742 116.105L641.042 387.005C637.942 411.605 616.642 429.905 591.842 429.205Z" fill="#EAEAEA"/>
<mask id="mask0_368_303" style="mask-type:alpha" maskUnits="userSpaceOnUse" x="0" y="62" width="676" height="368">
<path d="M591.843 429.205L71.8426 414.305C47.6426 413.605 27.7426 395.105 25.3426 371.005L0.242612 123.005C-2.55739 94.9046 19.2426 70.4046 47.4426 70.0046L626.243 62.0046C655.443 61.6046 678.343 87.1046 674.743 116.105L641.043 387.005C637.943 411.605 616.643 429.905 591.843 429.205Z" fill="#EAF9F3"/>
</mask>
<g mask="url(#mask0_368_303)">
<path d="M167.443 474.205H-248.057C-256.357 474.205 -263.057 467.505 -263.057 459.205V223.505C-263.057 215.205 -256.357 208.505 -248.057 208.505H167.443C175.743 208.505 182.443 215.205 182.443 223.505V459.105C182.443 467.505 175.743 474.205 167.443 474.205Z" stroke="#B8D8C7" stroke-width="1.8" stroke-miterlimit="10" stroke-linecap="round" stroke-linejoin="round"/>
<path d="M716.543 458.405H297.443C289.143 458.405 282.443 451.705 282.443 443.405V99.1046C282.443 90.8046 289.143 84.1046 297.443 84.1046H716.543C724.843 84.1046 731.543 90.8046 731.543 99.1046V443.405C731.543 451.705 724.843 458.405 716.543 458.405Z" stroke="#B8D8C7" stroke-width="1.8" stroke-miterlimit="10" stroke-linecap="round" stroke-linejoin="round"/>
<path d="M52.6425 208.505H32.3425C30.1425 208.505 28.3425 206.905 28.0425 204.705L26.4425 190.305C26.1425 187.805 28.1425 185.505 30.7425 185.505H54.2425C56.8425 185.505 58.7425 187.705 58.5425 190.305L56.9425 204.705C56.6425 206.905 54.8425 208.505 52.6425 208.505Z" stroke="#B8D8C7" stroke-width="1.8" stroke-miterlimit="10" stroke-linecap="round" stroke-linejoin="round"/>
<path d="M40.0425 185.605C40.0425 185.605 32.0425 184.805 30.4425 174.005C30.4425 174.005 37.6425 176.105 39.9425 181.205C39.9425 181.205 40.9425 169.805 46.3425 168.705C46.3425 168.705 48.7425 177.205 44.9425 181.405C44.9425 181.405 47.8425 176.605 55.2425 176.705C55.2425 176.705 53.3425 183.505 46.0425 185.505" fill="#B8D8C7"/>
<path d="M164.243 258.305H74.0425C71.7425 258.305 69.8425 256.405 69.8425 254.105V226.705C69.8425 224.405 71.7425 222.505 74.0425 222.505H164.243C166.543 222.505 168.443 224.405 168.443 226.705V254.105C168.543 256.405 166.643 258.305 164.243 258.305Z" stroke="#B8D8C7" stroke-width="1.8" stroke-miterlimit="10" stroke-linecap="round" stroke-linejoin="round"/>
<path d="M129.543 232.105H108.743C107.943 232.105 107.243 231.405 107.243 230.605C107.243 229.805 107.943 229.105 108.743 229.105H129.543C130.343 229.105 131.043 229.805 131.043 230.605C131.043 231.405 130.343 232.105 129.543 232.105Z" fill="#B8D8C7"/>
<path d="M164.243 304.105H74.0425C71.7425 304.105 69.8425 302.205 69.8425 299.905V272.505C69.8425 270.205 71.7425 268.305 74.0425 268.305H164.243C166.543 268.305 168.443 270.205 168.443 272.505V299.905C168.543 302.205 166.643 304.105 164.243 304.105Z" stroke="#B8D8C7" stroke-width="1.8" stroke-miterlimit="10" stroke-linecap="round" stroke-linejoin="round"/>
<path d="M129.543 277.905H108.743C107.943 277.905 107.243 277.205 107.243 276.405C107.243 275.605 107.943 274.905 108.743 274.905H129.543C130.343 274.905 131.043 275.605 131.043 276.405C131.043 277.305 130.343 277.905 129.543 277.905Z" fill="#B8D8C7"/>
<path d="M627.443 336.405H537.242C534.942 336.405 533.042 334.505 533.042 332.205V304.805C533.042 302.505 534.942 300.605 537.242 300.605H627.443C629.743 300.605 631.642 302.505 631.642 304.805V332.205C631.742 334.505 629.843 336.405 627.443 336.405Z" stroke="#B8D8C7" stroke-width="1.8" stroke-miterlimit="10" stroke-linecap="round" stroke-linejoin="round"/>
<path d="M592.742 310.305H571.943C571.143 310.305 570.443 309.605 570.443 308.805C570.443 308.005 571.143 307.305 571.943 307.305H592.742C593.542 307.305 594.242 308.005 594.242 308.805C594.242 309.605 593.542 310.305 592.742 310.305Z" fill="#B8D8C7"/>
<path d="M511.642 336.405H421.443C419.143 336.405 417.242 334.505 417.242 332.205V304.805C417.242 302.505 419.143 300.605 421.443 300.605H511.642C513.942 300.605 515.842 302.505 515.842 304.805V332.205C515.842 334.505 513.942 336.405 511.642 336.405Z" stroke="#B8D8C7" stroke-width="1.8" stroke-miterlimit="10" stroke-linecap="round" stroke-linejoin="round"/>
<path d="M476.943 310.305H456.142C455.342 310.305 454.642 309.605 454.642 308.805C454.642 308.005 455.342 307.305 456.142 307.305H476.943C477.743 307.305 478.443 308.005 478.443 308.805C478.443 309.605 477.743 310.305 476.943 310.305Z" fill="#B8D8C7"/>
<path d="M49.2425 258.305H-40.9575C-43.2575 258.305 -45.1575 256.405 -45.1575 254.105V226.705C-45.1575 224.405 -43.2575 222.505 -40.9575 222.505H49.2425C51.5425 222.505 53.4425 224.405 53.4425 226.705V254.105C53.5425 256.405 51.6425 258.305 49.2425 258.305Z" stroke="#B8D8C7" stroke-width="1.8" stroke-miterlimit="10" stroke-linecap="round" stroke-linejoin="round"/>
<path d="M14.5426 232.105H-6.25745C-7.05745 232.105 -7.75745 231.405 -7.75745 230.605C-7.75745 229.805 -7.05745 229.105 -6.25745 229.105H14.5426C15.3426 229.105 16.0426 229.805 16.0426 230.605C16.0426 231.405 15.4426 232.105 14.5426 232.105Z" fill="#B8D8C7"/>
<path d="M49.2425 304.105H-40.9575C-43.2575 304.105 -45.1575 302.205 -45.1575 299.905V272.505C-45.1575 270.205 -43.2575 268.305 -40.9575 268.305H49.2425C51.5425 268.305 53.4425 270.205 53.4425 272.505V299.905C53.5425 302.205 51.6425 304.105 49.2425 304.105Z" stroke="#B8D8C7" stroke-width="1.8" stroke-miterlimit="10" stroke-linecap="round" stroke-linejoin="round"/>
<path d="M14.5426 277.905H-6.25745C-7.05745 277.905 -7.75745 277.205 -7.75745 276.405C-7.75745 275.605 -7.05745 274.905 -6.25745 274.905H14.5426C15.3426 274.905 16.0426 275.605 16.0426 276.405C16.0426 277.305 15.4426 277.905 14.5426 277.905Z" fill="#B8D8C7"/>
<path d="M758.743 188.905H303.743C301.243 188.905 299.143 186.805 299.143 184.305V104.605C299.143 102.105 301.243 100.005 303.743 100.005H758.743C761.243 100.005 763.342 102.105 763.342 104.605V184.305C763.342 186.805 761.343 188.905 758.743 188.905Z" stroke="#B8D8C7" stroke-width="1.8" stroke-miterlimit="10" stroke-linecap="round" stroke-linejoin="round"/>
<path d="M758.743 287.805H303.743C301.243 287.805 299.143 285.705 299.143 283.205V203.505C299.143 201.005 301.243 198.905 303.743 198.905H758.743C761.243 198.905 763.342 201.005 763.342 203.505V283.205C763.342 285.805 761.343 287.805 758.743 287.805Z" stroke="#B8D8C7" stroke-width="1.8" stroke-miterlimit="10" stroke-linecap="round" stroke-linejoin="round"/>
<path d="M339.742 138.605H329.842V188.905H339.742V138.605Z" stroke="#B8D8C7" stroke-width="1.8" stroke-miterlimit="10" stroke-linecap="round" stroke-linejoin="round"/>
<path d="M349.943 152.305H339.642V188.905H349.943V152.305Z" stroke="#B8D8C7" stroke-width="1.8" stroke-miterlimit="10" stroke-linecap="round" stroke-linejoin="round"/>
<path d="M638.042 237.405H628.142V287.705H638.042V237.405Z" stroke="#B8D8C7" stroke-width="1.8" stroke-miterlimit="10" stroke-linecap="round" stroke-linejoin="round"/>
<path d="M648.342 251.105H638.042V287.705H648.342V251.105Z" stroke="#B8D8C7" stroke-width="1.8" stroke-miterlimit="10" stroke-linecap="round" stroke-linejoin="round"/>
<path d="M617.943 237.405H608.042V287.705H617.943V237.405Z" stroke="#B8D8C7" stroke-width="1.8" stroke-miterlimit="10" stroke-linecap="round" stroke-linejoin="round"/>
<path d="M608.181 239.278L598.74 236.297L583.595 284.263L593.036 287.244L608.181 239.278Z" stroke="#B8D8C7" stroke-width="1.8" stroke-miterlimit="10" stroke-linecap="round" stroke-linejoin="round"/>
<path d="M628.242 251.105H617.943V287.705H628.242V251.105Z" stroke="#B8D8C7" stroke-width="1.8" stroke-miterlimit="10" stroke-linecap="round" stroke-linejoin="round"/>
<path d="M504.542 138.605H494.642V188.905H504.542V138.605Z" stroke="#B8D8C7" stroke-width="1.8" stroke-miterlimit="10" stroke-linecap="round" stroke-linejoin="round"/>
<path d="M514.842 152.305H504.542V188.905H514.842V152.305Z" stroke="#B8D8C7" stroke-width="1.8" stroke-miterlimit="10" stroke-linecap="round" stroke-linejoin="round"/>
<path d="M406.742 138.605H396.842V188.905H406.742V138.605Z" stroke="#B8D8C7" stroke-width="1.8" stroke-miterlimit="10" stroke-linecap="round" stroke-linejoin="round"/>
<path d="M396.977 140.462L387.537 137.481L372.391 185.447L381.832 188.428L396.977 140.462Z" stroke="#B8D8C7" stroke-width="1.8" stroke-miterlimit="10" stroke-linecap="round" stroke-linejoin="round"/>
<path d="M417.042 152.305H406.742V188.905H417.042V152.305Z" stroke="#B8D8C7" stroke-width="1.8" stroke-miterlimit="10" stroke-linecap="round" stroke-linejoin="round"/>
<path d="M637.942 145.205L639.042 130.305C639.142 129.305 638.342 128.505 637.342 128.505H633.042H628.742C627.742 128.505 627.042 129.305 627.042 130.305L628.142 145.205C628.142 145.205 619.142 151.005 619.242 155.805C619.342 159.505 621.542 177.205 622.542 185.005C622.842 187.205 624.642 188.805 626.842 188.805H633.042H639.242C641.442 188.805 643.242 187.205 643.542 185.005C644.542 177.205 646.742 159.505 646.842 155.805C646.942 150.905 637.942 145.205 637.942 145.205Z" fill="#B8D8C7"/>
<path d="M598.042 145.205L599.142 130.305C599.242 129.305 598.442 128.505 597.442 128.505H593.142H588.842C587.842 128.505 587.142 129.305 587.142 130.305L588.242 145.205C588.242 145.205 579.242 151.005 579.342 155.805C579.442 159.505 581.642 177.205 582.642 185.005C582.942 187.205 584.742 188.805 586.942 188.805H593.142H599.342C601.542 188.805 603.342 187.205 603.642 185.005C604.642 177.205 606.842 159.505 606.942 155.805C607.042 150.905 598.042 145.205 598.042 145.205Z" fill="#B8D8C7"/>
<path d="M-1.25751 382.205H954.542" stroke="#B8D8C7" stroke-width="1.8" stroke-miterlimit="10" stroke-linecap="round" stroke-linejoin="round"/>
</g>
<path d="M481.243 238.493L461.743 394.293C461.543 395.993 462.843 397.493 464.543 397.493C465.943 397.493 467.143 396.493 467.343 395.093L489.643 242.393L481.243 238.493Z" fill="#B8D8C7"/>
<path d="M541.843 260.793L561.343 416.593C561.543 418.293 560.243 419.793 558.543 419.793C557.143 419.793 555.943 418.793 555.743 417.393L533.443 264.693L541.843 260.793Z" fill="#B8D8C7"/>
<path d="M447.243 254.693L421.043 409.493C420.743 411.193 422.043 412.693 423.743 412.793C425.143 412.893 426.343 411.893 426.643 410.493L455.543 258.893L447.243 254.693Z" fill="#B8D8C7"/>
<path d="M520.643 239.193L535.043 395.493C535.243 397.193 536.843 398.393 538.443 397.993C539.843 397.693 540.743 396.393 540.643 395.093L529.743 241.093L520.643 239.193Z" fill="#B8D8C7"/>
<path d="M562.343 100.093C551.443 98.2934 515.343 224.693 515.343 224.693H550.043C550.043 224.693 533.043 244.993 532.443 246.893C531.843 248.793 525.643 274.493 525.643 274.493C567.143 261.293 557.943 224.593 557.943 224.593C549.043 197.093 561.443 161.893 566.743 132.793C572.043 103.593 562.343 100.093 562.343 100.093Z" fill="#45677C"/>
<path d="M433.743 267.793C433.743 267.793 434.643 281.493 470.343 283.493C506.043 285.493 552.043 281.993 558.043 241.493C558.143 241.493 440.943 256.393 433.743 267.793Z" fill="#45677C"/>
<path d="M549.243 221.893C539.543 186.493 577.043 107.393 562.443 99.9933C547.443 92.4933 489.843 95.5933 474.343 108.993C459.843 121.593 453.243 214.993 452.443 226.793C452.343 227.193 452.343 227.593 452.343 227.993C452.343 234.993 451.343 246.793 446.243 250.493C436.343 257.693 420.043 268.593 451.243 276.593C451.243 276.593 464.743 279.693 503.243 278.093C555.343 275.893 550.143 243.793 550.043 224.593C550.043 223.693 549.743 222.793 549.243 221.893Z" fill="white"/>
<path d="M409.253 373.337C409.253 373.337 413.653 394.337 414.653 396.037C415.653 397.737 423.153 401.437 433.353 398.437C443.553 395.337 443.853 391.637 443.853 391.637C443.853 391.637 441.853 367.537 441.853 364.837C441.753 362.137 407.553 357.337 409.253 373.337Z" fill="#B28D93"/>
<path d="M442.853 380.137C442.353 373.537 441.753 366.237 441.753 364.837C441.753 362.137 407.453 357.337 409.153 373.337C409.153 373.337 409.853 376.537 410.653 380.537C421.453 383.437 432.553 383.237 442.853 380.137Z" fill="#896068"/>
<path d="M413.553 392.437C413.553 392.437 412.353 394.337 412.353 404.237C412.353 414.137 397.353 436.537 398.353 442.637C399.353 448.737 441.553 450.237 445.353 445.737C449.153 441.137 445.153 408.037 445.453 404.537C445.653 400.937 447.053 394.437 443.653 390.237C443.653 390.237 440.153 393.737 437.353 394.337C434.553 394.937 431.953 389.237 426.453 388.237C420.953 387.237 417.353 393.737 416.753 394.337C416.153 394.937 413.753 394.137 413.553 392.437Z" fill="#172D39"/>
<path d="M415.353 415.837C415.353 415.837 423.853 409.937 437.353 416.637" stroke="white" stroke-width="1.8" stroke-miterlimit="10" stroke-linecap="round" stroke-linejoin="round"/>
<path d="M412.053 425.237C412.053 425.237 423.853 416.937 437.453 426.937" stroke="white" stroke-width="1.8" stroke-miterlimit="10" stroke-linecap="round" stroke-linejoin="round"/>
<path d="M517.953 384.737C517.953 384.737 524.753 403.737 528.453 407.137C532.153 410.537 542.053 410.837 548.853 407.137C555.653 403.437 555.353 397.837 555.353 397.837C555.353 397.837 549.453 366.737 548.153 365.937C546.753 365.037 517.953 375.637 517.953 384.737Z" fill="#B28D93"/>
<path d="M517.953 384.737C517.953 384.737 519.653 389.437 521.753 394.637C533.353 396.637 543.453 392.737 553.253 387.137C551.453 378.037 548.953 366.437 548.153 365.937C546.753 365.037 517.953 375.637 517.953 384.737Z" fill="#896068"/>
<path d="M525.353 401.837C525.353 401.837 524.453 402.137 527.053 410.537C528.353 415.037 513.953 438.137 514.253 443.837C514.553 449.537 526.553 450.537 536.053 450.837C550.553 451.237 560.053 448.337 560.853 439.037C561.653 429.737 559.153 411.637 559.153 407.637C559.153 403.637 557.853 399.037 554.553 393.637C554.553 393.637 554.853 401.137 551.853 402.537C548.853 404.037 543.253 398.537 538.953 399.637C534.653 400.737 532.853 404.037 531.053 405.937C529.253 407.737 525.853 402.937 525.353 401.837Z" fill="#172D39"/>
<path d="M529.753 421.237C529.753 421.237 537.553 413.437 551.253 419.437" stroke="white" stroke-width="1.8" stroke-miterlimit="10" stroke-linecap="round" stroke-linejoin="round"/>
<path d="M525.453 430.137C525.453 430.137 537.753 419.937 551.153 429.337" stroke="white" stroke-width="1.8" stroke-miterlimit="10" stroke-linecap="round" stroke-linejoin="round"/>
<path d="M447.753 194.437C447.753 194.437 401.853 219.737 389.753 242.937C377.653 266.137 396.553 340.037 396.253 355.637C395.953 371.237 397.953 373.537 406.653 376.837C415.353 380.137 434.253 379.437 442.153 373.537C452.353 365.937 447.653 352.037 445.353 335.237C443.053 318.537 441.953 268.837 441.953 268.837C441.953 268.837 463.553 251.337 474.153 246.137C476.253 245.037 478.553 244.637 480.653 244.437C483.953 244.237 486.353 247.337 485.453 250.437C482.853 259.637 479.153 282.737 480.653 293.337C482.053 303.237 488.953 327.737 502.453 369.237C505.153 377.437 506.053 384.037 509.353 386.837C523.253 398.537 553.453 386.037 556.653 375.137C557.953 370.637 554.653 355.337 550.353 338.637C544.253 314.737 536.053 287.937 536.653 285.037C537.653 280.137 550.553 235.137 547.153 214.937C538.953 166.037 501.053 185.737 447.753 194.437Z" fill="#172D39"/>
<path d="M404.153 273.537C412.493 273.537 419.253 266.15 419.253 257.037C419.253 247.925 412.493 240.537 404.153 240.537C395.814 240.537 389.053 247.925 389.053 257.037C389.053 266.15 395.814 273.537 404.153 273.537Z" stroke="#63737A" stroke-width="1.8" stroke-miterlimit="10" stroke-linecap="round" stroke-linejoin="round"/>
<path d="M504.24 309.98C512.775 308.807 518.682 300.493 517.434 291.41C516.185 282.327 508.253 275.916 499.718 277.089C491.182 278.262 485.275 286.577 486.524 295.659C487.773 304.742 495.704 311.154 504.24 309.98Z" stroke="#63737A" stroke-width="1.8" stroke-miterlimit="10" stroke-linecap="round" stroke-linejoin="round"/>
<path d="M441.953 268.837C441.953 268.837 441.353 262.637 439.453 259.337" stroke="#63737A" stroke-width="1.8" stroke-miterlimit="10" stroke-linecap="round" stroke-linejoin="round"/>
<path d="M481.953 244.137C481.953 244.137 483.053 237.237 481.253 235.237" stroke="#63737A" stroke-width="1.8" stroke-miterlimit="10" stroke-linecap="round" stroke-linejoin="round"/>
<path d="M469.553 236.037C469.553 236.037 476.953 235.437 492.953 236.037" stroke="#63737A" stroke-width="1.8" stroke-miterlimit="10" stroke-linecap="round" stroke-linejoin="round"/>
<path d="M453.653 92.7372C453.653 92.7372 447.853 94.8372 438.853 108.437C430.153 121.537 422.353 129.737 422.353 129.737C422.353 129.737 412.053 118.437 401.253 111.237C390.453 104.037 378.153 92.7372 378.153 92.7372C378.153 92.7372 370.053 88.3372 364.953 94.3372C359.853 100.237 362.453 109.037 362.453 109.037C362.453 109.037 374.553 125.437 392.353 146.837C403.953 160.837 415.753 170.837 425.653 167.737C438.853 163.637 464.853 140.037 469.353 130.637C473.753 121.137 470.453 89.3372 453.653 92.7372Z" fill="#599F75"/>
<path d="M422.253 129.737C422.253 129.737 425.853 134.137 427.553 139.637" stroke="#172D39" stroke-width="1.8" stroke-miterlimit="10" stroke-linecap="round" stroke-linejoin="round"/>
<path d="M378.553 93.2373C378.553 93.2373 370.553 86.6373 364.853 87.2373C357.453 88.0373 357.553 86.3373 352.853 87.3373C350.653 87.8373 346.653 89.4373 342.453 94.6373C338.253 99.8373 336.753 102.537 336.753 102.537C336.753 102.537 332.353 93.1373 329.653 94.6373C326.953 96.0373 333.353 110.537 335.553 112.037C337.753 113.537 344.253 110.937 346.553 112.037C348.853 113.137 355.053 111.137 355.053 111.137L363.553 109.037L365.753 111.437C366.453 112.237 367.553 112.437 368.553 112.137C370.553 111.337 373.953 109.437 376.153 104.737C379.653 97.4373 378.553 93.2373 378.553 93.2373Z" fill="#B28D93"/>
<path d="M336.753 102.537C336.753 102.537 332.353 93.1373 329.653 94.6373C326.953 96.0373 333.353 110.537 335.553 112.037C337.753 113.537 344.253 110.937 346.553 112.037" stroke="#896068" stroke-width="1.8" stroke-miterlimit="10" stroke-linecap="round" stroke-linejoin="round"/>
<path d="M368.253 99.6372C368.253 99.6372 365.353 107.237 361.753 112.137C358.053 117.037 352.753 117.237 350.353 115.637C347.953 114.137 351.153 103.037 351.853 100.337C352.553 97.6373 354.753 95.1372 356.153 98.1372C357.253 100.437 355.653 105.937 355.953 110.337" fill="#B28D93"/>
<path d="M351.653 114.737C351.653 114.737 348.553 116.637 346.753 116.037C344.953 115.437 343.853 114.137 343.553 111.437C343.253 108.837 344.253 100.637 344.153 98.5373C344.053 96.4373 347.353 94.7373 348.753 99.5373C350.153 104.437 349.453 108.537 350.353 109.537" fill="#B28D93"/>
<path d="M344.853 113.337C344.853 113.337 342.553 114.537 340.153 114.737C337.753 114.937 336.653 113.337 335.853 108.437C334.953 102.537 334.253 96.5373 336.353 96.2373C338.453 95.9373 339.553 99.1373 340.353 102.437C341.153 105.737 341.653 107.837 342.153 107.937" fill="#B28D93"/>
<path d="M353.853 87.2372C353.853 87.2372 348.153 87.6372 346.053 87.6372C344.053 87.6372 338.453 86.2372 337.253 87.9372C336.053 89.6372 339.453 92.7373 345.553 93.5373C351.653 94.4373 357.553 89.5372 353.853 87.2372Z" fill="#B28D93"/>
<path d="M368.253 116.737C368.253 116.737 376.153 119.337 381.653 111.437C386.553 104.437 384.653 98.4373 384.653 98.4373" stroke="#172D39" stroke-width="1.8" stroke-miterlimit="10" stroke-linecap="round" stroke-linejoin="round"/>
<path d="M409.653 163.737C409.653 163.737 407.753 161.437 412.653 160.037C417.653 158.637 436.653 157.837 434.353 163.337" stroke="#172D39" stroke-width="1.8" stroke-miterlimit="10" stroke-linecap="round" stroke-linejoin="round"/>
<path d="M368.253 99.6372C368.253 99.6372 365.353 107.237 361.753 112.137C358.053 117.037 352.753 117.237 350.353 115.637C347.953 114.137 351.153 103.037 351.853 100.337C352.553 97.6373 354.753 95.1372 356.153 98.1372C357.253 100.437 355.653 105.937 355.953 110.337" stroke="#896068" stroke-width="1.8" stroke-miterlimit="10" stroke-linecap="round" stroke-linejoin="round"/>
<path d="M349.753 115.637C348.753 116.037 347.653 116.337 346.753 116.037C344.953 115.437 343.853 114.137 343.553 111.437C343.253 108.837 344.253 100.637 344.153 98.5373C344.053 96.4373 347.353 94.7373 348.753 99.5373C349.753 103.137 349.653 106.237 349.953 108.137" stroke="#896068" stroke-width="1.8" stroke-miterlimit="10" stroke-linecap="round" stroke-linejoin="round"/>
<path d="M344.053 113.637C343.153 114.037 341.753 114.537 340.153 114.637C337.753 114.837 336.653 113.237 335.853 108.337C334.953 102.437 334.253 96.4372 336.353 96.1372C338.453 95.8372 339.553 99.0373 340.353 102.337C341.153 105.637 341.653 107.737 342.153 107.837" stroke="#896068" stroke-width="1.8" stroke-miterlimit="10" stroke-linecap="round" stroke-linejoin="round"/>
<path d="M343.753 93.3373C343.753 93.3373 346.853 90.2373 349.353 88.8373" stroke="#896068" stroke-width="1.8" stroke-miterlimit="10" stroke-linecap="round" stroke-linejoin="round"/>
<path d="M464.653 39.4373C464.553 37.6373 464.653 35.8372 464.953 34.0372C465.753 29.8372 467.853 21.0372 471.353 18.1372C476.553 13.8372 479.353 20.2372 479.353 20.2372C479.353 20.2372 482.953 15.5372 486.353 16.0372C489.753 16.4372 491.553 20.5372 491.553 20.5372C491.553 20.5372 497.053 16.0372 500.353 18.2372C503.653 20.3372 504.553 23.8372 504.553 23.8372C504.553 23.8372 508.053 19.8373 511.753 21.4373C515.453 23.1372 516.153 32.5372 516.153 32.5372C516.153 32.5372 519.853 34.6372 520.653 41.9373C521.553 49.7373 517.753 61.2373 509.953 74.4373C509.953 74.4373 493.853 45.4372 483.653 41.3372C473.453 37.2372 473.553 44.8372 470.353 45.0372C467.553 45.1372 465.153 44.8372 464.653 39.4373Z" fill="#172D39"/>
<path d="M466.653 93.5373C466.653 93.5373 454.153 95.0373 468.753 81.8373C481.353 70.4373 523.353 73.6373 528.753 83.4373C532.753 90.7373 537.853 110.237 520.853 121.937C503.853 133.537 474.253 121.237 466.653 93.5373Z" fill="#599F75"/>
<path d="M490.653 89.8373C490.653 89.8373 502.353 89.3373 512.153 88.9373C521.853 88.4373 536.253 88.7373 544.153 99.5373C553.253 111.837 539.553 154.237 537.553 165.037C535.553 175.837 543.253 188.837 542.853 197.737C542.653 202.837 536.253 216.237 507.853 218.737C475.753 221.637 447.453 215.037 444.353 196.537C442.253 184.137 450.453 175.437 447.653 155.237C446.153 144.637 444.253 110.337 447.853 100.637C451.453 90.9373 457.453 87.7373 490.653 89.8373Z" fill="#45677C"/>
<path d="M478.653 80.0372C478.653 80.0372 477.253 91.1372 476.653 94.0372C476.153 96.9372 477.653 105.137 489.253 105.037C501.753 104.937 509.553 94.9372 509.853 90.9372C510.153 86.9372 509.153 67.6372 510.853 61.2372C512.553 54.8372 496.553 58.5372 489.653 62.5372C482.753 66.5372 477.953 76.7372 478.653 80.0372Z" fill="#B28D93"/>
<path d="M499.353 79.1372C492.853 80.6372 484.853 86.2372 477.953 85.1372C477.753 86.8372 477.453 88.6372 477.253 90.2372C486.453 91.7372 495.153 85.9372 499.353 79.1372Z" fill="#896068"/>
<path d="M477.653 87.5373C477.653 87.5373 476.053 99.0373 485.753 104.737C485.753 104.737 496.953 103.737 505.153 95.7373C508.253 92.7373 509.853 88.5373 509.853 84.2373V83.3373C509.853 83.3373 525.553 83.5373 530.053 88.2373C538.653 97.2373 503.353 111.537 484.153 114.537C484.153 114.537 466.353 104.637 462.153 94.5373C457.953 84.3373 476.253 87.9373 477.653 87.5373Z" fill="#599F75"/>
<path d="M480.853 108.237C480.853 108.237 476.253 121.737 475.053 137.537" stroke="#172D39" stroke-width="1.8" stroke-miterlimit="10" stroke-linecap="round" stroke-linejoin="round"/>
<path d="M477.353 138.737C477.453 137.437 476.753 133.437 475.453 133.337C474.153 133.237 472.653 137.037 472.553 138.337C472.453 139.637 473.453 140.837 474.753 140.937C476.053 141.137 477.253 140.137 477.353 138.737Z" fill="#599F75"/>
<path d="M492.553 108.537C492.553 108.537 491.153 122.737 493.653 138.337" stroke="#172D39" stroke-width="1.8" stroke-miterlimit="10" stroke-linecap="round" stroke-linejoin="round"/>
<path d="M496.253 139.137C496.053 137.837 494.453 134.137 493.153 134.337C491.853 134.537 491.253 138.537 491.453 139.837C491.653 141.137 492.853 142.137 494.253 141.937C495.553 141.637 496.453 140.437 496.253 139.137Z" fill="#599F75"/>
<path d="M456.053 184.137C457.353 182.137 461.353 174.937 462.153 167.037C462.353 165.037 464.153 163.637 466.053 163.837C473.453 164.637 489.953 166.137 502.353 165.037C504.353 164.837 506.053 166.337 506.253 168.337C506.653 172.637 508.553 179.937 515.953 187.037C516.553 187.537 516.953 188.237 517.053 189.037C517.553 191.737 518.653 198.337 518.353 203.937C517.953 210.837 471.553 215.537 455.553 201.337C454.753 200.637 454.353 199.537 454.353 198.537C454.453 195.837 454.853 190.237 455.553 185.637C455.653 184.937 455.853 184.537 456.053 184.137Z" fill="#599F75"/>
<path d="M465.553 44.1372C465.553 44.1372 465.353 53.9372 464.453 62.3372C463.653 70.7372 464.453 81.9372 477.953 85.4372C491.453 88.9372 504.553 78.7372 509.453 65.3372C514.353 51.9372 514.553 33.8372 497.353 26.7372C480.153 19.6372 466.353 28.5372 465.553 44.1372Z" fill="#B28D93"/>
<path d="M515.853 52.7372C514.553 59.0372 513.653 62.4373 513.653 62.4373L509.453 58.0373C509.453 58.0373 502.253 57.0373 501.253 44.1373C501.053 41.9373 499.853 39.9373 497.853 38.9373C491.953 35.8373 488.853 40.4373 477.353 39.6373C473.453 39.3373 467.453 38.7372 467.653 32.7372C468.153 17.1372 492.253 18.3373 503.653 25.4373C515.053 32.4373 517.153 46.5372 515.853 52.7372Z" fill="#172D39"/>
<path d="M504.653 58.9372C504.653 58.9372 507.253 53.0372 511.553 53.6372C516.153 54.2372 516.553 68.0372 504.653 68.8372" fill="#B28D93"/>
<path d="M471.853 51.2373C472.053 52.6373 472.053 54.0373 471.953 55.3373C471.853 56.7373 471.653 58.1373 471.153 59.4373C471.053 59.7373 470.853 60.1373 470.753 60.4373C470.653 60.7373 470.553 60.9373 470.453 61.2373C470.353 61.7373 470.353 62.1373 470.553 62.5373C470.953 63.4373 472.153 64.1373 473.453 64.6373C472.753 64.8373 472.053 64.8373 471.253 64.6373C470.553 64.4373 469.753 64.0373 469.253 63.3373C468.953 63.0373 468.753 62.5373 468.653 62.1373C468.553 61.6373 468.553 61.2373 468.653 60.8373C468.753 60.4373 468.953 59.9373 469.053 59.7373C469.153 59.4373 469.353 59.1373 469.453 58.9373C470.453 56.4373 470.953 53.8373 471.853 51.2373Z" fill="#172D39"/>
<path d="M477.453 72.8372C477.453 72.8372 478.153 71.3372 479.853 72.6372C481.553 73.9372 482.253 73.4372 483.153 72.3372C484.053 71.2372 484.453 73.3373 486.453 72.5373" stroke="#172D39" stroke-width="1.8" stroke-miterlimit="10" stroke-linecap="round" stroke-linejoin="round"/>
<path d="M486.053 48.7373C485.553 48.1373 485.453 45.9373 487.453 45.0373C489.453 44.1373 492.753 45.6373 494.653 47.6373C496.553 49.6373 495.553 50.6373 493.253 49.6373C490.853 48.7373 489.953 48.4373 487.953 49.1373C487.153 49.4373 486.353 49.2373 486.053 48.7373Z" fill="#172D39"/>
<path d="M471.853 47.7373C472.253 47.2373 472.553 45.3373 471.153 44.3373C469.753 43.3373 467.453 44.3373 466.253 45.9373C465.153 47.3373 465.653 48.1373 467.153 47.7373C468.653 47.2373 469.253 47.1373 470.553 47.9373C471.053 48.2373 471.553 48.0373 471.853 47.7373Z" fill="#172D39"/>
<path d="M511.853 59.1373C511.453 58.9373 511.053 58.7373 510.753 58.7373C510.453 58.7373 510.353 58.8373 510.253 59.0373C510.053 59.5373 509.853 60.1373 509.853 60.9373C509.753 61.6373 509.753 62.6373 509.153 63.6373C508.853 64.1373 508.353 64.4373 507.853 64.5373C507.653 64.6373 507.353 64.6373 507.153 64.6373C506.953 64.6373 506.653 64.5373 506.453 64.5373C507.253 64.0373 507.853 63.5373 507.853 63.0373C507.953 62.5373 507.953 61.7373 508.053 60.8373C508.153 59.9373 508.353 58.9373 509.253 58.1373C509.453 57.9373 509.853 57.7373 510.153 57.7373C510.553 57.7373 510.853 57.8373 511.053 57.9373C511.453 58.3373 511.753 58.7373 511.853 59.1373Z" fill="#172D39"/>
<path d="M469.253 56.4372C470.053 56.5372 470.853 55.9372 470.853 55.1372L470.953 54.2372C471.053 53.4372 470.453 52.6372 469.653 52.6372C468.853 52.5372 468.053 53.1372 468.053 53.9372L467.953 54.8372C467.753 55.5372 468.353 56.3372 469.253 56.4372Z" fill="#172D39"/>
<path d="M487.153 58.1373C487.953 58.2373 488.753 57.6373 488.753 56.8373L488.853 55.9373C488.953 55.1373 488.353 54.3373 487.553 54.3373C486.753 54.2373 485.953 54.8373 485.953 55.6373L485.853 56.5373C485.753 57.2373 486.353 58.0373 487.153 58.1373Z" fill="#172D39"/>
<path d="M538.753 97.2373C541.053 97.1373 543.253 98.1373 544.953 99.7373C546.953 101.637 551.153 105.637 559.353 113.337C572.553 125.837 574.353 128.237 574.353 128.237C574.353 128.237 585.953 137.337 587.153 148.637C588.353 159.937 580.753 175.137 560.953 162.437C541.153 149.737 531.553 141.237 527.553 132.637C523.953 124.937 526.053 97.5373 538.753 97.2373Z" fill="#599F75"/>
<path d="M568.453 139.137C568.453 139.137 572.953 128.737 583.353 118.837C593.753 108.937 606.053 96.7373 608.353 94.3373C610.653 91.8373 616.253 86.4373 623.853 92.3373C631.553 98.2373 627.053 108.537 627.053 108.537C627.053 108.537 613.753 129.937 602.753 148.137C591.753 166.337 580.553 172.337 566.353 165.437C552.053 158.437 568.453 139.137 568.453 139.137Z" fill="#599F75"/>
<path d="M608.353 95.8373C608.353 95.8373 614.053 88.1373 616.353 85.4373C618.653 82.7373 622.853 78.6373 628.353 80.2373C633.953 81.8373 636.753 78.4373 640.953 82.8373C645.153 87.2373 648.053 95.3373 650.753 98.3373C653.453 101.337 652.753 102.137 657.053 102.037C661.353 101.937 664.853 102.937 663.053 105.337C661.253 107.737 649.553 108.337 647.953 108.137C646.353 107.937 638.853 108.937 636.953 108.037C635.053 107.137 635.353 107.937 633.753 107.037C632.153 106.137 628.053 104.137 628.053 104.137C628.053 104.137 626.753 106.737 625.053 108.537C623.353 110.337 615.953 110.037 611.153 104.437C607.053 99.6373 608.353 95.8373 608.353 95.8373Z" fill="#B28D93"/>
<path d="M650.753 98.4373C653.453 101.437 652.753 102.237 657.053 102.137C661.353 102.037 664.853 103.037 663.053 105.437C661.253 107.837 649.553 108.437 647.953 108.237" stroke="#896068" stroke-width="1.8" stroke-miterlimit="10" stroke-linecap="round" stroke-linejoin="round"/>
<path d="M634.153 104.937C634.353 99.6373 636.053 95.4373 637.653 96.0373C639.353 96.6373 640.153 107.937 636.353 110.537C632.453 113.137 622.353 99.1373 620.353 98.2373" fill="#B28D93"/>
<path d="M635.853 109.637C635.853 109.637 637.953 113.737 641.053 111.737C644.153 109.837 647.253 100.537 647.853 98.5373C648.553 96.5373 644.653 95.7373 642.153 100.637C639.753 105.537 637.853 106.237 637.853 106.237" fill="#B28D93"/>
<path d="M641.853 110.037C641.853 110.037 643.253 112.637 646.353 111.837C649.453 111.037 653.453 104.837 655.353 102.837C657.253 100.837 654.853 98.2373 651.553 100.637C648.253 103.037 645.853 105.337 644.253 105.837" fill="#B28D93"/>
<path d="M639.553 81.7373C639.553 81.7373 641.953 82.9373 645.053 87.1373C648.253 91.3373 654.153 91.9373 654.853 94.1373C655.553 96.3373 649.253 97.2373 644.253 94.8373C639.353 92.3373 637.353 82.2373 639.553 81.7373Z" fill="#B28D93"/>
<path d="M602.053 100.637C602.053 100.637 600.553 107.437 606.753 112.937C614.353 119.737 622.353 115.937 622.353 115.937" stroke="#172D39" stroke-width="1.8" stroke-miterlimit="10" stroke-linecap="round" stroke-linejoin="round"/>
<path d="M566.253 165.337C566.253 165.337 563.953 161.937 571.553 160.237C579.153 158.537 592.053 157.637 590.753 162.837" stroke="#172D39" stroke-width="1.8" stroke-miterlimit="10" stroke-linecap="round" stroke-linejoin="round"/>
<path d="M634.153 104.937C634.353 99.6373 636.053 95.4373 637.653 96.0373C639.353 96.6373 640.153 107.937 636.353 110.537C632.453 113.137 622.353 99.1373 620.353 98.2373" stroke="#896068" stroke-width="1.8" stroke-miterlimit="10" stroke-linecap="round" stroke-linejoin="round"/>
<path d="M641.053 111.737C644.153 109.837 647.253 100.537 647.853 98.5373C648.553 96.5373 644.653 95.7373 642.153 100.637C640.753 103.537 639.453 104.937 638.753 105.637" stroke="#896068" stroke-width="1.8" stroke-miterlimit="10" stroke-linecap="round" stroke-linejoin="round"/>
<path d="M642.653 110.937C643.353 111.537 644.553 112.237 646.353 111.737C649.453 110.937 653.453 104.737 655.353 102.737C657.253 100.737 654.853 98.1374 651.553 100.537C648.953 102.337 646.953 104.237 645.453 105.137" stroke="#896068" stroke-width="1.8" stroke-miterlimit="10" stroke-linecap="round" stroke-linejoin="round"/>
<path d="M649.253 96.2373C649.253 96.2373 646.553 91.6373 645.553 90.3373" stroke="#896068" stroke-width="1.8" stroke-miterlimit="10" stroke-linecap="round" stroke-linejoin="round"/>
<path d="M574.853 128.537C574.853 128.537 569.253 135.037 568.053 142.837" stroke="#172D39" stroke-width="1.8" stroke-miterlimit="10" stroke-linecap="round" stroke-linejoin="round"/>
<path d="M454.2 14.2307C454.2 14.2307 447 14.5307 445.2 7.93066C443.4 1.33066 450.2 -1.66933 450.2 4.53067C450.2 10.7307 440.5 13.4307 436.5 8.23067C432.4 3.03067 437.2 -0.969331 438.5 2.03067C439.9 5.03067 436.7 11.3307 431 9.43066" stroke="#599F75" stroke-width="1.8" stroke-miterlimit="10" stroke-linecap="round" stroke-linejoin="round"/>
<path d="M540.2 24.5306C540.2 24.5306 552.5 23.8306 551.7 14.9306C550.9 6.03061 542.9 22.5306 553.6 22.3306C564.2 22.1306 563.7 12.0306 560.5 11.3306C557.3 10.6306 558.1 18.4306 564 17.9306C569.9 17.4306 570.8 13.8306 570.8 13.8306" stroke="#599F75" stroke-width="1.8" stroke-miterlimit="10" stroke-linecap="round" stroke-linejoin="round"/>
</svg>
