<?xml version="1.0" standalone="no"?>
<!DOCTYPE svg PUBLIC "-//W3C//DTD SVG 20010904//EN"
 "http://www.w3.org/TR/2001/REC-SVG-20010904/DTD/svg10.dtd">
<svg version="1.0" xmlns="http://www.w3.org/2000/svg"
 width="183.000000pt" height="183.000000pt" viewBox="0 0 183.000000 183.000000"
 preserveAspectRatio="xMidYMid meet">
<metadata>
Created by potrace 1.14, written by Peter Selinger 2001-2017
</metadata>
<g transform="translate(0.000000,183.000000) scale(0.100000,-0.100000)"
fill="#000000" stroke="none">
<path d="M1529 1693 c-25 -29 -94 -53 -185 -62 -220 -24 -241 -30 -339 -92
-93 -60 -163 -229 -122 -293 14 -20 26 -26 56 -26 47 0 66 19 86 87 32 109 95
144 295 168 195 22 199 23 230 45 15 11 32 20 37 20 26 0 133 134 133 167 0 2
-40 3 -89 3 -70 0 -91 -3 -102 -17z"/>
<path d="M469 1276 c-73 -35 -143 -93 -197 -165 -86 -113 -158 -290 -169 -413
-3 -38 -10 -68 -14 -68 -5 0 -9 -31 -9 -70 0 -40 4 -70 10 -70 6 0 10 -10 10
-22 0 -32 43 -121 81 -168 l32 -40 102 0 c119 0 109 -5 250 130 161 154 325
203 505 151 98 -28 136 -51 235 -143 157 -146 141 -138 291 -137 71 1 119 4
107 6 -22 4 -21 6 16 61 22 31 45 77 52 102 7 25 16 49 21 54 11 13 10 146 -1
146 -4 0 -11 31 -14 69 -16 163 -113 368 -231 487 -28 27 -77 63 -110 79 -102
50 -182 34 -286 -58 -94 -83 -134 -102 -216 -102 -77 1 -56 -11 -237 128 -44
34 -130 68 -166 66 -9 0 -37 -11 -62 -23z m916 -266 c41 -45 9 -120 -52 -120
-37 0 -76 45 -69 78 14 57 85 82 121 42z m-783 -57 l3 -68 63 -3 62 -3 0 -54
0 -55 -65 0 -65 0 0 -66 0 -65 -52 3 -53 3 -3 63 -3 62 -64 0 -65 0 0 55 0 54
63 3 62 3 3 68 3 67 54 0 54 0 3 -67z m639 -66 c24 -19 40 -54 32 -74 -25 -70
-116 -73 -138 -3 -11 36 31 89 70 89 11 0 27 -5 36 -12z m273 -8 c32 -25 34
-64 4 -96 -38 -41 -106 -22 -123 35 -5 17 1 30 24 52 35 35 59 38 95 9z m-125
-143 c41 -43 8 -106 -54 -106 -63 0 -96 80 -48 118 28 20 77 15 102 -12z"/>
</g>
</svg>
