<svg width="473" height="256" viewBox="0 0 473 256" fill="none" xmlns="http://www.w3.org/2000/svg">
<path d="M154.675 253.897L7.40667 197.83C3.29511 196.335 0.678711 192.224 0.678711 187.738L236.906 153.351C236.906 153.351 266.061 202.316 263.071 203.437C260.081 204.558 154.675 253.897 154.675 253.897Z" fill="#172D39"/>
<path d="M0.678711 188.112L158.413 243.431L248.867 199.699C248.867 199.699 229.057 155.219 226.814 155.593C224.572 155.967 0.678711 188.112 0.678711 188.112Z" fill="#63737A"/>
<path d="M151.686 244.553L203.267 25.5187C205.884 15.0529 215.228 7.20358 226.068 6.8298L462.669 0.475647C468.65 0.475647 473.509 6.08222 471.64 12.0627L423.422 180.263C421.18 188.486 414.452 194.84 405.855 197.083L162.899 255.392C155.797 256.887 149.817 251.281 151.686 244.553Z" fill="#172D39"/>
<path d="M352.658 118.043C356.151 106.16 352.881 94.7338 345.355 92.5216C337.829 90.3095 328.897 98.1493 325.404 110.032C321.911 121.915 325.181 133.342 332.707 135.554C340.232 137.766 349.165 129.926 352.658 118.043Z" fill="#63737A"/>
</svg>
