<svg width="523" height="430" viewBox="0 0 523 430" fill="none" xmlns="http://www.w3.org/2000/svg">
<path d="M439.777 369.286L41.5178 429.614C32.5629 431.028 24.5506 424.43 23.8436 415.475L0.0423204 56.8057C-0.664649 46.9081 7.58334 38.6602 17.4809 39.3671L416.447 64.818C423.988 65.2894 430.115 71.1807 430.822 78.7217L453.681 351.847C454.388 360.095 448.261 367.872 439.777 369.286Z" fill="#63737A"/>
<path d="M450.618 368.815L50.4732 429.378C41.5182 430.792 33.5059 424.194 32.799 415.239L8.76203 54.9205C8.05506 45.023 16.303 36.5393 26.4363 37.2463L427.052 62.6972C434.593 63.1685 440.72 69.0599 441.427 76.8365L464.521 351.14C465.464 359.86 459.337 367.636 450.618 368.815Z" fill="#172D39"/>
<path d="M189.746 245.331L77.1024 251.458C73.5676 251.693 70.504 248.866 70.2684 245.331L63.67 150.126C63.4343 146.355 66.4979 143.056 70.2684 143.056L182.912 143.763C186.447 143.763 189.275 146.355 189.51 149.89L196.109 238.261C196.345 242.032 193.517 245.095 189.746 245.331Z" fill="#599F75"/>
<path d="M310.873 208.569L216.61 211.868C213.075 212.103 210.012 209.276 209.776 205.741L205.77 150.833C205.534 147.062 208.598 143.763 212.368 143.763L306.631 144.47C309.93 144.47 312.758 147.062 313.229 150.597L317.235 201.499C317.471 205.269 314.643 208.569 310.873 208.569Z" fill="#45677C"/>
<path d="M417.626 205.034L338.209 207.862C334.675 208.097 331.611 205.269 331.375 201.734L327.369 152.011C327.134 148.24 330.197 144.941 333.968 144.941L413.384 145.413C416.683 145.413 419.511 148.005 419.982 151.54L423.753 197.964C424.224 201.499 421.396 204.798 417.626 205.034Z" fill="#B8D1E0"/>
<path d="M196.815 337.708L84.1712 349.962C80.4007 350.433 77.1015 347.606 76.8659 343.835L72.6241 282.329C72.3884 278.794 75.2162 275.495 78.7511 275.259L191.631 267.718C195.165 267.482 198.465 270.075 198.7 273.845L202.942 330.638C202.942 334.173 200.35 337.237 196.815 337.708Z" stroke="#63737A" stroke-width="1.8" stroke-miterlimit="10" stroke-linecap="round" stroke-linejoin="round"/>
<path d="M321.477 335.352L227.45 346.427C223.679 346.899 220.38 344.071 220.145 340.3L212.604 238.733C212.368 234.962 215.196 231.899 218.731 231.663L312.993 227.185C316.528 226.95 319.592 229.778 319.827 233.312L327.368 328.282C327.604 331.817 325.012 334.88 321.477 335.352Z" fill="#B8D1E0"/>
<path d="M301.918 244.859L234.284 248.866C232.635 248.866 231.456 250.279 231.692 251.929L234.756 293.876C234.991 295.525 236.17 296.704 237.819 296.468L305.453 290.577C307.102 290.341 308.28 289.163 308.045 287.513L304.981 247.452C304.746 246.038 303.332 244.859 301.918 244.859Z" fill="#599F75"/>
<path d="M427.051 312.021L347.635 320.741C343.864 321.212 340.565 318.384 340.33 314.614L333.967 232.841C333.731 229.07 336.559 226.007 340.094 225.771L419.51 222.001C423.045 221.765 426.108 224.593 426.344 228.128L432.707 304.952C433.178 308.487 430.586 311.55 427.051 312.021Z" fill="#45677C"/>
<path d="M139.315 298.825L140.729 316.263" stroke="#63737A" stroke-width="1.8" stroke-miterlimit="10" stroke-linecap="round" stroke-linejoin="round"/>
<path d="M131.774 308.251L148.27 306.837" stroke="#63737A" stroke-width="1.8" stroke-miterlimit="10" stroke-linecap="round" stroke-linejoin="round"/>
<path d="M252.195 318.148C251.724 313.435 248.189 309.665 243.947 310.136C239.705 310.607 236.406 314.849 236.877 319.798C237.349 324.747 241.119 328.282 245.361 327.81C249.367 327.103 252.431 322.862 252.195 318.148Z" fill="#172D39"/>
<path d="M265.862 316.734L309.93 312.257" stroke="#172D39" stroke-width="1.8" stroke-miterlimit="10" stroke-linecap="round" stroke-linejoin="round"/>
<path d="M363.896 247.923C363.425 243.445 360.362 240.146 356.591 240.146C352.821 240.382 350.228 244.152 350.464 248.63C350.935 253.107 353.999 256.642 357.769 256.407C361.776 256.171 364.368 252.4 363.896 247.923Z" fill="#599F75"/>
<path d="M375.915 247.216L413.855 244.859" stroke="#172D39" stroke-width="1.8" stroke-miterlimit="10" stroke-linecap="round" stroke-linejoin="round"/>
<path d="M366.017 273.138C365.546 268.661 362.482 265.362 358.712 265.597C354.941 265.833 352.349 269.839 352.585 274.317C353.056 278.794 356.355 282.329 359.89 281.858C363.661 281.386 366.488 277.616 366.017 273.138Z" fill="#599F75"/>
<path d="M377.799 272.196L415.976 269.132" stroke="#172D39" stroke-width="1.8" stroke-miterlimit="10" stroke-linecap="round" stroke-linejoin="round"/>
<path d="M368.138 298.353C367.666 293.876 364.603 290.577 360.832 290.812C357.062 291.048 354.47 295.054 354.705 299.532C355.177 304.009 358.476 307.308 362.011 307.073C365.781 306.601 368.373 302.831 368.138 298.353Z" fill="#599F75"/>
<path d="M379.921 297.175L417.862 293.404" stroke="#172D39" stroke-width="1.8" stroke-miterlimit="10" stroke-linecap="round" stroke-linejoin="round"/>
<path d="M103.025 181.232L87.7069 181.468C86.2929 181.468 85.1146 180.29 84.879 178.876L83.7007 162.851C83.7007 161.201 84.879 160.023 86.5286 160.023H101.846C103.26 160.023 104.438 161.201 104.674 162.615L105.852 178.404C105.617 179.818 104.438 181.232 103.025 181.232Z" fill="#45677C"/>
<path d="M119.521 160.023L172.544 159.787" stroke="#172D39" stroke-width="1.8" stroke-miterlimit="10" stroke-linecap="round" stroke-linejoin="round"/>
<path d="M120.463 173.691L173.486 173.22" stroke="#172D39" stroke-width="1.8" stroke-miterlimit="10" stroke-linecap="round" stroke-linejoin="round"/>
<path d="M357.297 177.462L345.279 177.697C344.572 177.697 343.865 176.991 343.629 176.284L342.451 160.966C342.451 160.023 343.158 159.316 344.1 159.316H356.119C356.826 159.316 357.533 160.023 357.768 160.73L358.947 175.812C358.947 176.519 358.24 177.462 357.297 177.462Z" fill="#172D39"/>
<path d="M368.609 159.081H407.964" stroke="#172D39" stroke-width="1.8" stroke-miterlimit="10" stroke-linecap="round" stroke-linejoin="round"/>
<path d="M369.787 171.099L408.906 170.628" stroke="#172D39" stroke-width="1.8" stroke-miterlimit="10" stroke-linecap="round" stroke-linejoin="round"/>
<path d="M344.807 190.658L410.32 189.009" stroke="#172D39" stroke-width="1.8" stroke-miterlimit="10" stroke-linecap="round" stroke-linejoin="round"/>
<path d="M105.617 217.759L90.2992 218.23C88.8852 218.23 87.4713 217.052 87.4713 215.638L86.293 199.614C86.293 197.964 87.4713 196.786 88.8852 196.786L104.203 196.314C105.617 196.314 106.795 197.493 107.031 198.907L108.209 214.696C108.209 216.345 107.031 217.759 105.617 217.759Z" fill="#45677C"/>
<path d="M122.113 196.079L175.136 194.665" stroke="#172D39" stroke-width="1.8" stroke-miterlimit="10" stroke-linecap="round" stroke-linejoin="round"/>
<path d="M123.056 209.982L176.078 208.333" stroke="#172D39" stroke-width="1.8" stroke-miterlimit="10" stroke-linecap="round" stroke-linejoin="round"/>
<path d="M144.264 103.701L64.8482 101.345C62.256 101.345 60.1351 99.2239 59.8994 96.6317L58.9568 84.1419C58.7212 81.0784 61.3134 78.4862 64.1413 78.7218L143.557 82.021C146.15 82.021 148.271 84.1419 148.506 86.7341L149.449 98.2813C149.684 101.109 147.328 103.701 144.264 103.701Z" fill="#599F75"/>
<path d="M224.623 159.552L299.561 159.316" stroke="#172D39" stroke-width="1.8" stroke-miterlimit="10" stroke-linecap="round" stroke-linejoin="round"/>
<path d="M225.565 172.749L300.504 171.806" stroke="#172D39" stroke-width="1.8" stroke-miterlimit="10" stroke-linecap="round" stroke-linejoin="round"/>
<path d="M226.979 193.486L267.276 192.544" stroke="#172D39" stroke-width="1.8" stroke-miterlimit="10" stroke-linecap="round" stroke-linejoin="round"/>
<path d="M415.269 102.523C415.033 98.9881 412.441 95.9246 409.377 95.6889C406.55 95.4532 404.193 98.5168 404.664 102.052C404.9 105.822 407.492 108.886 410.556 108.886C413.384 109.121 415.505 106.058 415.269 102.523Z" fill="#63737A"/>
<path d="M394.296 101.816C394.06 98.0456 391.232 94.9821 388.404 94.9821C385.341 94.7464 383.22 97.81 383.455 101.58C383.691 105.351 386.519 108.415 389.582 108.415C392.41 108.415 394.531 105.351 394.296 101.816Z" fill="#63737A"/>
<path d="M372.615 100.873C372.379 97.1029 369.551 94.0394 366.488 93.8038C363.424 93.5681 361.068 96.6316 361.303 100.402C361.539 104.173 364.367 107.236 367.43 107.472C370.73 107.707 372.85 104.644 372.615 100.873Z" fill="#63737A"/>
<path d="M510.945 133.394L406.313 131.509C402.071 131.509 398.537 128.21 398.301 123.968L388.875 8.73213C388.639 4.72597 391.938 1.66245 395.709 1.89811L500.811 12.9739C504.818 13.4453 507.881 16.5088 508.117 20.5149L517.307 126.325C517.543 130.331 514.715 133.394 510.945 133.394Z" fill="#B8D8C7"/>
<path d="M516.6 131.509L411.969 129.624C407.727 129.624 404.192 126.325 403.957 122.083L394.53 6.84675C394.295 2.84059 397.594 -0.222922 401.365 0.012734L506.467 11.0886C510.473 11.5599 513.537 14.6234 513.773 18.6296L522.963 124.439C523.199 128.445 520.135 131.509 516.6 131.509Z" fill="#45677C"/>
<path d="M440.248 21.4573L495.627 26.6417" stroke="#63737A" stroke-width="1.8" stroke-miterlimit="10" stroke-linecap="round" stroke-linejoin="round"/>
<path d="M441.19 32.7689L496.57 37.482" stroke="#63737A" stroke-width="1.8" stroke-miterlimit="10" stroke-linecap="round" stroke-linejoin="round"/>
<path d="M443.311 58.6912L498.926 62.4617" stroke="#63737A" stroke-width="1.8" stroke-miterlimit="10" stroke-linecap="round" stroke-linejoin="round"/>
<path d="M444.253 69.7668L499.633 73.0661" stroke="#63737A" stroke-width="1.8" stroke-miterlimit="10" stroke-linecap="round" stroke-linejoin="round"/>
<path d="M446.611 95.9247L501.991 98.2812" stroke="#63737A" stroke-width="1.8" stroke-miterlimit="10" stroke-linecap="round" stroke-linejoin="round"/>
<path d="M447.554 107L502.933 108.886" stroke="#63737A" stroke-width="1.8" stroke-miterlimit="10" stroke-linecap="round" stroke-linejoin="round"/>
<path d="M421.16 27.8201L423.988 31.3549L427.994 25.9348" stroke="#599F75" stroke-width="1.8" stroke-miterlimit="10" stroke-linecap="round" stroke-linejoin="round"/>
<path d="M424.223 65.5252L427.051 68.8244L431.292 63.4043" stroke="#599F75" stroke-width="1.8" stroke-miterlimit="10" stroke-linecap="round" stroke-linejoin="round"/>
<path d="M427.287 102.523L430.351 105.822L434.357 100.167" stroke="#599F75" stroke-width="1.8" stroke-miterlimit="10" stroke-linecap="round" stroke-linejoin="round"/>
</svg>
