<svg width="270" height="235" viewBox="0 0 270 235" fill="none" xmlns="http://www.w3.org/2000/svg">
<path d="M222.296 217.233L268.753 12.8539C269.731 8.31811 266.459 4.02171 261.606 3.9487L57.4842 0.877525C51.7215 0.79082 46.5015 4.95943 45.5049 10.7085L8.41823 217.352C7.74317 221.893 11.0201 225.886 15.5697 225.954L210.326 226.458C216.392 226.549 221.001 222.674 222.296 217.233Z" fill="#B8D8C7"/>
<path d="M214.872 221.864L261.329 17.485C262.307 12.9492 259.035 8.65275 254.182 8.57974L50.0599 5.50857C44.2971 5.42186 39.0771 9.59052 38.0805 15.3396L0.993901 221.983C0.318846 226.524 3.59582 230.517 8.14535 230.585L202.902 231.089C208.664 231.175 213.576 227.306 214.872 221.864Z" fill="#599F75"/>
<path d="M191.763 205.127L230.43 34.6082L61.7944 32.0709L30.9862 204.528L191.763 205.127Z" stroke="#172D39" stroke-width="1.8" stroke-miterlimit="10" stroke-linecap="round" stroke-linejoin="round"/>
<path d="M180.688 34.3228L141.709 205.444" stroke="#172D39" stroke-width="1.8" stroke-miterlimit="10" stroke-linecap="round" stroke-linejoin="round"/>
<path d="M221.331 77.9572L55.7279 75.4656" stroke="#172D39" stroke-width="1.8" stroke-miterlimit="10" stroke-linecap="round" stroke-linejoin="round"/>
<path d="M211.272 119.544L47.1863 117.075" stroke="#172D39" stroke-width="1.8" stroke-miterlimit="10" stroke-linecap="round" stroke-linejoin="round"/>
<path d="M199.966 161.705L37.9708 161.391" stroke="#172D39" stroke-width="1.8" stroke-miterlimit="10" stroke-linecap="round" stroke-linejoin="round"/>
<path d="M152.247 54.4817L87.6438 53.5097" stroke="#172D39" stroke-width="1.8" stroke-miterlimit="10" stroke-linecap="round" stroke-linejoin="round"/>
<path d="M142.456 97.2791L77.8528 96.3071" stroke="#172D39" stroke-width="1.8" stroke-miterlimit="10" stroke-linecap="round" stroke-linejoin="round"/>
<path d="M131.472 139.13L66.8547 139.068" stroke="#172D39" stroke-width="1.8" stroke-miterlimit="10" stroke-linecap="round" stroke-linejoin="round"/>
<path d="M121.114 180.411L58.9146 180.992" stroke="#172D39" stroke-width="1.8" stroke-miterlimit="10" stroke-linecap="round" stroke-linejoin="round"/>
<path d="M211.622 44.1637L184.928 64.4872" stroke="#45677C" stroke-width="1.8" stroke-miterlimit="10" stroke-linecap="round" stroke-linejoin="round"/>
<path d="M192.208 44.1637L205.858 64.4872" stroke="#45677C" stroke-width="1.8" stroke-miterlimit="10" stroke-linecap="round" stroke-linejoin="round"/>
<path d="M194.635 129.704L167.941 149.725" stroke="#45677C" stroke-width="1.8" stroke-miterlimit="10" stroke-linecap="round" stroke-linejoin="round"/>
<path d="M175.222 129.704L189.175 149.725" stroke="#45677C" stroke-width="1.8" stroke-miterlimit="10" stroke-linecap="round" stroke-linejoin="round"/>
<path d="M184.927 171.868L158.233 192.192" stroke="#45677C" stroke-width="1.8" stroke-miterlimit="10" stroke-linecap="round" stroke-linejoin="round"/>
<path d="M165.513 171.868L179.164 192.192" stroke="#45677C" stroke-width="1.8" stroke-miterlimit="10" stroke-linecap="round" stroke-linejoin="round"/>
<path d="M179.514 93.1233L186.75 104.027L202.668 89.6988" stroke="#B8D8C7" stroke-width="1.8" stroke-miterlimit="10" stroke-linecap="round" stroke-linejoin="round"/>
</svg>
