<svg width="717" height="499" viewBox="0 0 717 499" fill="none" xmlns="http://www.w3.org/2000/svg">
<g opacity="0.9">
<path d="M632.842 403.205L112.842 388.305C88.6425 387.605 68.7425 369.105 66.3425 345.005L41.2425 97.0046C38.4425 68.9046 60.2425 44.4046 88.4425 44.0046L667.242 36.0046C696.442 35.6046 719.342 61.1046 715.742 90.1046L682.042 361.005C678.942 385.705 657.642 403.905 632.842 403.205Z" fill="#EAEAEA"/>
<mask id="mask0_301_4104" style="mask-type:alpha" maskUnits="userSpaceOnUse" x="41" y="36" width="676" height="368">
<path d="M632.842 403.205L112.842 388.305C88.6425 387.605 68.7425 369.105 66.3425 345.005L41.2425 97.0046C38.4425 68.9046 60.2425 44.4046 88.4425 44.0046L667.242 36.0046C696.442 35.6046 719.342 61.1046 715.742 90.1046L682.042 361.005C678.942 385.705 657.642 403.905 632.842 403.205Z" fill="#EAF9F3"/>
</mask>
<g mask="url(#mask0_301_4104)">
<path d="M208.442 448.205H-207.058C-215.358 448.205 -222.058 441.505 -222.058 433.205V197.605C-222.058 189.305 -215.358 182.605 -207.058 182.605H208.442C216.742 182.605 223.442 189.305 223.442 197.605V433.205C223.442 441.505 216.742 448.205 208.442 448.205Z" stroke="#B8D8C7" stroke-width="1.8" stroke-miterlimit="10" stroke-linecap="round" stroke-linejoin="round"/>
<path d="M757.542 432.405H338.442C330.142 432.405 323.442 425.705 323.442 417.405V73.1046C323.442 64.8046 330.142 58.1046 338.442 58.1046H757.542C765.842 58.1046 772.542 64.8046 772.542 73.1046V417.405C772.542 425.705 765.842 432.405 757.542 432.405Z" stroke="#B8D8C7" stroke-width="1.8" stroke-miterlimit="10" stroke-linecap="round" stroke-linejoin="round"/>
<path d="M108.842 112.205H18.9424V103.305H108.842C109.842 103.305 110.642 104.105 110.642 105.105V110.305C110.642 111.405 109.842 112.205 108.842 112.205Z" stroke="#B8D8C7" stroke-width="1.8" stroke-miterlimit="10" stroke-linecap="round" stroke-linejoin="round"/>
<path d="M92.5423 103.305H72.2423C70.0423 103.305 68.2423 101.705 67.9423 99.5046L66.3423 85.1046C66.0423 82.6046 68.0423 80.3046 70.6423 80.3046H94.1423C96.7423 80.3046 98.6423 82.5046 98.4423 85.1046L96.8423 99.5046C96.5423 101.705 94.7423 103.305 92.5423 103.305Z" stroke="#B8D8C7" stroke-width="1.8" stroke-miterlimit="10" stroke-linecap="round" stroke-linejoin="round"/>
<path d="M79.9423 80.4046C79.9423 80.4046 71.9423 79.6046 70.3423 68.8046C70.3423 68.8046 77.5423 70.9046 79.8423 76.0046C79.8423 76.0046 80.8423 64.6046 86.2423 63.5046C86.2423 63.5046 88.6423 72.0046 84.8423 76.2046C84.8423 76.2046 87.7423 71.4046 95.1423 71.5046C95.1423 71.5046 93.2423 78.3046 85.9423 80.3046" fill="#B8D8C7"/>
<path d="M628.242 163.005H607.942C605.742 163.005 603.942 161.405 603.642 159.205L602.042 144.805C601.742 142.305 603.742 140.005 606.342 140.005H629.842C632.442 140.005 634.342 142.205 634.142 144.805L632.542 159.205C632.242 161.305 630.442 163.005 628.242 163.005Z" stroke="#B8D8C7" stroke-width="1.8" stroke-miterlimit="10" stroke-linecap="round" stroke-linejoin="round"/>
<path d="M615.742 140.005C615.742 140.005 607.742 139.205 606.142 128.405C606.142 128.405 613.342 130.505 615.642 135.605C615.642 135.605 616.642 124.205 622.042 123.105C622.042 123.105 624.442 131.605 620.642 135.805C620.642 135.805 623.542 131.005 630.942 131.105C630.942 131.105 629.042 137.905 621.742 139.905" fill="#B8D8C7"/>
<path d="M205.242 232.305H115.042C112.742 232.305 110.842 230.405 110.842 228.105V200.705C110.842 198.405 112.742 196.505 115.042 196.505H205.242C207.542 196.505 209.442 198.405 209.442 200.705V228.105C209.542 230.405 207.642 232.305 205.242 232.305Z" stroke="#B8D8C7" stroke-width="1.8" stroke-miterlimit="10" stroke-linecap="round" stroke-linejoin="round"/>
<path d="M170.542 206.205H149.742C148.942 206.205 148.242 205.505 148.242 204.705C148.242 203.905 148.942 203.205 149.742 203.205H170.542C171.342 203.205 172.042 203.905 172.042 204.705C172.042 205.505 171.342 206.205 170.542 206.205Z" fill="#B8D8C7"/>
<path d="M205.242 278.105H115.042C112.742 278.105 110.842 276.205 110.842 273.905V246.505C110.842 244.205 112.742 242.305 115.042 242.305H205.242C207.542 242.305 209.442 244.205 209.442 246.505V273.905C209.542 276.205 207.642 278.105 205.242 278.105Z" stroke="#B8D8C7" stroke-width="1.8" stroke-miterlimit="10" stroke-linecap="round" stroke-linejoin="round"/>
<path d="M170.542 252.005H149.742C148.942 252.005 148.242 251.305 148.242 250.505C148.242 249.705 148.942 249.005 149.742 249.005H170.542C171.342 249.005 172.042 249.705 172.042 250.505C172.042 251.305 171.342 252.005 170.542 252.005Z" fill="#B8D8C7"/>
<path d="M668.443 310.505H578.242C575.942 310.505 574.042 308.605 574.042 306.305V278.905C574.042 276.605 575.942 274.705 578.242 274.705H668.443C670.743 274.705 672.642 276.605 672.642 278.905V306.305C672.742 308.605 670.843 310.505 668.443 310.505Z" stroke="#B8D8C7" stroke-width="1.8" stroke-miterlimit="10" stroke-linecap="round" stroke-linejoin="round"/>
<path d="M633.742 284.305H612.942C612.142 284.305 611.442 283.605 611.442 282.805C611.442 282.005 612.142 281.305 612.942 281.305H633.742C634.542 281.305 635.242 282.005 635.242 282.805C635.242 283.705 634.542 284.305 633.742 284.305Z" fill="#B8D8C7"/>
<path d="M552.642 310.505H462.442C460.142 310.505 458.242 308.605 458.242 306.305V278.905C458.242 276.605 460.142 274.705 462.442 274.705H552.642C554.942 274.705 556.842 276.605 556.842 278.905V306.305C556.842 308.605 554.942 310.505 552.642 310.505Z" stroke="#B8D8C7" stroke-width="1.8" stroke-miterlimit="10" stroke-linecap="round" stroke-linejoin="round"/>
<path d="M517.942 284.305H497.142C496.342 284.305 495.642 283.605 495.642 282.805C495.642 282.005 496.342 281.305 497.142 281.305H517.942C518.742 281.305 519.442 282.005 519.442 282.805C519.442 283.705 518.742 284.305 517.942 284.305Z" fill="#B8D8C7"/>
<path d="M436.042 310.505H345.842C343.542 310.505 341.642 308.605 341.642 306.305V278.905C341.642 276.605 343.542 274.705 345.842 274.705H436.042C438.342 274.705 440.242 276.605 440.242 278.905V306.305C440.342 308.605 438.442 310.505 436.042 310.505Z" stroke="#B8D8C7" stroke-width="1.8" stroke-miterlimit="10" stroke-linecap="round" stroke-linejoin="round"/>
<path d="M401.342 284.305H380.542C379.742 284.305 379.042 283.605 379.042 282.805C379.042 282.005 379.742 281.305 380.542 281.305H401.342C402.142 281.305 402.842 282.005 402.842 282.805C402.842 283.705 402.142 284.305 401.342 284.305Z" fill="#B8D8C7"/>
<path d="M90.2423 232.305H0.0422821C-2.25772 232.305 -4.15771 230.405 -4.15771 228.105V200.705C-4.15771 198.405 -2.25772 196.505 0.0422821 196.505H90.2423C92.5423 196.505 94.4423 198.405 94.4423 200.705V228.105C94.5423 230.405 92.6423 232.305 90.2423 232.305Z" stroke="#B8D8C7" stroke-width="1.8" stroke-miterlimit="10" stroke-linecap="round" stroke-linejoin="round"/>
<path d="M55.5422 206.205H34.7422C33.9422 206.205 33.2422 205.505 33.2422 204.705C33.2422 203.905 33.9422 203.205 34.7422 203.205H55.5422C56.3422 203.205 57.0422 203.905 57.0422 204.705C57.0422 205.505 56.4422 206.205 55.5422 206.205Z" fill="#B8D8C7"/>
<path d="M90.2423 278.105H0.0422821C-2.25772 278.105 -4.15771 276.205 -4.15771 273.905V246.505C-4.15771 244.205 -2.25772 242.305 0.0422821 242.305H90.2423C92.5423 242.305 94.4423 244.205 94.4423 246.505V273.905C94.5423 276.205 92.6423 278.105 90.2423 278.105Z" stroke="#B8D8C7" stroke-width="1.8" stroke-miterlimit="10" stroke-linecap="round" stroke-linejoin="round"/>
<path d="M55.5422 252.005H34.7422C33.9422 252.005 33.2422 251.305 33.2422 250.505C33.2422 249.705 33.9422 249.005 34.7422 249.005H55.5422C56.3422 249.005 57.0422 249.705 57.0422 250.505C57.0422 251.305 56.4422 252.005 55.5422 252.005Z" fill="#B8D8C7"/>
<path d="M799.742 163.005H344.742C342.242 163.005 340.142 160.905 340.142 158.405V78.7046C340.142 76.2046 342.242 74.1046 344.742 74.1046H799.742C802.242 74.1046 804.342 76.2046 804.342 78.7046V158.405C804.342 160.905 802.342 163.005 799.742 163.005Z" stroke="#B8D8C7" stroke-width="1.8" stroke-miterlimit="10" stroke-linecap="round" stroke-linejoin="round"/>
<path d="M799.742 261.905H344.742C342.242 261.905 340.142 259.805 340.142 257.305V177.605C340.142 175.105 342.242 173.005 344.742 173.005H799.742C802.242 173.005 804.342 175.105 804.342 177.605V257.305C804.342 259.805 802.342 261.905 799.742 261.905Z" stroke="#B8D8C7" stroke-width="1.8" stroke-miterlimit="10" stroke-linecap="round" stroke-linejoin="round"/>
<path d="M380.742 112.605H370.842V162.905H380.742V112.605Z" stroke="#B8D8C7" stroke-width="1.8" stroke-miterlimit="10" stroke-linecap="round" stroke-linejoin="round"/>
<path d="M390.942 126.405H380.642V163.005H390.942V126.405Z" stroke="#B8D8C7" stroke-width="1.8" stroke-miterlimit="10" stroke-linecap="round" stroke-linejoin="round"/>
<path d="M679.042 211.505H669.142V261.805H679.042V211.505Z" stroke="#B8D8C7" stroke-width="1.8" stroke-miterlimit="10" stroke-linecap="round" stroke-linejoin="round"/>
<path d="M689.342 225.205H679.042V261.805H689.342V225.205Z" stroke="#B8D8C7" stroke-width="1.8" stroke-miterlimit="10" stroke-linecap="round" stroke-linejoin="round"/>
<path d="M658.943 211.505H649.042V261.805H658.943V211.505Z" stroke="#B8D8C7" stroke-width="1.8" stroke-miterlimit="10" stroke-linecap="round" stroke-linejoin="round"/>
<path d="M649.199 213.281L639.758 210.3L624.613 258.266L634.053 261.247L649.199 213.281Z" stroke="#B8D8C7" stroke-width="1.8" stroke-miterlimit="10" stroke-linecap="round" stroke-linejoin="round"/>
<path d="M669.242 225.205H658.942V261.805H669.242V225.205Z" stroke="#B8D8C7" stroke-width="1.8" stroke-miterlimit="10" stroke-linecap="round" stroke-linejoin="round"/>
<path d="M545.542 112.605H535.642V162.905H545.542V112.605Z" stroke="#B8D8C7" stroke-width="1.8" stroke-miterlimit="10" stroke-linecap="round" stroke-linejoin="round"/>
<path d="M555.842 126.405H545.542V163.005H555.842V126.405Z" stroke="#B8D8C7" stroke-width="1.8" stroke-miterlimit="10" stroke-linecap="round" stroke-linejoin="round"/>
<path d="M447.742 112.605H437.842V162.905H447.742V112.605Z" stroke="#B8D8C7" stroke-width="1.8" stroke-miterlimit="10" stroke-linecap="round" stroke-linejoin="round"/>
<path d="M437.995 114.465L428.554 111.484L413.409 159.45L422.849 162.431L437.995 114.465Z" stroke="#B8D8C7" stroke-width="1.8" stroke-miterlimit="10" stroke-linecap="round" stroke-linejoin="round"/>
<path d="M458.042 126.405H447.742V163.005H458.042V126.405Z" stroke="#B8D8C7" stroke-width="1.8" stroke-miterlimit="10" stroke-linecap="round" stroke-linejoin="round"/>
<path d="M678.942 119.205L680.042 104.305C680.142 103.305 679.342 102.505 678.342 102.505H674.042H669.742C668.742 102.505 668.042 103.305 668.042 104.305L669.142 119.205C669.142 119.205 660.142 125.005 660.242 129.805C660.342 133.505 662.542 151.205 663.542 159.005C663.842 161.205 665.642 162.805 667.842 162.805H674.042H680.242C682.442 162.805 684.242 161.205 684.542 159.005C685.542 151.205 687.742 133.505 687.842 129.805C687.942 125.005 678.942 119.205 678.942 119.205Z" fill="#B8D8C7"/>
<path d="M578.742 218.305L579.842 203.405C579.942 202.405 579.142 201.605 578.142 201.605H573.842H569.542C568.542 201.605 567.842 202.405 567.842 203.405L568.942 218.305C568.942 218.305 559.942 224.105 560.042 228.905C560.142 232.605 562.342 250.305 563.342 258.105C563.642 260.305 565.442 261.905 567.642 261.905H573.842H580.042C582.242 261.905 584.042 260.305 584.342 258.105C585.342 250.305 587.542 232.605 587.642 228.905C587.742 224.105 578.742 218.305 578.742 218.305Z" fill="#B8D8C7"/>
<path d="M39.7424 366.305H995.542" stroke="#B8D8C7" stroke-width="1.8" stroke-miterlimit="10" stroke-linecap="round" stroke-linejoin="round"/>
<path d="M147.842 182.605H72.3424C69.0424 182.605 66.2424 179.905 66.2424 176.505V160.705C66.2424 157.405 68.9424 154.605 72.3424 154.605H147.842C151.142 154.605 153.942 157.305 153.942 160.705V176.505C153.942 179.905 151.242 182.605 147.842 182.605Z" stroke="#B8D8C7" stroke-width="1.8" stroke-miterlimit="10" stroke-linecap="round" stroke-linejoin="round"/>
<path d="M73.7424 159.205H74.6424" stroke="#B8D8C7" stroke-width="1.8" stroke-miterlimit="10" stroke-linecap="round" stroke-linejoin="round"/>
<path d="M139.742 175.005H80.5425C80.5425 172.205 82.7425 170.005 85.5425 170.005H134.642C137.442 170.005 139.742 172.205 139.742 175.005Z" stroke="#B8D8C7" stroke-width="1.8" stroke-miterlimit="10" stroke-linecap="round" stroke-linejoin="round"/>
<path d="M131.442 133.205H88.8423V154.705H131.442V133.205Z" stroke="#B8D8C7" stroke-width="1.8" stroke-miterlimit="10" stroke-linecap="round" stroke-linejoin="round"/>
</g>
<path d="M116.772 194.87L155.572 192.47C158.272 192.27 160.272 189.97 160.072 187.27L154.172 107.67C153.972 104.97 151.772 102.77 148.972 102.57L109.272 100.17C106.372 99.9705 103.972 102.47 104.172 105.37L110.772 189.77C111.172 192.87 113.772 195.07 116.772 194.87Z" fill="#172D39"/>
<path d="M119.472 194.87L158.272 192.47C160.972 192.27 162.972 189.97 162.772 187.27L156.872 107.67C156.672 104.97 154.472 102.77 151.672 102.57L111.972 100.17C109.072 99.9705 106.672 102.47 106.872 105.37L113.472 189.77C113.872 192.87 116.472 195.07 119.472 194.87Z" fill="#172D39"/>
<path d="M130.499 109.4L137.899 109.8C138.499 109.8 138.899 109.4 138.899 108.8C138.899 108.2 138.399 107.7 137.799 107.7L130.399 107.3C129.799 107.3 129.399 107.7 129.399 108.3C129.399 108.9 129.899 109.4 130.499 109.4Z" fill="#63737A"/>
<path d="M126.199 109.2H126.399C126.999 109.2 127.399 108.8 127.399 108.2C127.399 107.6 126.799 107.1 126.199 107H125.999C125.399 107 124.999 107.4 124.999 108C125.099 108.6 125.599 109.2 126.199 109.2Z" fill="#63737A"/>
<path d="M116.007 123L125.907 123.3C126.907 123.3 127.708 122.5 127.608 121.4C127.508 120.3 126.608 119.5 125.608 119.4L115.707 119C114.707 119 113.907 119.8 114.007 120.9C114.007 122 114.907 122.9 116.007 123Z" fill="#63737A"/>
<path d="M118.607 157.4L128.407 157.3C129.407 157.3 130.107 156.4 130.107 155.4C130.007 154.4 129.107 153.5 128.107 153.5L118.307 153.6C117.307 153.6 116.507 154.5 116.607 155.5C116.707 156.6 117.607 157.4 118.607 157.4Z" fill="#63737A"/>
<path d="M120.708 185.2L130.508 184.7C131.508 184.7 132.208 183.8 132.208 182.7C132.108 181.7 131.308 180.8 130.308 180.9L120.508 181.3C119.508 181.3 118.708 182.2 118.808 183.3C118.808 184.4 119.708 185.2 120.708 185.2Z" fill="#63737A"/>
<path d="M118.006 144.6L147.206 144.7C148.406 144.7 149.406 143.7 149.306 142.4L148.406 129.7C148.306 128.6 147.406 127.8 146.406 127.8L117.106 127C115.906 127 114.906 128 115.006 129.3L116.006 142.6C116.006 143.7 116.906 144.6 118.006 144.6Z" fill="#B8D8C7"/>
<path d="M138.899 174.208L148.899 173.808C150.099 173.808 150.999 172.708 150.899 171.508L150.299 163.908C150.199 162.808 149.299 161.908 148.199 162.008L138.099 162.208C136.899 162.208 135.999 163.308 135.999 164.508L136.599 172.308C136.799 173.408 137.699 174.208 138.899 174.208Z" fill="#45677C"/>
<path d="M119.899 174.808L130.599 174.408C131.799 174.408 132.699 173.308 132.599 172.108L131.999 164.208C131.899 163.108 130.999 162.208 129.899 162.308L119.099 162.508C117.899 162.508 116.999 163.608 116.999 164.808L117.599 172.908C117.799 174.008 118.799 174.908 119.899 174.808Z" fill="#B8D1E0"/>
<path d="M363.729 68.2489L396.229 69.7489C398.829 69.8489 400.629 67.7489 400.329 65.0489L394.929 11.0489C394.629 8.24889 392.329 5.74889 389.729 5.44889L356.629 1.14888C353.729 0.748883 351.729 2.84889 352.029 5.74889L358.129 62.8489C358.329 65.6489 360.929 68.0489 363.729 68.2489Z" fill="#172D39"/>
<path d="M366.129 67.1489L398.629 68.6489C401.229 68.7489 403.029 66.6489 402.729 63.9489L397.329 9.9489C397.029 7.1489 394.729 4.6489 392.129 4.3489L359.029 0.0489082C356.129 -0.351092 354.129 1.7489 354.429 4.6489L360.529 61.7489C360.829 64.6489 363.329 67.0489 366.129 67.1489Z" fill="#172D39"/>
<path d="M364.629 18.2489L389.929 20.9489C390.729 21.0489 391.429 20.3489 391.329 19.5489L390.729 13.3489C390.629 12.7489 390.229 12.2489 389.629 12.2489L364.229 9.2489C363.429 9.1489 362.729 9.8489 362.829 10.6489L363.529 17.1489C363.529 17.7489 364.029 18.2489 364.629 18.2489Z" fill="#B8D1E0"/>
<path d="M388.129 35.4489L391.429 35.7489C392.229 35.8489 392.929 35.1489 392.829 34.3489L392.429 30.7489C392.329 30.1489 391.929 29.6489 391.329 29.6489L388.029 29.3489C387.229 29.2489 386.529 29.9489 386.629 30.7489L387.029 34.3489C387.029 34.9489 387.529 35.3489 388.129 35.4489Z" fill="#B8D8C7"/>
<path d="M366.229 33.5489L369.829 33.8489C370.629 33.9489 371.329 33.2489 371.229 32.4489L370.829 28.6489C370.729 28.0489 370.329 27.5489 369.729 27.5489L366.129 27.1489C365.329 27.0489 364.629 27.7489 364.729 28.5489L365.129 32.3489C365.129 32.9489 365.629 33.4489 366.229 33.5489Z" fill="#B8D8C7"/>
<path d="M377.329 34.4489L380.729 34.7489C381.529 34.8489 382.229 34.1489 382.129 33.3489L381.729 29.6489C381.629 29.0489 381.229 28.5489 380.629 28.5489L377.229 28.2489C376.429 28.1489 375.729 28.8489 375.829 29.6489L376.229 33.3489C376.229 33.9489 376.729 34.4489 377.329 34.4489Z" fill="#B8D8C7"/>
<path d="M389.429 47.7489L392.729 47.9489C393.529 48.0489 394.129 47.3489 394.129 46.5489L393.729 42.9489C393.629 42.3489 393.129 41.8489 392.529 41.8489L389.229 41.5489C388.429 41.4489 387.729 42.1489 387.829 42.9489L388.229 46.5489C388.329 47.2489 388.829 47.7489 389.429 47.7489Z" fill="#B8D8C7"/>
<path d="M367.529 46.2489L371.129 46.5489C371.929 46.6489 372.529 45.9489 372.529 45.1489L372.129 41.4489C372.029 40.8489 371.529 40.3489 370.929 40.3489L367.329 40.0489C366.529 39.9489 365.829 40.6489 365.929 41.4489L366.329 45.2489C366.429 45.6489 366.929 46.1489 367.529 46.2489Z" fill="#B8D8C7"/>
<path d="M378.629 47.0489L382.029 47.2489C382.829 47.3489 383.429 46.6489 383.429 45.8489L383.029 42.1489C382.929 41.5489 382.429 41.0489 381.829 41.0489L378.429 40.7489C377.629 40.6489 376.929 41.3489 377.029 42.1489L377.429 45.8489C377.529 46.4489 378.029 46.9489 378.629 47.0489Z" fill="#B8D8C7"/>
<path d="M390.729 60.0489L393.929 60.2489C394.729 60.2489 395.329 59.6489 395.229 58.8489L394.829 55.2489C394.729 54.6489 394.229 54.1489 393.629 54.1489L390.429 53.9489C389.629 53.8489 389.029 54.5489 389.129 55.3489L389.529 58.9489C389.529 59.5489 390.129 60.0489 390.729 60.0489Z" fill="#B8D8C7"/>
<path d="M368.929 58.8489L372.529 59.0489C373.329 59.0489 373.929 58.4489 373.829 57.6489L373.429 53.9489C373.329 53.3489 372.829 52.8489 372.229 52.8489L368.629 52.6489C367.829 52.5489 367.229 53.2489 367.329 54.0489L367.729 57.8489C367.829 58.3489 368.329 58.8489 368.929 58.8489Z" fill="#45677C"/>
<path d="M379.929 59.4489L383.329 59.6489C384.129 59.6489 384.729 59.0489 384.629 58.2489L384.229 54.6489C384.129 54.0489 383.629 53.5489 383.029 53.5489L379.629 53.3489C378.829 53.2489 378.229 53.9489 378.329 54.7489L378.729 58.4489C378.829 58.9489 379.329 59.4489 379.929 59.4489Z" fill="#45677C"/>
<path d="M330.872 71.1705L174.272 54.9705C171.372 54.6705 168.972 57.0705 169.172 59.9705L182.572 212.37C182.872 216.17 186.172 218.97 189.872 218.77L341.972 210.57C344.572 210.47 346.472 208.17 346.372 205.67L337.172 77.7705C336.872 74.2705 334.272 71.5705 330.872 71.1705Z" fill="#B8D1E0"/>
<path d="M336.572 69.4705L178.172 53.0705C175.272 52.7705 172.772 55.1705 173.072 58.1705L186.572 212.27C186.872 216.07 190.172 218.97 193.972 218.67L347.872 210.37C350.472 210.27 352.472 207.97 352.272 205.37L342.972 75.9705C342.572 72.5705 339.972 69.8705 336.572 69.4705Z" fill="#45677C"/>
<path d="M251.699 102.2L258.899 102.6L259.799 116L252.699 115.8L251.699 102.2Z" fill="#599F75"/>
<path d="M259.799 116L260.299 122.6L253.199 122.4L252.699 115.8L259.799 116Z" fill="#B8D8C7"/>
<path d="M236.199 84L243.399 84.5L244.599 101.8L237.499 101.5L236.199 84Z" fill="#599F75"/>
<path d="M244.599 101.8L246.099 122.2L238.999 122L237.499 101.5L244.599 101.8Z" fill="#B8D8C7"/>
<path d="M229.599 90.3L230.399 101.1L223.299 100.7L222.499 89.8L229.599 90.3Z" fill="#599F75"/>
<path d="M230.399 101.1L231.899 121.9L224.799 121.7L223.299 100.7L230.399 101.1Z" fill="#B8D8C7"/>
<path d="M209.099 99.9L216.199 100.3L216.699 107.9L209.599 107.5L209.099 99.9Z" fill="#599F75"/>
<path d="M216.699 107.9L217.699 121.5L210.599 121.3L209.599 107.5L216.699 107.9Z" fill="#B8D8C7"/>
<path d="M193.999 87.8L194.899 99.2L195.399 106.7L202.499 107.1L201.999 99.5L201.099 88.3L193.999 87.8Z" fill="#599F75"/>
<path d="M202.499 107.1L203.599 121.1L196.499 121L195.399 106.7L202.499 107.1Z" fill="#B8D8C7"/>
<path d="M296.107 83.3435L308.807 103.443L319.906 88.3435C315.506 84.7435 310.207 82.4435 304.707 82.0435C301.507 81.8435 298.607 82.3435 296.107 83.3435Z" fill="#172D39"/>
<path d="M286.206 101.843L308.806 103.443L296.106 83.3435C289.106 86.1435 285.006 93.1435 286.206 101.843Z" fill="#B8D1E0"/>
<path d="M286.207 101.843C286.207 102.143 286.307 102.443 286.307 102.743C288.407 114.643 299.507 124.543 311.207 125.443L308.807 103.443L286.207 101.843Z" fill="#B8D8C7"/>
<path d="M308.806 103.443L311.206 125.443C311.806 125.543 312.506 125.543 313.106 125.543C325.006 125.543 332.306 115.843 329.806 104.143C328.506 98.0434 324.806 92.4435 319.906 88.4435L308.806 103.443Z" fill="white"/>
<path d="M198.672 139.27L203.872 189.97L334.572 187.57L334.372 183.67L306.072 164.17C304.772 163.27 303.072 163.27 301.772 164.27L291.172 172.07C289.572 173.27 287.172 172.97 285.972 171.27L275.472 157.27C273.972 155.27 270.972 155.27 269.472 157.37L260.172 170.27C258.972 171.97 256.572 172.37 254.872 171.07C253.572 170.07 251.772 170.07 250.472 170.97L243.872 175.67C242.172 176.87 239.772 176.47 238.572 174.67L223.772 151.87C222.572 150.07 220.172 149.67 218.472 150.87L214.172 153.97C212.472 155.17 210.172 154.87 208.972 153.17L198.672 139.27Z" fill="#599F75"/>
<path d="M293.772 155.37H299.472C299.772 155.37 299.972 155.47 300.172 155.67L301.472 156.97C301.872 157.37 302.572 157.37 302.872 156.97L303.872 155.67C304.072 155.47 304.272 155.37 304.572 155.37H310.072C310.572 155.37 310.972 154.97 310.872 154.47L310.072 143.67C310.072 143.17 309.572 142.67 309.072 142.67L292.772 142.07C292.272 142.07 291.872 142.47 291.872 142.97L292.772 154.27C292.772 154.87 293.172 155.37 293.772 155.37Z" fill="white"/>
<path d="M240.372 160.77L246.072 160.67C246.372 160.67 246.572 160.77 246.772 160.97L248.072 162.27C248.472 162.67 249.072 162.67 249.472 162.17L250.472 160.87C250.672 160.67 250.872 160.57 251.172 160.57L256.572 160.47C257.072 160.47 257.372 160.07 257.372 159.47L256.572 148.57C256.572 148.07 256.072 147.57 255.672 147.57L239.372 147.17C238.872 147.17 238.472 147.57 238.472 148.17L239.372 159.77C239.372 160.37 239.872 160.87 240.372 160.77Z" fill="#B8D1E0"/>
<path d="M514.272 449.27C514.672 450.57 515.572 455.77 516.272 460.57C528.172 462.57 538.372 457.87 538.372 457.87C537.872 452.87 537.372 447.67 537.372 447.67C537.372 444.87 513.472 446.87 514.272 449.27Z" fill="#172D39"/>
<path d="M516.272 460.47C516.872 464.67 517.472 468.37 517.472 468.37C517.472 468.37 520.172 474.67 526.972 474.67C533.872 474.67 539.272 468.97 539.172 466.57C539.072 465.47 538.772 461.67 538.372 457.77C538.372 457.77 528.272 462.47 516.272 460.47Z" fill="#F4C2C9"/>
<path d="M539.072 464.67C539.072 464.67 537.172 466.77 535.972 467.77C534.872 468.77 531.472 465.67 526.672 466.27C521.872 466.87 520.372 468.77 520.372 468.77C520.372 468.77 518.372 468.37 517.272 467.47C517.272 467.47 517.272 470.87 515.772 474.77C514.272 478.67 506.672 490.07 506.672 492.27C506.672 494.47 507.172 496.17 508.772 496.87C510.372 497.57 520.972 497.67 529.872 497.87C538.772 498.07 545.672 498.57 546.672 495.07C547.672 491.57 543.572 480.67 541.872 473.97C540.172 467.17 540.472 464.77 539.072 464.67Z" fill="#172D39"/>
<path d="M537.572 483.17C537.572 483.17 526.872 477.47 516.672 483.17" stroke="white" stroke-width="1.8" stroke-miterlimit="10" stroke-linecap="round" stroke-linejoin="round"/>
<path d="M535.572 477.57C535.572 477.57 527.272 474.87 518.572 477.57" stroke="white" stroke-width="1.8" stroke-miterlimit="10" stroke-linecap="round" stroke-linejoin="round"/>
<path d="M410.472 456.17C421.872 460.07 433.672 457.67 433.572 457.77C433.972 452.17 434.472 446.27 434.472 446.27C432.972 442.77 411.472 441.17 411.272 442.67C411.272 443.47 410.872 450.07 410.472 456.17Z" fill="#172D39"/>
<path d="M409.872 466.77C409.872 466.77 411.372 471.47 417.872 473.87C424.372 476.27 432.672 469.77 432.772 467.87C432.872 467.07 433.172 462.47 433.572 457.77C433.572 457.67 421.872 460.07 410.472 456.17C410.172 461.67 409.872 466.77 409.872 466.77Z" fill="#F4C2C9"/>
<path d="M432.972 466.47C433.672 466.47 434.172 467.47 434.572 473.77C434.972 480.07 436.972 493.97 434.572 496.07C432.172 498.17 384.272 497.57 378.772 497.17C373.272 496.77 370.272 493.17 371.972 490.77C373.672 488.37 385.472 483.97 395.872 476.97C406.272 469.97 408.772 468.47 409.972 466.77C409.972 466.77 409.372 461.07 412.472 461.97C415.572 462.87 417.672 470.27 421.672 471.27C425.572 472.17 426.172 466.07 432.972 466.47Z" fill="#172D39"/>
<path d="M393.572 477.17C393.572 477.17 396.272 476.371 402.372 482.871" stroke="white" stroke-width="1.8" stroke-miterlimit="10" stroke-linecap="round" stroke-linejoin="round"/>
<path d="M400.172 472.871C400.172 472.871 404.972 472.67 410.472 479.77" stroke="white" stroke-width="1.8" stroke-miterlimit="10" stroke-linecap="round" stroke-linejoin="round"/>
<path d="M534.572 459.17L533.972 455.17" stroke="#63737A" stroke-width="1.8" stroke-miterlimit="10" stroke-linecap="round" stroke-linejoin="round"/>
<path d="M527.672 460.67L527.072 456.67" stroke="#63737A" stroke-width="1.8" stroke-miterlimit="10" stroke-linecap="round" stroke-linejoin="round"/>
<path d="M520.072 460.97L519.372 457.37" stroke="#63737A" stroke-width="1.8" stroke-miterlimit="10" stroke-linecap="round" stroke-linejoin="round"/>
<path d="M429.072 458.27L429.372 454.07" stroke="#63737A" stroke-width="1.8" stroke-miterlimit="10" stroke-linecap="round" stroke-linejoin="round"/>
<path d="M420.772 458.17L421.072 453.57" stroke="#63737A" stroke-width="1.8" stroke-miterlimit="10" stroke-linecap="round" stroke-linejoin="round"/>
<path d="M413.272 456.97L413.572 452.67" stroke="#63737A" stroke-width="1.8" stroke-miterlimit="10" stroke-linecap="round" stroke-linejoin="round"/>
<path d="M541.272 225.37C541.272 225.37 543.772 235.67 544.072 249.37C544.372 263.07 533.672 305.97 529.772 320.47C525.872 335.07 526.672 337.27 527.272 340.07C527.872 342.87 533.872 365.07 535.872 388.07C537.872 411.07 545.072 429.57 544.272 436.67C543.172 446.27 539.072 449.07 537.372 450.17C535.672 451.27 521.672 455.77 512.172 453.57C512.172 453.57 502.072 447.17 500.172 438.17C498.172 429.17 499.372 418.27 492.872 388.87C486.472 359.47 483.372 347.37 482.472 335.67C481.972 328.67 481.872 308.67 481.772 293.37C481.672 282.97 481.672 274.67 481.572 273.87C481.272 271.87 476.372 274.17 473.772 267.77C472.672 264.87 472.072 259.37 471.972 253.47C471.772 245.97 472.272 237.77 473.272 233.27C474.872 224.97 539.672 216.57 541.272 225.37Z" fill="#172D39"/>
<path d="M404.072 438.47C405.772 442.67 408.872 447.47 411.672 448.57C414.472 449.67 427.072 451.37 433.472 450.77C433.472 450.77 444.172 447.67 445.272 439.57C446.372 431.47 444.472 422.47 448.072 404.27C451.672 386.07 454.772 353.87 455.672 344.37C456.472 334.87 476.172 306.57 485.372 289.47C494.572 272.37 504.472 241.07 496.272 233.77C488.072 226.37 458.772 223.17 450.072 229.07C450.072 229.07 439.972 253.67 429.872 283.07C420.572 310.07 418.672 319.17 417.372 326.97C417.272 327.67 417.172 328.37 416.972 329.07C416.572 331.47 416.072 337.67 415.372 345.67C413.772 365.97 411.872 397.47 411.072 404.67C409.972 414.67 402.372 434.27 404.072 438.47Z" fill="#172D39"/>
<path d="M487.172 275.37C487.172 275.37 476.572 271.47 467.172 269.97" stroke="#63737A" stroke-width="1.8" stroke-miterlimit="10" stroke-linecap="round" stroke-linejoin="round"/>
<path d="M488.998 344.985C487.553 337.726 492.178 330.688 499.328 329.265C506.479 327.842 513.446 332.573 514.891 339.831C516.335 347.09 511.71 354.128 504.56 355.551C497.41 356.974 490.442 352.243 488.998 344.985Z" stroke="#63737A" stroke-width="1.8" stroke-miterlimit="10" stroke-linecap="round" stroke-linejoin="round"/>
<path d="M415.372 345.57C417.772 348.57 421.472 350.47 425.572 350.47C432.872 350.47 438.772 344.57 438.772 337.17C438.772 329.87 432.872 323.87 425.672 323.87C422.572 323.87 419.672 324.97 417.372 326.87" stroke="#63737A" stroke-width="1.8" stroke-miterlimit="10" stroke-linecap="round" stroke-linejoin="round"/>
<path d="M538.972 272.67C538.972 272.67 527.872 263.67 527.772 247.07C527.772 247.07 534.772 246.67 538.972 245.67" stroke="#63737A" stroke-width="1.8" stroke-miterlimit="10" stroke-linecap="round" stroke-linejoin="round"/>
<path d="M481.772 293.37C481.672 282.97 481.672 274.67 481.572 273.87C481.272 271.87 476.372 274.17 473.772 267.77C472.672 264.87 472.072 259.37 471.972 253.47" stroke="#63737A" stroke-width="1.8" stroke-miterlimit="10" stroke-linecap="round" stroke-linejoin="round"/>
<path d="M452.272 110.87C452.272 110.87 444.072 111.27 430.872 137.67C417.672 163.97 412.972 173.57 412.972 173.57C412.972 173.57 404.272 171.47 390.072 169.17C375.872 166.87 355.872 163.97 355.872 163.97C355.872 163.97 350.472 164.07 348.172 171.77C346.572 177.37 349.072 181.37 350.572 183.17C351.072 183.77 351.672 184.27 352.472 184.57C358.572 187.17 394.172 202.17 406.272 204.77C419.572 207.57 426.072 207.17 437.872 190.97C449.672 174.77 458.972 162.17 463.272 155.67C467.572 148.87 470.672 111.87 452.272 110.87Z" fill="#599F75"/>
<path d="M429.772 200.17C429.772 200.17 430.472 194.87 420.172 194.87C409.872 194.87 404.572 202.57 407.072 204.77" stroke="#172D39" stroke-width="1.8" stroke-miterlimit="10" stroke-linecap="round" stroke-linejoin="round"/>
<path d="M412.972 173.47C412.972 173.47 417.272 175.47 418.172 178.47" stroke="#172D39" stroke-width="1.8" stroke-miterlimit="10" stroke-linecap="round" stroke-linejoin="round"/>
<path d="M355.372 164.77C355.372 164.77 350.972 163.17 349.872 162.57C348.772 161.97 346.372 157.77 344.372 155.17C342.372 152.57 336.672 151.07 335.072 151.37C333.472 151.67 332.872 152.67 332.872 152.67C332.872 152.67 327.872 150.87 324.472 149.47C321.072 148.07 314.772 144.97 313.872 147.47C313.372 148.97 317.272 151.17 319.972 152.67C323.272 154.57 325.472 155.97 325.472 155.97C325.472 155.97 323.872 156.77 323.472 158.87C323.072 160.97 321.972 163.27 323.972 166.47C324.572 167.37 322.272 169.87 324.072 172.17C327.172 175.87 334.672 177.77 338.672 178.97C342.772 180.17 352.072 180.77 352.072 180.77C352.072 180.77 355.072 180.07 356.372 173.57C357.672 167.07 355.372 164.77 355.372 164.77Z" fill="#F4C2C9"/>
<path d="M332.872 152.67C332.872 152.67 332.172 154.47 331.372 157.17C330.572 159.87 329.972 161.97 332.072 162.07C334.172 162.17 336.072 158.97 336.872 157.37" stroke="#E26E85" stroke-width="1.8" stroke-miterlimit="10" stroke-linecap="round" stroke-linejoin="round"/>
<path d="M335.472 159.67C335.472 159.67 333.172 164.27 338.472 168.27" stroke="#E26E85" stroke-width="1.8" stroke-miterlimit="10" stroke-linecap="round" stroke-linejoin="round"/>
<path d="M325.372 155.97L330.972 158.57" stroke="#E26E85" stroke-width="1.8" stroke-miterlimit="10" stroke-linecap="round" stroke-linejoin="round"/>
<path d="M333.772 161.47C333.772 161.47 334.772 163.07 333.772 163.97C332.772 164.87 327.272 162.87 323.272 160.57" stroke="#E26E85" stroke-width="1.8" stroke-miterlimit="10" stroke-linecap="round" stroke-linejoin="round"/>
<path d="M332.872 164.17C332.872 164.17 334.573 165.07 333.773 166.87C332.973 168.67 328.673 167.97 323.973 166.47" stroke="#E26E85" stroke-width="1.8" stroke-miterlimit="10" stroke-linecap="round" stroke-linejoin="round"/>
<path d="M331.972 167.97C331.972 167.97 334.472 168.27 333.172 170.77C332.372 172.27 327.572 171.77 326.572 172.17" stroke="#E26E85" stroke-width="1.8" stroke-miterlimit="10" stroke-linecap="round" stroke-linejoin="round"/>
<path d="M361.172 165.67C361.972 167.07 362.972 169.77 362.272 174.57C361.472 180.67 357.972 183.67 356.072 184.87" stroke="#172D39" stroke-width="1.8" stroke-miterlimit="10" stroke-linecap="round" stroke-linejoin="round"/>
<path d="M484.672 74.2705C484.672 74.2705 487.872 90.3705 489.672 94.7705C491.472 99.1705 481.672 106.07 471.872 106.47C462.072 106.87 463.072 101.17 463.072 101.17L460.172 85.1705C460.172 85.2705 481.172 70.5705 484.672 74.2705Z" fill="#F4C2C9"/>
<path d="M480.272 79.0705C481.672 91.2705 472.872 97.1705 463.072 101.77C463.072 101.47 463.072 101.17 463.072 101.17L461.472 92.6705C468.772 90.2705 475.172 85.0705 480.272 79.0705Z" fill="#E26E85"/>
<path d="M526.672 106.57C524.472 100.07 516.072 96.1705 509.272 96.7705C502.272 97.3705 488.872 97.5705 475.972 101.57C453.972 108.37 448.672 112.37 447.372 113.57C440.072 120.57 440.772 130.97 444.972 159.67C447.672 178.57 449.972 183.37 449.372 192.67C448.772 201.87 447.072 218.47 445.972 221.87C444.872 225.27 447.672 231.17 450.072 233.27C452.472 235.37 471.872 239.77 489.872 239.37C507.772 238.97 536.172 234.07 540.672 231.07C545.172 228.07 548.372 222.87 547.372 218.37C546.472 213.87 545.372 207.47 542.572 197.97C539.772 188.47 539.572 176.07 535.172 156.17C531.772 141.47 531.272 120.17 526.672 106.57Z" fill="#45677C"/>
<path d="M499.172 179.87C493.572 181.07 480.772 183.47 465.372 183.77C463.872 183.77 462.572 184.97 462.372 186.47C462.072 189.07 460.872 193.27 457.272 197.27C456.772 197.77 456.472 198.47 456.472 199.27C456.372 203.47 456.172 217.67 458.972 219.87C462.172 222.27 496.172 224.47 517.272 218.57C518.672 218.17 519.672 216.97 519.672 215.57C519.572 211.47 519.372 202.87 518.672 197.47C518.472 196.37 517.772 195.47 516.772 194.97C513.472 193.47 505.872 189.47 503.172 181.97C502.372 180.37 500.772 179.47 499.172 179.87Z" stroke="#B8D1E0" stroke-width="1.8" stroke-miterlimit="10" stroke-linecap="round" stroke-linejoin="round"/>
<path d="M490.972 92.3705C490.572 91.3705 489.272 91.1705 488.472 91.8705C486.572 93.8705 482.472 96.8705 475.072 98.2705C463.772 100.37 462.672 98.6705 462.672 98.6705C462.672 98.6705 460.872 99.2705 460.672 100.77C460.472 102.27 460.972 106.07 461.472 107.97C462.072 109.87 470.472 110.07 477.172 108.67C483.372 107.37 488.872 104.67 492.872 100.57C493.572 99.8705 493.772 98.8705 493.372 97.9705C492.772 96.4705 491.772 94.2705 490.972 92.3705Z" fill="#599F75"/>
<path d="M441.672 55.2705C441.672 57.2705 441.672 62.6705 443.672 67.8705C445.672 73.0705 448.972 87.5705 455.472 92.2705C461.972 96.9705 476.172 96.0705 482.372 83.9705C488.572 71.9705 486.572 59.1705 483.372 48.9705C480.172 38.7705 466.972 35.0705 455.472 39.2705C443.872 43.4705 441.672 50.7705 441.672 55.2705Z" fill="#F4C2C9"/>
<path d="M483.672 62.2705C483.672 62.2705 482.972 63.0705 481.972 65.1705C481.072 67.2705 479.172 66.0705 478.472 62.2705C477.772 58.4705 476.172 55.7705 474.972 55.9705C473.772 56.2705 469.572 56.7705 467.072 52.2705C464.572 47.6705 463.472 48.3704 463.472 48.3704C463.472 48.3704 461.472 43.5705 456.272 50.4705C451.072 57.3705 447.772 62.7705 441.572 61.6705C435.372 60.5704 429.872 50.4705 434.572 40.7705C439.372 31.0705 454.072 28.7705 465.072 31.6705C476.072 34.5705 481.772 32.1705 488.372 37.7705C494.972 43.3705 493.372 49.2704 493.772 55.8704C494.172 62.4704 497.572 65.9704 493.072 71.8704C488.572 77.7705 489.772 83.2705 487.272 86.5705C487.272 86.5705 484.572 77.8705 484.872 71.5705C485.172 65.2705 483.672 62.2705 483.672 62.2705Z" fill="#172D39"/>
<path d="M453.972 67.7705C454.172 73.0705 458.472 77.2705 463.572 77.2705C468.772 77.2705 472.972 72.9705 472.872 67.5705C472.872 62.0705 468.372 57.5705 463.072 57.6705C457.772 57.7705 453.772 62.3705 453.972 67.7705Z" stroke="#172D39" stroke-width="1.8" stroke-miterlimit="10" stroke-linecap="round" stroke-linejoin="round"/>
<path d="M438.566 73.68C437.176 68.9078 438.758 64.2505 442.098 63.2777C445.439 62.3048 449.274 65.3848 450.663 70.1571C452.053 74.9293 450.472 79.5866 447.131 80.5595C443.79 81.5323 439.956 78.4523 438.566 73.68Z" stroke="#172D39" stroke-width="1.8" stroke-miterlimit="10" stroke-linecap="round" stroke-linejoin="round"/>
<path d="M450.472 69.8705C450.472 69.8705 450.572 67.8705 454.072 68.9705" stroke="#172D39" stroke-width="1.8" stroke-miterlimit="10" stroke-linecap="round" stroke-linejoin="round"/>
<path d="M472.072 63.4705L483.672 61.3705" stroke="#172D39" stroke-width="1.8" stroke-miterlimit="10" stroke-linecap="round" stroke-linejoin="round"/>
<path d="M482.672 64.0705C482.672 64.0705 483.572 58.7705 487.872 58.6705C492.172 58.6705 494.772 71.7705 484.072 73.5705" fill="#F4C2C9"/>
<path d="M488.572 62.7705C487.672 62.5705 486.572 62.7705 485.872 63.7705C485.572 64.2705 485.472 64.8705 485.472 65.4705C485.472 65.7705 485.572 65.9705 485.572 66.2705C485.572 66.4705 485.672 66.6705 485.672 66.8705C485.772 67.2705 485.772 67.5705 485.772 67.8705C485.772 68.1705 485.772 68.3705 485.572 68.5705C485.272 69.0705 484.472 69.4705 483.672 69.9705C484.572 70.1705 485.572 70.3705 486.572 69.6705C487.072 69.3705 487.372 68.6705 487.472 68.1705C487.572 67.5705 487.472 67.0705 487.372 66.5705C487.272 66.3705 487.272 66.0705 487.172 65.8705C487.172 65.6705 487.072 65.5705 487.072 65.3705C486.972 65.0705 486.972 64.7705 487.072 64.5705C487.172 63.8705 487.772 63.2705 488.572 62.7705Z" fill="#172D39"/>
<path d="M451.872 68.2705C451.772 69.4705 451.572 70.5705 451.172 71.5705C450.972 72.0705 450.772 72.4705 450.472 72.8705C450.272 73.1705 449.672 73.8705 449.572 74.5705C449.172 76.0705 449.672 77.4705 450.372 78.4705C450.772 78.9705 451.172 79.4705 451.772 79.7705C452.272 80.0705 452.972 80.3705 453.572 80.2705C452.572 79.5705 452.072 78.6705 451.672 77.6705C451.272 76.7705 451.172 75.7705 451.372 74.9705C451.472 74.5705 451.672 74.3705 452.072 73.6705C452.372 73.0705 452.572 72.4705 452.672 71.7705C452.672 70.5705 452.472 69.2705 451.872 68.2705Z" fill="#172D39"/>
<path d="M461.872 84.1705C461.872 84.1705 466.272 84.2705 468.472 79.7705" stroke="#172D39" stroke-width="1.8" stroke-miterlimit="10" stroke-linecap="round" stroke-linejoin="round"/>
<path d="M465.972 69.6705C466.772 69.4705 467.272 68.6705 467.072 67.8705L466.672 66.3705C466.472 65.5705 465.672 65.0705 464.872 65.2705C464.072 65.4705 463.572 66.2705 463.772 67.0705L464.172 68.5705C464.372 69.3705 465.172 69.8705 465.972 69.6705Z" fill="#172D39"/>
<path d="M450.072 73.7705C450.872 73.5705 451.372 72.7705 451.172 71.9705L450.772 70.4705C450.572 69.6705 449.772 69.1705 448.972 69.3705C448.172 69.5705 447.672 70.3705 447.872 71.1705L448.272 72.6705C448.472 73.4705 449.272 73.9705 450.072 73.7705Z" fill="#172D39"/>
<path d="M461.972 62.7705C463.072 62.9705 463.572 61.4705 465.172 61.5705C467.672 61.6705 469.072 62.1705 469.272 61.0705C469.372 60.2705 467.472 58.7705 465.072 58.6705C461.572 58.6705 459.972 62.4705 461.972 62.7705Z" fill="#172D39"/>
<path d="M450.072 65.7705C449.372 66.3705 448.372 65.2705 447.372 65.9705C445.872 66.8705 445.372 67.6705 444.872 66.9705C444.472 66.3705 444.872 64.5705 446.272 63.6705C448.572 62.0705 451.572 64.6705 450.072 65.7705Z" fill="#172D39"/>
<path d="M576.072 232.97C576.072 232.97 577.372 235.77 577.372 237.47C577.372 239.17 575.972 254.87 576.372 257.97C576.872 261.07 577.772 267.17 578.372 268.07C578.972 268.97 582.572 266.17 582.672 256.77C582.772 247.37 585.972 234.47 583.272 232.97C580.572 231.47 576.872 231.77 576.072 232.97Z" fill="#F4C2C9"/>
<path d="M641.572 279.37L617.572 241.57C616.472 239.87 614.172 239.27 612.372 240.47L555.872 276.37C554.172 277.47 553.572 279.77 554.772 281.57L578.772 319.37C579.872 321.07 582.172 321.67 583.972 320.47L640.472 284.57C642.172 283.47 642.672 281.17 641.572 279.37Z" fill="#172D39"/>
<path d="M575.272 308.27L563.272 289.47C562.772 288.57 561.472 288.57 560.872 289.37L558.972 291.87C558.572 292.37 558.572 292.97 558.872 293.57L569.672 310.57C569.972 311.07 570.572 311.37 571.172 311.17L574.272 310.57C575.272 310.27 575.772 309.17 575.272 308.27Z" fill="#599F75"/>
<path d="M578.773 231.97C578.773 231.97 579.373 249.37 579.473 253.07C579.573 256.67 579.373 264.07 580.273 267.57C581.173 271.07 582.672 279.87 585.372 280.47C588.072 281.07 585.173 269.67 585.173 267.47C585.173 265.27 586.372 259.97 586.372 259.97C586.372 259.97 587.373 265.47 588.073 267.87C588.773 270.27 593.373 277.77 595.173 277.47C597.073 277.17 594.772 271.57 593.372 268.17C592.072 265.07 591.573 258.57 591.573 258.57C591.573 258.57 593.073 262.37 594.273 264.37C595.473 266.37 599.573 272.57 601.273 272.27C603.073 271.97 600.173 265.67 598.473 262.77C596.773 259.87 596.673 257.77 596.673 257.77C596.673 257.77 599.373 260.47 601.073 261.77C602.773 263.07 608.773 265.97 609.273 264.47C609.673 262.97 607.073 261.37 604.573 259.07C602.073 256.87 599.373 252.17 598.773 251.37C598.173 250.67 599.873 243.57 597.173 238.87C594.473 234.17 592.873 232.27 592.173 229.07C591.573 225.97 579.073 229.67 578.773 231.97Z" fill="#F4C2C9"/>
<path d="M516.272 96.7705C516.272 96.7705 527.672 95.6705 541.372 112.87C555.072 130.07 568.572 144.47 572.372 151.27C576.172 158.17 584.572 183.57 588.772 203.67C592.972 223.77 593.372 227.37 593.272 229.57C593.172 231.57 583.072 234.37 576.472 234.27C575.272 234.27 574.172 233.57 573.772 232.47C571.172 226.37 562.072 205.57 558.472 197.97C554.272 189.07 549.372 175.87 548.772 174.97C548.172 174.07 520.872 146.27 515.772 138.97C510.672 131.77 505.772 119.87 506.872 109.47C508.072 98.1705 513.872 96.6705 516.272 96.7705Z" fill="#599F75"/>
<path d="M570.972 148.97C570.972 148.97 567.872 144.67 563.972 148.57C559.872 152.67 561.672 161.57 567.372 167.17C572.072 171.77 578.772 169.87 578.172 165.57" stroke="#172D39" stroke-width="1.8" stroke-miterlimit="10" stroke-linecap="round" stroke-linejoin="round"/>
<path d="M591.872 224.77C589.172 226.07 581.072 229.67 573.172 228.67" stroke="#172D39" stroke-width="1.8" stroke-miterlimit="10" stroke-linecap="round" stroke-linejoin="round"/>
<path d="M330.072 253.17L313.272 198.17C312.772 196.67 311.372 195.67 309.772 195.67L210.372 198.47C208.672 198.47 207.572 200.07 207.972 201.67L227.472 268.77C227.972 270.47 229.672 271.57 231.372 271.27L327.872 256.37C329.572 256.17 330.572 254.67 330.072 253.17Z" fill="#172D39"/>
<path d="M330.972 255.97L388.772 261.37L289.672 285.77C287.272 286.37 284.772 286.37 282.372 285.77L228.572 271.87L330.972 255.97Z" fill="#63737A"/>
<path d="M289.572 285.77L388.672 261.37C388.672 263.27 387.372 264.87 385.572 265.37L292.172 290.17C288.272 291.17 284.072 291.17 280.172 289.97L231.172 275.57C229.472 275.07 228.372 273.57 228.372 271.77L282.172 285.67C284.772 286.37 287.272 286.37 289.572 285.77Z" fill="#172D39"/>
<path d="M264.773 207.87L271.773 231.67C271.973 232.27 272.573 232.67 273.173 232.67L312.473 229.27C313.373 229.17 313.873 228.37 313.673 227.57L307.073 205.77C306.873 205.17 306.373 204.77 305.773 204.77L266.073 206.17C265.173 206.17 264.573 207.07 264.773 207.87Z" fill="white"/>
<path d="M272.272 212.17L276.672 226.47L307.272 224.27L306.172 221.07L294.872 216.07L288.472 221.07L272.272 212.17Z" fill="#B8D1E0"/>
<path d="M295.172 241.37L298.073 250.37C298.273 250.97 298.873 251.37 299.573 251.27L318.473 248.77C319.273 248.67 319.873 247.87 319.573 247.07L317.073 238.67C316.873 238.07 316.272 237.67 315.672 237.67L296.373 239.67C295.473 239.67 294.872 240.47 295.172 241.37Z" fill="#45677C"/>
<path d="M265.573 244.37L268.773 254.27C268.973 254.87 269.573 255.27 270.273 255.17L288.273 252.77C289.073 252.67 289.673 251.87 289.373 250.97L286.373 241.67C286.173 241.07 285.573 240.67 284.973 240.77L266.773 242.57C265.873 242.67 265.273 243.47 265.573 244.37Z" fill="#599F75"/>
<path d="M231.572 247.77L234.972 258.77C235.172 259.37 235.772 259.77 236.472 259.67L258.172 256.77C258.972 256.67 259.572 255.87 259.272 254.97L255.972 244.67C255.772 244.07 255.172 243.67 254.572 243.77L232.872 245.97C231.872 246.07 231.272 246.97 231.572 247.77Z" fill="#B8D1E0"/>
<path d="M243.273 212.67C243.973 215.67 247.073 217.97 250.073 217.77C252.973 217.57 254.473 215.07 253.673 212.27C252.873 209.57 250.073 207.57 247.373 207.57C244.573 207.57 242.673 209.87 243.273 212.67Z" fill="#45677C"/>
<path d="M236.173 209.37L221.573 209.87" stroke="#63737A" stroke-width="1.8" stroke-miterlimit="10" stroke-linecap="round" stroke-linejoin="round"/>
<path d="M258.973 228.37L227.673 230.57" stroke="#63737A" stroke-width="1.8" stroke-miterlimit="10" stroke-linecap="round" stroke-linejoin="round"/>
<path d="M237.873 215.27L223.273 215.87" stroke="#63737A" stroke-width="1.8" stroke-miterlimit="10" stroke-linecap="round" stroke-linejoin="round"/>
<path d="M157.772 65.8704L233.772 71.7705C235.672 71.8704 237.272 70.3704 237.172 68.3704L233.972 24.4704C233.772 21.8704 231.772 19.6704 229.172 19.3704L151.972 8.87044C149.972 8.57044 148.272 10.2705 148.372 12.2705L152.672 60.8704C152.872 63.4704 155.072 65.5704 157.772 65.8704Z" fill="#599F75"/>
<path d="M160.272 64.2705L236.272 70.1705C238.172 70.2705 239.772 68.7705 239.672 66.7705L236.472 22.8705C236.272 20.2705 234.272 18.0705 231.672 17.7705L154.472 7.27047C152.472 6.97047 150.772 8.67046 150.872 10.6705L155.172 59.2705C155.372 61.9705 157.572 64.0705 160.272 64.2705Z" fill="#B8D8C7"/>
<path d="M210.872 34.8705C211.072 37.8705 213.672 40.5705 216.572 40.8705C219.472 41.1705 221.572 38.9705 221.372 36.0705C221.172 33.0705 218.672 30.3705 215.772 30.0705C212.772 29.6705 210.672 31.8705 210.872 34.8705Z" fill="#172D39"/>
<path d="M212.372 53.9705L222.772 54.9705C225.072 55.1705 226.772 53.3705 226.572 51.0705C226.172 45.7705 221.672 40.9705 216.472 40.3705C211.272 39.7705 207.272 43.7705 207.772 49.2705C207.972 51.5705 209.972 53.7705 212.372 53.9705Z" fill="#172D39"/>
<path d="M198.572 29.4705L166.172 25.6705" stroke="#63737A" stroke-width="1.8" stroke-miterlimit="10" stroke-linecap="round" stroke-linejoin="round"/>
<path d="M199.372 38.3705L166.972 34.8705" stroke="#63737A" stroke-width="1.8" stroke-miterlimit="10" stroke-linecap="round" stroke-linejoin="round"/>
<path d="M200.072 47.2705L180.572 45.3705" stroke="#63737A" stroke-width="1.8" stroke-miterlimit="10" stroke-linecap="round" stroke-linejoin="round"/>
<path d="M548.073 41.6705H509.673L505.773 44.1705C504.473 44.9705 502.872 44.0705 502.872 42.5705V15.4705C502.872 12.6705 505.072 10.4705 507.872 10.4705H548.073C550.873 10.4705 553.073 12.6705 553.073 15.4705V36.6705C553.073 39.4705 550.873 41.6705 548.073 41.6705Z" fill="#B8D8C7"/>
<path d="M515.273 19.3705H540.873" stroke="#172D39" stroke-width="1.8" stroke-miterlimit="10" stroke-linecap="round" stroke-linejoin="round"/>
<path d="M515.273 26.3705H540.873" stroke="#172D39" stroke-width="1.8" stroke-miterlimit="10" stroke-linecap="round" stroke-linejoin="round"/>
<path d="M515.273 33.3705H529.973" stroke="#172D39" stroke-width="1.8" stroke-miterlimit="10" stroke-linecap="round" stroke-linejoin="round"/>
</g>
</svg>
