<svg width="576" height="501" viewBox="0 0 576 501" fill="none" xmlns="http://www.w3.org/2000/svg">
<path d="M87.272 23.5074C87.272 23.5074 97.7447 79.3372 87.272 146.921L228.654 112.639C228.654 112.639 197.236 53.871 188.945 0L87.272 23.5074Z" fill="#45677C"/>
<path d="M90.3276 48.9735L194.182 24.4867" stroke="#172D39" stroke-width="1.8" stroke-miterlimit="10" stroke-linecap="round" stroke-linejoin="round"/>
<path d="M114.762 71.9913L181.963 53.871" stroke="#172D39" stroke-width="1.8" stroke-miterlimit="10" stroke-linecap="round" stroke-linejoin="round"/>
<path d="M116.073 95.4985L161.018 83.7449" stroke="#172D39" stroke-width="1.8" stroke-miterlimit="10" stroke-linecap="round" stroke-linejoin="round"/>
<path d="M576 383.463C576 383.463 412.8 341.836 415.418 244.868L165.818 266.906C165.818 266.906 168.873 385.912 331.636 446.639C332.073 446.639 505.309 420.683 576 383.463Z" fill="#45677C"/>
<path d="M366.982 379.056L322.91 385.912" stroke="#172D39" stroke-width="1.8" stroke-miterlimit="10" stroke-linecap="round" stroke-linejoin="round"/>
<path d="M348.654 359.466L297.6 367.302" stroke="#172D39" stroke-width="1.8" stroke-miterlimit="10" stroke-linecap="round" stroke-linejoin="round"/>
<path d="M392.291 312.452C392.291 312.452 279.709 330.082 259.636 333.021" stroke="#172D39" stroke-width="1.8" stroke-miterlimit="10" stroke-linecap="round" stroke-linejoin="round"/>
<path d="M372.218 342.816C379.636 354.569 394.473 373.669 418.473 384.933C419.345 385.423 420.654 385.423 421.964 385.423C438.982 381.505 456.436 377.097 473.018 372.2C475.636 371.71 475.636 367.792 473.455 366.813C462.545 361.426 441.164 350.162 422.4 331.552C421.091 330.082 419.345 329.593 418.036 330.082C408.873 332.041 393.164 334.49 373.964 337.918C372.218 338.898 370.909 341.346 372.218 342.816Z" fill="#172D39"/>
<path d="M298.036 286.985C298.909 292.372 300.654 297.27 301.527 300.208C302.4 302.167 303.709 303.147 305.454 302.657L390.545 292.372C393.164 291.883 394.473 289.434 393.6 286.496C392.291 283.067 391.418 279.639 390.982 275.721C390.545 273.762 388.8 272.293 387.054 272.293L301.527 281.108C299.345 282.578 297.6 284.537 298.036 286.985Z" fill="#599F75"/>
<path d="M290.414 441.252H118.05C107.141 441.252 98.8501 430.478 100.596 418.235L142.487 109.211C144.668 94.0293 156.014 83.2551 169.541 83.2551C236.853 83.2551 274.592 83.2551 341.905 83.2551C352.814 83.2551 361.105 94.0292 359.359 106.273L317.468 415.296C315.723 430.478 303.941 441.252 290.414 441.252Z" fill="#172D39"/>
<path d="M283.87 94.3279H229.324C224.524 94.3279 221.033 89.6327 221.906 83.8941C222.779 78.1555 227.579 73.4603 232.379 73.4603H286.924C291.724 73.4603 295.215 78.1555 294.343 83.8941C293.033 89.6327 288.67 94.3279 283.87 94.3279Z" fill="#599F75"/>
<path d="M165.817 190.313L317.358 189.848" stroke="#63737A" stroke-width="1.8" stroke-miterlimit="10" stroke-linecap="round" stroke-linejoin="round"/>
<path d="M174.51 146.445L251.828 146.861" stroke="#63737A" stroke-width="1.8" stroke-miterlimit="10" stroke-linecap="round" stroke-linejoin="round"/>
<path d="M157.09 232.049L277.779 230.191" stroke="#63737A" stroke-width="1.8" stroke-miterlimit="10" stroke-linecap="round" stroke-linejoin="round"/>
<path d="M140.975 328.066L266.006 329.398" stroke="#63737A" stroke-width="1.8" stroke-miterlimit="10" stroke-linecap="round" stroke-linejoin="round"/>
<path d="M146.656 284.198L197.175 284.644" stroke="#63737A" stroke-width="1.8" stroke-miterlimit="10" stroke-linecap="round" stroke-linejoin="round"/>
<path d="M135.272 369.801L277.65 372.351" stroke="#63737A" stroke-width="1.8" stroke-miterlimit="10" stroke-linecap="round" stroke-linejoin="round"/>
<path d="M163.636 366.812L68.509 342.815C68.509 342.815 67.1999 391.789 -0.000120163 420.683C-0.000120163 420.683 74.6179 484.349 97.7452 501C97.3088 500.51 153.164 468.188 163.636 366.812Z" fill="#599F75"/>
<path d="M157.964 399.135L62.3999 364.364" stroke="#172D39" stroke-width="1.8" stroke-miterlimit="10" stroke-linecap="round" stroke-linejoin="round"/>
<path d="M126.545 419.214L66.7633 388.361" stroke="#172D39" stroke-width="1.8" stroke-miterlimit="10" stroke-linecap="round" stroke-linejoin="round"/>
<path d="M116.51 439.783L56.7279 403.542" stroke="#172D39" stroke-width="1.8" stroke-miterlimit="10" stroke-linecap="round" stroke-linejoin="round"/>
<path d="M103.418 459.372L68.9456 435.865" stroke="#172D39" stroke-width="1.8" stroke-miterlimit="10" stroke-linecap="round" stroke-linejoin="round"/>
</svg>
