<svg width="452" height="281" viewBox="0 0 452 281" fill="none" xmlns="http://www.w3.org/2000/svg">
<path d="M267.135 66.7758C267.135 66.7758 263.236 70.6745 270.477 100.193C277.717 129.712 294.148 152.269 294.148 152.269C294.148 152.269 315.312 134.447 308.907 103.814C302.781 73.1808 267.135 66.7758 267.135 66.7758Z" fill="#172D39"/>
<path d="M271.314 153.662C271.314 153.662 265.744 155.333 252.655 168.978C239.567 182.624 220.352 189.586 197.516 199.89C174.681 210.193 163.542 162.295 169.39 138.067C174.959 113.839 200.023 97.1301 200.023 97.1301L248.757 103.814C248.757 103.814 264.909 84.5985 271.314 97.1301C277.44 109.662 276.883 137.788 271.314 153.662Z" fill="#F4C2C9"/>
<path d="M229.541 242.497L63.566 280.649C56.3255 282.32 49.085 277.864 47.4141 270.624L0.350761 66.7759C-1.32013 59.5354 3.1355 52.2948 10.376 50.6239L176.351 12.472C183.591 10.8011 190.832 15.2569 192.503 22.4974L239.287 226.345C241.237 233.586 236.781 240.826 229.541 242.497Z" fill="#172D39"/>
<path d="M159.642 70.953L51.5916 95.7378C47.9714 96.5732 44.6295 94.3453 43.794 90.7251C42.9586 87.1048 45.1866 83.7631 48.8068 82.9276L156.857 58.1428C160.478 57.3074 163.819 59.5352 164.655 63.1555C165.212 66.4972 162.984 70.1175 159.642 70.953Z" fill="#45677C"/>
<path d="M51.313 124.421L172.174 96.5732" stroke="#63737A" stroke-width="1.8" stroke-miterlimit="10" stroke-linecap="round" stroke-linejoin="round"/>
<path d="M56.0469 144.75L176.908 116.902" stroke="#63737A" stroke-width="1.8" stroke-miterlimit="10" stroke-linecap="round" stroke-linejoin="round"/>
<path d="M128.175 224.953L83.618 235.257C79.9977 236.092 76.6558 233.864 75.8203 230.244L65.5167 185.687C64.6812 182.067 66.9091 178.725 70.5293 177.89L115.086 167.586C118.707 166.75 122.048 168.978 122.884 172.599L133.188 217.156C133.744 220.497 131.517 224.118 128.175 224.953Z" fill="#45677C"/>
<path d="M139.312 161.737L184.705 151.155" stroke="#63737A" stroke-width="1.8" stroke-miterlimit="10" stroke-linecap="round" stroke-linejoin="round"/>
<path d="M144.325 183.738L189.996 173.434" stroke="#63737A" stroke-width="1.8" stroke-miterlimit="10" stroke-linecap="round" stroke-linejoin="round"/>
<path d="M149.338 206.016L176.908 199.611" stroke="#63737A" stroke-width="1.8" stroke-miterlimit="10" stroke-linecap="round" stroke-linejoin="round"/>
<path d="M124.552 30.8518L65.5146 44.4974C61.3374 45.3329 57.7171 41.7126 58.5526 37.5354L59.1094 34.7506C59.6663 32.5228 61.3373 30.8519 63.5652 30.2949L120.097 17.2063C122.325 16.6493 124.552 17.4848 125.945 19.1557L127.616 21.3835C130.401 25.0037 128.73 30.0164 124.552 30.8518Z" fill="#599F75"/>
<path d="M252.654 86.8267C252.654 86.8267 245.692 90.447 232.325 86.8267C218.958 83.2065 216.73 79.8647 202.806 76.2445C188.882 72.6242 169.667 76.5229 166.325 82.371C162.983 88.2191 171.895 91.8394 183.869 93.2318C195.844 94.6242 201.414 117.46 220.629 126.093C252.654 140.295 281.059 96.852 252.654 86.8267Z" fill="#F4C2C9"/>
<path d="M166.325 82.371C162.983 88.2191 171.895 91.8394 183.869 93.2318C195.844 94.6242 201.414 117.46 220.629 126.093C227.312 129.156 233.718 129.434 239.566 128.32" stroke="#E26E85" stroke-width="1.8" stroke-miterlimit="10" stroke-linecap="round" stroke-linejoin="round"/>
<path d="M273.819 74.0162C273.819 74.0162 259.06 83.4845 252.655 86.8263C252.655 86.8263 265.187 99.0795 270.199 121.08C275.212 143.08 271.313 153.662 271.313 153.662C271.313 153.662 287.743 151.991 295.819 146.143C295.819 146.143 303.617 133.333 297.212 108.269C290.807 83.2061 273.819 74.0162 273.819 74.0162Z" fill="white"/>
<path d="M448.705 40.0417C437.566 3.28225 394.123 -11.7558 362.654 10.2442C344.274 23.0544 325.059 35.586 309.743 43.9405C267.135 67.0544 267.135 67.0543 267.135 67.0543C267.135 67.0543 291.363 91.0037 294.983 117.459C298.604 143.915 294.148 152.548 294.148 152.548C294.148 152.548 360.705 136.118 419.464 107.434C444.249 94.9024 456.781 66.4974 448.705 40.0417Z" fill="#599F75"/>
<path d="M288.579 132.219C288.579 130.27 287.187 128.877 285.237 128.877C283.288 128.877 281.896 130.27 281.896 132.219C281.896 134.168 283.288 135.561 285.237 135.561C287.187 135.561 288.579 134.168 288.579 132.219Z" fill="#172D39"/>
</svg>
