<svg width="126" height="122" viewBox="0 0 126 122" fill="none" xmlns="http://www.w3.org/2000/svg">
<path d="M114.695 122L16.3946 120.276C12.4095 120.276 9.08851 117.258 8.86711 113.379L0.0111789 7.98592C-0.210219 4.32196 2.88934 1.52012 6.43171 1.73565L105.175 11.8654C108.939 12.2965 111.817 15.0983 112.039 18.7623L120.673 115.534C120.895 119.198 118.238 122 114.695 122Z" fill="#8DC6A4"/>
<path d="M120.01 120.276L21.7092 118.552C17.724 118.552 14.403 115.534 14.1816 111.655L5.32563 6.26193C5.10423 2.59796 8.20386 -0.203881 11.7462 0.0116463L110.49 10.1414C114.254 10.5725 117.132 13.3743 117.353 17.0383L125.988 113.81C126.209 117.474 123.331 120.276 120.01 120.276Z" fill="#4B7B5D"/>
<path d="M120.01 120.276L21.7092 118.552C17.724 118.552 14.403 115.534 14.1816 111.655L5.32563 6.26193C5.10423 2.59796 8.20386 -0.203881 11.7462 0.0116463L110.49 10.1414C114.254 10.5725 117.132 13.3743 117.353 17.0383L125.988 113.81C126.209 117.474 123.331 120.276 120.01 120.276Z" fill="black" fill-opacity="0.2"/>
<path d="M34.2878 53.7821L64.6626 92.3685L97.1306 26.2873" stroke="#B8D8C7" stroke-width="4" stroke-miterlimit="10" stroke-linecap="round" stroke-linejoin="round"/>
</svg>
