<svg width="676" height="544" viewBox="0 0 676 544" fill="none" xmlns="http://www.w3.org/2000/svg">
<g opacity="0.9">
<path d="M591.842 412.205L71.8425 397.305C47.6425 396.605 27.7425 378.105 25.3425 354.005L0.24249 106.005C-2.55751 77.9046 19.2425 53.4046 47.4425 53.0046L626.242 45.0046C655.442 44.6046 678.342 70.1046 674.742 99.1046L641.042 370.005C637.942 394.605 616.642 412.905 591.842 412.205Z" fill="#EAEAEA"/>
<mask id="mask0_301_5293" style="mask-type:alpha" maskUnits="userSpaceOnUse" x="0" y="45" width="676" height="368">
<path d="M591.843 412.205L71.8426 397.305C47.6426 396.605 27.7426 378.105 25.3426 354.005L0.242612 106.005C-2.55739 77.9046 19.2426 53.4046 47.4426 53.0046L626.243 45.0046C655.443 44.6046 678.343 70.1046 674.743 99.1046L641.043 370.005C637.943 394.605 616.643 412.905 591.843 412.205Z" fill="#EAF9F3"/>
</mask>
<g mask="url(#mask0_301_5293)">
<path d="M167.443 457.205H-248.057C-256.357 457.205 -263.057 450.505 -263.057 442.205V206.505C-263.057 198.205 -256.357 191.505 -248.057 191.505H167.443C175.743 191.505 182.443 198.205 182.443 206.505V442.105C182.443 450.505 175.743 457.205 167.443 457.205Z" stroke="#B8D8C7" stroke-width="1.8" stroke-miterlimit="10" stroke-linecap="round" stroke-linejoin="round"/>
<path d="M716.543 441.405H297.443C289.143 441.405 282.443 434.705 282.443 426.405V82.1046C282.443 73.8046 289.143 67.1046 297.443 67.1046H716.543C724.843 67.1046 731.543 73.8046 731.543 82.1046V426.405C731.543 434.705 724.843 441.405 716.543 441.405Z" stroke="#B8D8C7" stroke-width="1.8" stroke-miterlimit="10" stroke-linecap="round" stroke-linejoin="round"/>
<path d="M52.6424 191.505H32.3424C30.1424 191.505 28.3424 189.905 28.0424 187.705L26.4424 173.305C26.1424 170.805 28.1424 168.505 30.7424 168.505H54.2424C56.8424 168.505 58.7424 170.705 58.5424 173.305L56.9424 187.705C56.6424 189.905 54.8424 191.505 52.6424 191.505Z" stroke="#B8D8C7" stroke-width="1.8" stroke-miterlimit="10" stroke-linecap="round" stroke-linejoin="round"/>
<path d="M40.0424 168.605C40.0424 168.605 32.0424 167.805 30.4424 157.005C30.4424 157.005 37.6424 159.105 39.9424 164.205C39.9424 164.205 40.9424 152.805 46.3424 151.705C46.3424 151.705 48.7424 160.205 44.9424 164.405C44.9424 164.405 47.8424 159.605 55.2424 159.705C55.2424 159.705 53.3424 166.505 46.0424 168.505" fill="#B8D8C7"/>
<path d="M164.243 241.305H74.0425C71.7425 241.305 69.8425 239.405 69.8425 237.105V209.705C69.8425 207.405 71.7425 205.505 74.0425 205.505H164.243C166.543 205.505 168.443 207.405 168.443 209.705V237.105C168.543 239.405 166.643 241.305 164.243 241.305Z" stroke="#B8D8C7" stroke-width="1.8" stroke-miterlimit="10" stroke-linecap="round" stroke-linejoin="round"/>
<path d="M129.543 215.105H108.743C107.943 215.105 107.243 214.405 107.243 213.605C107.243 212.805 107.943 212.105 108.743 212.105H129.543C130.343 212.105 131.043 212.805 131.043 213.605C131.043 214.405 130.343 215.105 129.543 215.105Z" fill="#B8D8C7"/>
<path d="M164.243 287.105H74.0425C71.7425 287.105 69.8425 285.205 69.8425 282.905V255.505C69.8425 253.205 71.7425 251.305 74.0425 251.305H164.243C166.543 251.305 168.443 253.205 168.443 255.505V282.905C168.543 285.205 166.643 287.105 164.243 287.105Z" stroke="#B8D8C7" stroke-width="1.8" stroke-miterlimit="10" stroke-linecap="round" stroke-linejoin="round"/>
<path d="M129.543 260.905H108.743C107.943 260.905 107.243 260.205 107.243 259.405C107.243 258.605 107.943 257.905 108.743 257.905H129.543C130.343 257.905 131.043 258.605 131.043 259.405C131.043 260.305 130.343 260.905 129.543 260.905Z" fill="#B8D8C7"/>
<path d="M627.443 319.405H537.242C534.942 319.405 533.042 317.505 533.042 315.205V287.805C533.042 285.505 534.942 283.605 537.242 283.605H627.443C629.743 283.605 631.642 285.505 631.642 287.805V315.205C631.742 317.505 629.843 319.405 627.443 319.405Z" stroke="#B8D8C7" stroke-width="1.8" stroke-miterlimit="10" stroke-linecap="round" stroke-linejoin="round"/>
<path d="M592.742 293.305H571.943C571.143 293.305 570.443 292.605 570.443 291.805C570.443 291.005 571.143 290.305 571.943 290.305H592.742C593.542 290.305 594.242 291.005 594.242 291.805C594.242 292.605 593.542 293.305 592.742 293.305Z" fill="#B8D8C7"/>
<path d="M511.642 319.405H421.442C419.142 319.405 417.242 317.505 417.242 315.205V287.805C417.242 285.505 419.142 283.605 421.442 283.605H511.642C513.942 283.605 515.842 285.505 515.842 287.805V315.205C515.842 317.505 513.942 319.405 511.642 319.405Z" stroke="#B8D8C7" stroke-width="1.8" stroke-miterlimit="10" stroke-linecap="round" stroke-linejoin="round"/>
<path d="M476.942 293.305H456.142C455.342 293.305 454.642 292.605 454.642 291.805C454.642 291.005 455.342 290.305 456.142 290.305H476.942C477.742 290.305 478.442 291.005 478.442 291.805C478.442 292.605 477.742 293.305 476.942 293.305Z" fill="#B8D8C7"/>
<path d="M49.2425 241.305H-40.9575C-43.2575 241.305 -45.1575 239.405 -45.1575 237.105V209.705C-45.1575 207.405 -43.2575 205.505 -40.9575 205.505H49.2425C51.5425 205.505 53.4425 207.405 53.4425 209.705V237.105C53.5425 239.405 51.6425 241.305 49.2425 241.305Z" stroke="#B8D8C7" stroke-width="1.8" stroke-miterlimit="10" stroke-linecap="round" stroke-linejoin="round"/>
<path d="M14.5426 215.105H-6.25745C-7.05745 215.105 -7.75745 214.405 -7.75745 213.605C-7.75745 212.805 -7.05745 212.105 -6.25745 212.105H14.5426C15.3426 212.105 16.0426 212.805 16.0426 213.605C16.0426 214.405 15.4426 215.105 14.5426 215.105Z" fill="#B8D8C7"/>
<path d="M49.2425 287.105H-40.9575C-43.2575 287.105 -45.1575 285.205 -45.1575 282.905V255.505C-45.1575 253.205 -43.2575 251.305 -40.9575 251.305H49.2425C51.5425 251.305 53.4425 253.205 53.4425 255.505V282.905C53.5425 285.205 51.6425 287.105 49.2425 287.105Z" stroke="#B8D8C7" stroke-width="1.8" stroke-miterlimit="10" stroke-linecap="round" stroke-linejoin="round"/>
<path d="M14.5426 260.905H-6.25745C-7.05745 260.905 -7.75745 260.205 -7.75745 259.405C-7.75745 258.605 -7.05745 257.905 -6.25745 257.905H14.5426C15.3426 257.905 16.0426 258.605 16.0426 259.405C16.0426 260.305 15.4426 260.905 14.5426 260.905Z" fill="#B8D8C7"/>
<path d="M758.743 171.905H303.743C301.243 171.905 299.143 169.805 299.143 167.305V87.6046C299.143 85.1046 301.243 83.0046 303.743 83.0046H758.743C761.243 83.0046 763.343 85.1046 763.343 87.6046V167.305C763.343 169.805 761.343 171.905 758.743 171.905Z" stroke="#B8D8C7" stroke-width="1.8" stroke-miterlimit="10" stroke-linecap="round" stroke-linejoin="round"/>
<path d="M758.743 270.805H303.743C301.243 270.805 299.143 268.705 299.143 266.205V186.505C299.143 184.005 301.243 181.905 303.743 181.905H758.743C761.243 181.905 763.343 184.005 763.343 186.505V266.205C763.343 268.805 761.343 270.805 758.743 270.805Z" stroke="#B8D8C7" stroke-width="1.8" stroke-miterlimit="10" stroke-linecap="round" stroke-linejoin="round"/>
<path d="M339.743 121.605H329.843V171.905H339.743V121.605Z" stroke="#B8D8C7" stroke-width="1.8" stroke-miterlimit="10" stroke-linecap="round" stroke-linejoin="round"/>
<path d="M349.943 135.305H339.642V171.905H349.943V135.305Z" stroke="#B8D8C7" stroke-width="1.8" stroke-miterlimit="10" stroke-linecap="round" stroke-linejoin="round"/>
<path d="M638.043 220.405H628.143V270.705H638.043V220.405Z" stroke="#B8D8C7" stroke-width="1.8" stroke-miterlimit="10" stroke-linecap="round" stroke-linejoin="round"/>
<path d="M648.342 234.105H638.042V270.705H648.342V234.105Z" stroke="#B8D8C7" stroke-width="1.8" stroke-miterlimit="10" stroke-linecap="round" stroke-linejoin="round"/>
<path d="M617.943 220.405H608.042V270.705H617.943V220.405Z" stroke="#B8D8C7" stroke-width="1.8" stroke-miterlimit="10" stroke-linecap="round" stroke-linejoin="round"/>
<path d="M608.181 222.278L598.74 219.297L583.595 267.263L593.036 270.244L608.181 222.278Z" stroke="#B8D8C7" stroke-width="1.8" stroke-miterlimit="10" stroke-linecap="round" stroke-linejoin="round"/>
<path d="M628.242 234.105H617.942V270.705H628.242V234.105Z" stroke="#B8D8C7" stroke-width="1.8" stroke-miterlimit="10" stroke-linecap="round" stroke-linejoin="round"/>
<path d="M504.542 121.605H494.642V171.905H504.542V121.605Z" stroke="#B8D8C7" stroke-width="1.8" stroke-miterlimit="10" stroke-linecap="round" stroke-linejoin="round"/>
<path d="M514.842 135.305H504.542V171.905H514.842V135.305Z" stroke="#B8D8C7" stroke-width="1.8" stroke-miterlimit="10" stroke-linecap="round" stroke-linejoin="round"/>
<path d="M406.743 121.605H396.843V171.905H406.743V121.605Z" stroke="#B8D8C7" stroke-width="1.8" stroke-miterlimit="10" stroke-linecap="round" stroke-linejoin="round"/>
<path d="M396.977 123.462L387.537 120.481L372.391 168.447L381.832 171.428L396.977 123.462Z" stroke="#B8D8C7" stroke-width="1.8" stroke-miterlimit="10" stroke-linecap="round" stroke-linejoin="round"/>
<path d="M417.042 135.305H406.742V171.905H417.042V135.305Z" stroke="#B8D8C7" stroke-width="1.8" stroke-miterlimit="10" stroke-linecap="round" stroke-linejoin="round"/>
<path d="M637.943 128.205L639.043 113.305C639.143 112.305 638.343 111.505 637.343 111.505H633.043H628.743C627.743 111.505 627.043 112.305 627.043 113.305L628.142 128.205C628.142 128.205 619.143 134.005 619.243 138.805C619.343 142.505 621.543 160.205 622.543 168.005C622.843 170.205 624.643 171.805 626.843 171.805H633.043H639.243C641.443 171.805 643.243 170.205 643.543 168.005C644.543 160.205 646.743 142.505 646.843 138.805C646.943 133.905 637.943 128.205 637.943 128.205Z" fill="#B8D8C7"/>
<path d="M598.042 128.205L599.142 113.305C599.242 112.305 598.442 111.505 597.442 111.505H593.142H588.842C587.842 111.505 587.142 112.305 587.142 113.305L588.242 128.205C588.242 128.205 579.242 134.005 579.342 138.805C579.442 142.505 581.642 160.205 582.642 168.005C582.942 170.205 584.742 171.805 586.942 171.805H593.142H599.342C601.542 171.805 603.342 170.205 603.642 168.005C604.642 160.205 606.842 142.505 606.942 138.805C607.042 133.905 598.042 128.205 598.042 128.205Z" fill="#B8D8C7"/>
<path d="M-1.25757 365.205H954.542" stroke="#B8D8C7" stroke-width="1.8" stroke-miterlimit="10" stroke-linecap="round" stroke-linejoin="round"/>
</g>
<path d="M211.664 173.525C191.464 186.325 169.964 185.325 164.664 172.525C159.964 161.325 169.964 144.925 186.264 135.025C202.264 125.225 221.064 123.725 229.364 132.325C238.664 142.025 231.364 160.925 211.664 173.525Z" fill="#172D39"/>
<path d="M209.164 169.425C188.964 182.225 167.464 181.225 162.164 168.425C157.464 157.225 167.464 140.825 183.764 130.925C199.764 121.125 218.564 119.625 226.864 128.225C236.164 137.925 228.864 156.825 209.164 169.425Z" fill="#45677C"/>
<path d="M203.464 160.925C191.364 168.525 178.164 168.325 174.464 160.825C170.964 153.925 177.064 143.425 187.664 136.925C198.164 130.525 210.264 129.725 215.164 135.525C220.364 141.825 215.464 153.325 203.464 160.925Z" fill="#599F75"/>
<path d="M198.364 153.125C193.564 156.125 188.264 156.125 186.564 153.325C184.964 150.525 187.264 146.125 191.864 143.325C196.364 140.525 201.464 140.325 203.364 142.925C205.264 145.525 203.064 150.125 198.364 153.125Z" fill="#F4C2C9"/>
<path d="M193.564 143.625C191.764 144.725 189.364 144.125 188.164 142.325L178.564 123.225C178.064 122.225 178.464 121.025 179.364 120.425C180.364 119.825 181.564 120.125 182.264 121.025L194.764 138.325C195.964 140.125 195.364 142.525 193.564 143.625Z" fill="#172D39"/>
<path d="M180.964 126.925L176.664 126.625C175.464 126.525 174.764 127.925 175.464 128.825C177.564 131.625 180.364 133.725 183.564 134.925L185.564 135.725C185.764 135.825 186.064 135.525 185.864 135.325L181.964 127.625C181.864 127.225 181.464 127.025 180.964 126.925Z" fill="#599F75"/>
<path d="M184.564 124.725L186.364 120.825C186.864 119.725 188.364 119.725 188.864 120.825C190.364 123.925 190.964 127.425 190.464 130.825L190.164 133.025C190.164 133.225 189.764 133.325 189.664 133.125L184.664 126.125C184.464 125.725 184.364 125.225 184.564 124.725Z" fill="#599F75"/>
<path d="M193.064 142.825L196.264 148.225" stroke="#172D39" stroke-width="1.8" stroke-miterlimit="10" stroke-linecap="round" stroke-linejoin="round"/>
<path d="M338.542 483.725C336.342 479.825 315.042 483.725 315.042 483.725C315.042 483.725 315.442 492.025 315.642 498.325C322.542 501.425 330.842 501.725 338.342 499.625C338.242 493.125 338.542 483.725 338.542 483.725Z" fill="#B28D93"/>
<path d="M315.543 498.325C315.643 501.225 315.643 503.625 315.643 504.625C315.643 505.825 314.243 508.025 313.743 511.425C313.343 513.925 313.743 517.325 313.243 520.325C312.743 523.925 312.143 527.525 311.843 530.925C310.943 540.825 316.043 541.925 321.743 542.625C327.443 543.225 346.343 543.825 346.943 538.325C347.543 532.825 342.143 522.625 340.943 517.925C339.743 513.225 339.043 507.925 338.443 504.825C338.343 503.925 338.243 502.025 338.243 499.625C330.743 501.725 322.443 501.325 315.543 498.325Z" fill="#45677C"/>
<path d="M347.043 538.225C346.443 543.725 327.543 543.125 321.843 542.525C316.143 541.925 311.043 540.725 311.943 530.825C312.243 527.525 312.743 523.825 313.343 520.225C313.843 517.225 313.343 513.825 313.843 511.325C314.243 508.625 315.243 506.725 315.643 505.425C316.043 508.025 318.043 508.825 318.243 514.525C318.543 520.425 317.943 523.425 324.843 521.525C333.943 519.025 337.443 522.125 339.343 520.625C340.943 519.225 340.343 514.425 340.243 513.525C340.543 514.925 340.843 516.425 341.143 517.825C342.143 522.525 347.643 532.825 347.043 538.225Z" fill="#172D39"/>
<path d="M335.943 492.725C336.743 492.525 337.643 492.225 338.443 491.925C338.543 487.525 338.643 483.625 338.643 483.625C336.443 479.725 315.143 483.625 315.143 483.625C315.143 483.625 315.243 486.625 315.443 490.425C321.643 492.825 328.743 494.325 335.943 492.725Z" fill="#896068"/>
<path d="M330.843 525.725C333.935 525.725 336.443 524.113 336.443 522.125C336.443 520.137 333.935 518.525 330.843 518.525C327.75 518.525 325.243 520.137 325.243 522.125C325.243 524.113 327.75 525.725 330.843 525.725Z" fill="white"/>
<path d="M373.142 500.825C373.642 504.725 373.942 508.125 373.742 509.025C373.242 511.125 371.642 519.925 370.342 523.725C369.042 527.525 361.642 538.325 366.542 541.625C371.442 545.025 396.442 542.925 399.142 540.625C401.842 538.325 400.943 531.925 399.943 523.725C398.943 515.525 395.942 507.125 395.942 505.925C395.942 505.525 395.842 502.425 395.742 498.625C388.942 502.025 381.042 503.325 373.142 500.825Z" fill="#45677C"/>
<path d="M371.343 488.225C371.343 488.225 372.443 495.025 373.143 500.825C381.043 503.325 388.943 502.025 395.743 498.625C395.443 491.425 395.043 481.425 394.643 480.825C394.143 479.925 373.543 479.525 371.343 488.225Z" fill="#B28D93"/>
<path d="M399.242 540.625C396.542 542.925 371.542 545.025 366.642 541.625C361.742 538.225 369.142 527.425 370.442 523.725C371.342 521.025 372.442 515.625 373.142 512.025C372.942 513.225 371.342 522.625 373.142 523.225C375.042 523.825 379.842 519.925 386.142 521.325C392.342 522.625 395.642 523.625 395.642 519.725C395.642 515.825 394.442 509.425 395.042 508.325C395.542 507.125 396.042 506.025 396.042 506.025C396.042 507.225 399.042 515.625 400.042 523.825C401.042 531.925 401.942 538.225 399.242 540.625Z" fill="#172D39"/>
<path d="M395.442 491.725C395.242 486.325 394.942 481.225 394.642 480.825C394.142 479.925 373.442 479.525 371.242 488.225C371.242 488.225 371.642 491.025 372.242 494.525C380.542 496.325 388.342 494.825 395.442 491.725Z" fill="#896068"/>
<path d="M381.642 526.825C384.735 526.825 387.242 525.213 387.242 523.225C387.242 521.237 384.735 519.625 381.642 519.625C378.55 519.625 376.042 521.237 376.042 523.225C376.042 525.213 378.55 526.825 381.642 526.825Z" fill="white"/>
<path d="M391.743 232.825C391.743 232.825 401.443 250.525 395.943 294.525C390.443 338.525 387.643 349.625 388.643 352.425C389.643 355.225 394.543 376.325 394.843 408.925C395.143 441.525 395.843 457.125 398.743 466.225C401.643 475.325 402.943 482.125 395.343 487.525C387.843 493.025 374.543 492.225 368.343 489.325C362.143 486.425 361.843 481.525 362.343 470.625C362.843 459.725 357.443 425.925 352.943 405.425C350.243 393.025 347.943 378.725 346.443 368.425C345.443 361.625 344.943 356.625 344.943 355.025C344.943 351.125 338.943 293.725 338.943 290.825C338.943 287.925 332.443 285.925 330.843 273.625C329.243 261.425 332.143 232.925 332.143 232.925C332.143 232.925 386.243 225.125 391.743 232.825Z" fill="#172D39"/>
<path d="M300.743 229.425C300.743 229.425 289.843 255.625 296.043 303.225C302.243 350.825 303.043 355.425 303.343 357.525C303.643 359.625 303.843 395.225 306.743 426.125C309.643 457.025 303.843 472.925 306.743 480.425C309.643 487.925 318.943 489.825 325.443 489.525C331.943 489.225 344.143 486.925 344.143 474.925C344.143 462.925 342.543 444.025 344.143 418.825C345.743 393.625 348.143 367.925 348.843 355.925C349.643 343.925 356.843 274.325 358.143 264.425C359.443 254.525 354.843 238.425 336.743 232.125C318.643 226.025 300.743 229.425 300.743 229.425Z" fill="#172D39"/>
<path d="M294.143 271.625C294.143 271.625 300.043 270.225 302.143 262.825C304.243 255.425 304.743 250.425 304.743 250.425" stroke="#63737A" stroke-width="1.8" stroke-miterlimit="10" stroke-linecap="round" stroke-linejoin="round"/>
<path d="M397.442 274.225C397.442 274.225 389.742 270.625 387.342 262.425C384.942 254.325 385.242 249.625 385.242 249.625" stroke="#63737A" stroke-width="1.8" stroke-miterlimit="10" stroke-linecap="round" stroke-linejoin="round"/>
<path d="M325.343 283.025C331.043 283.225 338.743 289.625 338.743 289.625C338.743 289.625 341.543 287.125 347.443 284.025" stroke="#63737A" stroke-width="1.8" stroke-miterlimit="10" stroke-linecap="round" stroke-linejoin="round"/>
<path d="M322.743 373.025C330.806 373.025 337.343 366.309 337.343 358.025C337.343 349.741 330.806 343.025 322.743 343.025C314.679 343.025 308.143 349.741 308.143 358.025C308.143 366.309 314.679 373.025 322.743 373.025Z" stroke="#63737A" stroke-width="1.8" stroke-miterlimit="10" stroke-linecap="round" stroke-linejoin="round"/>
<path d="M364.443 373.025C372.506 373.025 379.043 366.309 379.043 358.025C379.043 349.741 372.506 343.025 364.443 343.025C356.379 343.025 349.843 349.741 349.843 358.025C349.843 366.309 356.379 373.025 364.443 373.025Z" stroke="#63737A" stroke-width="1.8" stroke-miterlimit="10" stroke-linecap="round" stroke-linejoin="round"/>
<path d="M346.443 368.325C345.443 361.525 344.943 356.525 344.943 354.925C344.943 351.025 338.943 293.625 338.943 290.725C338.943 287.825 332.443 285.825 330.843 273.525" stroke="#63737A" stroke-width="1.8" stroke-miterlimit="10" stroke-linecap="round" stroke-linejoin="round"/>
<path d="M237.143 92.925C237.143 92.925 236.243 89.925 235.843 81.525C235.743 79.525 238.943 75.125 239.343 73.825C239.743 72.525 242.743 73.025 241.943 77.425C241.143 81.825 244.243 89.925 243.343 93.025C242.543 96.225 237.143 94.325 237.143 92.925Z" fill="#B28D93"/>
<path d="M228.943 66.225L255.943 122.025C256.743 123.725 258.443 124.825 260.343 124.725L300.843 124.025C302.643 124.025 303.743 122.225 303.043 120.525L279.243 64.525C278.443 62.725 276.643 61.525 274.743 61.625L231.143 62.625C229.343 62.725 228.143 64.525 228.943 66.225Z" fill="#172D39"/>
<path d="M244.343 58.525L259.343 57.925C260.643 57.925 261.843 58.725 262.243 60.025L262.843 62.025C263.043 62.625 262.543 63.325 261.943 63.325L243.843 63.825C243.343 63.825 242.943 63.425 242.843 63.025L242.543 60.825C242.343 59.625 243.243 58.525 244.343 58.525Z" fill="#599F75"/>
<path d="M283.743 157.825L280.343 160.625C280.343 160.625 275.843 146.425 271.743 136.725C267.743 127.025 265.043 114.725 265.143 113.325C265.243 111.925 266.443 107.925 263.743 103.725C261.143 99.625 257.943 98.025 257.943 98.025C257.943 98.025 260.243 96.925 264.543 95.125C268.843 93.225 266.843 91.325 264.243 91.625C261.743 91.925 255.143 92.825 255.143 92.825C255.143 92.825 258.343 90.325 260.243 88.825C262.143 87.325 266.143 85.725 265.143 84.125C264.243 82.725 260.043 84.225 258.143 84.825C256.243 85.425 249.543 88.725 249.543 88.725C249.543 88.725 253.543 84.025 255.343 81.725C257.143 79.425 261.943 77.225 261.343 74.925C260.743 72.625 254.843 75.925 252.043 77.625C249.243 79.325 243.943 84.725 243.943 84.725C243.943 84.725 244.143 79.525 244.343 77.225C244.543 74.925 245.943 69.125 244.243 67.725C242.043 65.925 240.843 71.525 239.743 76.225C238.643 80.925 236.043 90.425 236.643 93.225C237.243 96.025 240.643 99.425 243.543 103.225C246.443 107.025 249.543 111.525 250.043 112.825C250.543 114.225 254.243 174.025 257.543 182.225C260.843 190.425 268.443 204.525 300.043 179.525C300.043 179.525 302.943 162.025 297.143 157.325C291.243 152.825 283.743 157.825 283.743 157.825Z" fill="#B28D93"/>
<path d="M322.443 125.725C322.443 125.725 314.743 127.125 305.043 137.525C295.343 147.925 283.743 157.825 283.743 157.825C283.743 157.825 292.743 177.825 298.143 183.825C298.143 183.825 317.043 171.225 324.443 163.825C331.943 156.425 333.143 128.325 322.443 125.725Z" fill="#599F75"/>
<path d="M287.743 154.325C287.743 154.325 294.043 169.525 302.443 180.825" stroke="#172D39" stroke-width="1.8" stroke-miterlimit="10" stroke-linecap="round" stroke-linejoin="round"/>
<path d="M280.343 160.625C280.343 160.625 281.843 164.225 283.143 169.425" stroke="#896068" stroke-width="1.8" stroke-miterlimit="10" stroke-linecap="round" stroke-linejoin="round"/>
<path d="M255.143 92.825C255.143 92.825 254.143 93.025 252.943 93.425C252.343 93.625 251.343 94.025 250.743 94.625" stroke="#896068" stroke-width="1.8" stroke-miterlimit="10" stroke-linecap="round" stroke-linejoin="round"/>
<path d="M257.842 98.025C257.842 98.025 256.442 98.725 256.042 99.125" stroke="#896068" stroke-width="1.8" stroke-miterlimit="10" stroke-linecap="round" stroke-linejoin="round"/>
<path d="M249.543 88.725C249.543 88.725 247.843 89.825 247.243 90.825" stroke="#896068" stroke-width="1.8" stroke-miterlimit="10" stroke-linecap="round" stroke-linejoin="round"/>
<path d="M243.943 84.825C243.943 84.825 242.343 85.925 241.643 86.825" stroke="#896068" stroke-width="1.8" stroke-miterlimit="10" stroke-linecap="round" stroke-linejoin="round"/>
<path d="M250.243 114.125C250.243 114.125 254.143 119.025 265.443 115.325C265.443 115.325 266.643 119.825 266.743 121.025C266.743 121.025 257.342 124.825 250.842 120.225C250.742 120.225 250.143 115.125 250.243 114.125Z" fill="#172D39"/>
<path d="M255.192 123.004C256.816 122.672 257.709 120.341 257.189 117.798C256.668 115.255 254.93 113.463 253.307 113.795C251.684 114.128 250.79 116.459 251.31 119.002C251.831 121.545 253.569 123.337 255.192 123.004Z" fill="white"/>
<path d="M318.442 128.325C321.242 126.125 324.042 123.425 348.842 122.625C377.342 121.725 390.942 125.125 394.842 141.425C398.742 157.825 382.342 195.725 382.342 200.125C382.342 204.525 392.642 225.925 393.842 235.625C393.842 235.625 379.942 250.925 344.842 250.425C309.742 249.925 298.042 235.625 298.042 231.925C298.042 228.225 310.242 207.125 311.542 197.825C312.842 188.425 300.642 176.725 301.142 164.825C301.642 152.825 312.042 142.725 312.642 140.125C314.042 135.325 315.442 130.625 318.442 128.325Z" fill="#45677C"/>
<path d="M331.742 132.425C331.742 132.425 331.642 152.425 340.242 166.625C340.242 166.625 355.342 151.225 360.542 135.625C360.542 135.625 348.742 139.425 341.742 136.925C334.742 134.325 331.742 132.425 331.742 132.425Z" fill="#599F75"/>
<path d="M339.243 119.925C339.243 119.925 333.743 121.525 330.842 128.225C327.942 135.025 329.043 144.925 331.643 144.825C334.243 144.725 344.243 137.625 344.243 137.625C344.243 137.625 343.743 120.725 339.243 119.925Z" fill="white"/>
<path d="M344.143 137.725C344.143 137.725 346.743 141.125 349.643 144.925C352.543 148.725 355.343 152.925 362.543 141.325C369.743 129.725 365.143 121.825 360.943 119.925C356.643 118.125 343.543 134.025 344.143 137.725Z" fill="white"/>
<path d="M339.243 112.225C339.243 112.225 338.843 120.525 337.843 126.125C336.843 131.725 338.443 136.825 344.143 137.725C349.843 138.625 361.543 132.425 362.243 123.925C362.243 123.925 361.243 103.825 362.943 97.525C364.643 91.325 339.543 107.825 339.243 112.225Z" fill="#B28D93"/>
<path d="M356.943 111.925C353.243 117.825 345.642 118.325 338.842 118.425C338.642 120.625 338.342 123.025 338.042 125.125C346.642 124.725 355.143 120.325 356.943 111.925Z" fill="#896068"/>
<path d="M392.243 228.725C365.443 246.225 324.243 248.425 299.943 226.625" stroke="#DBB146" stroke-width="1.8" stroke-miterlimit="10" stroke-linecap="round" stroke-linejoin="round"/>
<path d="M340.243 166.625C340.243 166.625 332.443 176.925 330.443 183.825" stroke="#DBB146" stroke-width="1.8" stroke-miterlimit="10" stroke-linecap="round" stroke-linejoin="round"/>
<path d="M341.343 176.825C342.226 176.825 342.943 176.109 342.943 175.225C342.943 174.341 342.226 173.625 341.343 173.625C340.459 173.625 339.743 174.341 339.743 175.225C339.743 176.109 340.459 176.825 341.343 176.825Z" fill="#DBB146"/>
<path d="M337.743 184.625C338.626 184.625 339.343 183.909 339.343 183.025C339.343 182.141 338.626 181.425 337.743 181.425C336.859 181.425 336.143 182.141 336.143 183.025C336.143 183.909 336.859 184.625 337.743 184.625Z" fill="#DBB146"/>
<path d="M408.443 157.325C408.443 157.325 415.943 174.425 419.643 187.525C423.243 200.625 419.543 208.725 411.443 212.625C403.343 216.525 396.943 206.525 384.843 176.225C384.843 176.325 402.943 152.125 408.443 157.325Z" fill="#B28D93"/>
<path d="M399.243 206.725C399.243 206.725 404.243 216.925 415.543 215.825C426.843 214.825 454.143 207.025 459.343 202.625C464.643 198.325 462.043 186.525 457.143 186.025C452.243 185.525 437.843 187.025 429.643 187.125C425.543 187.125 422.343 187.325 419.343 187.925C417.943 188.225 416.643 188.625 415.443 189.125C414.043 189.725 412.643 190.525 411.243 191.525C406.243 195.325 399.243 206.725 399.243 206.725Z" fill="#B28D93"/>
<path d="M419.543 188.025C418.143 188.325 416.843 188.725 415.643 189.225C414.243 189.825 412.843 190.625 411.443 191.625" stroke="#896068" stroke-width="1.8" stroke-miterlimit="10" stroke-linecap="round" stroke-linejoin="round"/>
<path d="M373.143 134.325C375.243 128.925 381.343 125.425 386.243 127.325C390.243 128.925 395.343 131.925 399.443 137.825C407.143 149.125 414.643 169.525 414.643 169.525C414.643 169.525 406.643 175.125 386.143 182.225C386.143 182.225 379.743 171.525 376.143 162.825C373.743 157.125 369.643 143.525 373.143 134.325Z" fill="#599F75"/>
<path d="M383.943 176.925C383.943 176.925 399.343 173.025 412.343 163.925" stroke="#172D39" stroke-width="1.8" stroke-miterlimit="10" stroke-linecap="round" stroke-linejoin="round"/>
<path d="M425.543 191.425L493.343 184.525C495.043 184.325 496.543 185.525 496.743 187.225L503.643 241.225C503.843 242.825 502.843 244.325 501.243 244.625L435.043 258.925C433.243 259.325 431.543 258.125 431.343 256.325L422.843 195.025C422.543 193.225 423.743 191.625 425.543 191.425Z" fill="#599F75"/>
<path d="M441.343 212.325L486.643 205.825C487.743 205.625 488.643 206.425 488.843 207.425L493.243 233.425C493.443 234.425 492.743 235.425 491.743 235.625L446.043 244.925C444.943 245.125 443.843 244.425 443.743 243.325L439.643 214.625C439.543 213.525 440.243 212.525 441.343 212.325Z" stroke="#172D39" stroke-width="1.8" stroke-miterlimit="10" stroke-linecap="round" stroke-linejoin="round"/>
<path d="M478.743 206.925L484.043 237.225" stroke="#172D39" stroke-width="1.8" stroke-miterlimit="10" stroke-linecap="round" stroke-linejoin="round"/>
<path d="M448.343 219.525L471.643 215.925" stroke="#172D39" stroke-width="1.8" stroke-miterlimit="10" stroke-linecap="round" stroke-linejoin="round"/>
<path d="M450.343 227.725L473.643 223.225" stroke="#172D39" stroke-width="1.8" stroke-miterlimit="10" stroke-linecap="round" stroke-linejoin="round"/>
<path d="M451.943 235.525L475.243 231.025" stroke="#172D39" stroke-width="1.8" stroke-miterlimit="10" stroke-linecap="round" stroke-linejoin="round"/>
<path d="M483.343 213.225L484.843 214.325L486.543 211.125" stroke="#172D39" stroke-width="1.8" stroke-miterlimit="10" stroke-linecap="round" stroke-linejoin="round"/>
<path d="M484.643 220.025L486.143 221.125L487.943 218.025" stroke="#172D39" stroke-width="1.8" stroke-miterlimit="10" stroke-linecap="round" stroke-linejoin="round"/>
<path d="M485.943 227.325L487.443 228.425L489.143 225.325" stroke="#172D39" stroke-width="1.8" stroke-miterlimit="10" stroke-linecap="round" stroke-linejoin="round"/>
<path d="M438.243 202.525L437.843 200.025C437.743 199.325 438.243 198.625 439.043 198.525L449.543 197.325C450.243 197.225 450.943 197.725 451.043 198.425L451.343 200.625C451.443 201.325 450.943 202.025 450.243 202.125L439.843 203.525C439.043 203.725 438.343 203.225 438.243 202.525Z" fill="#45677C"/>
<path d="M477.943 184.225C476.443 182.625 475.642 182.025 469.842 181.625C467.842 181.525 464.242 181.725 461.342 181.825C459.942 181.825 459.042 181.525 458.042 181.625C455.042 182.125 451.542 185.625 449.842 186.825C448.042 188.025 445.042 189.525 445.042 189.525L454.943 188.525C455.543 188.425 456.143 188.725 456.443 189.325C456.943 190.325 457.842 192.125 458.642 194.525C459.842 198.325 461.142 203.125 462.842 201.925C463.842 201.225 463.842 198.025 463.542 195.825C463.542 196.125 463.642 196.325 463.642 196.625C463.942 200.425 463.342 206.125 465.542 206.225C467.542 206.325 467.842 203.925 467.842 203.925C467.842 203.925 468.242 205.325 469.742 204.825C471.342 204.225 473.642 199.325 474.342 196.425C474.442 197.725 474.142 198.225 475.042 198.525C476.942 199.125 478.443 193.025 478.943 188.625C479.243 185.825 478.743 185.025 477.943 184.225Z" fill="#B28D93"/>
<path d="M467.743 203.825C467.743 203.825 468.743 198.625 469.143 196.525C469.543 194.425 469.443 188.625 469.143 187.525C468.843 186.325 468.143 185.025 468.143 185.025" stroke="#896068" stroke-width="1.8" stroke-miterlimit="10" stroke-linecap="round" stroke-linejoin="round"/>
<path d="M474.343 196.325C474.343 196.325 475.643 190.425 475.643 188.125C475.643 188.125 475.443 185.425 475.143 185.025" stroke="#896068" stroke-width="1.8" stroke-miterlimit="10" stroke-linecap="round" stroke-linejoin="round"/>
<path d="M463.643 197.925C463.643 197.925 463.843 194.125 463.643 192.525C463.443 190.925 461.943 186.125 461.743 186.025" stroke="#896068" stroke-width="1.8" stroke-miterlimit="10" stroke-linecap="round" stroke-linejoin="round"/>
<path d="M379.843 72.925C379.843 66.925 375.743 61.825 370.243 60.325C369.643 53.725 364.043 48.525 357.243 48.525C355.643 48.525 354.043 48.825 352.643 49.425C350.243 46.725 346.743 44.925 342.843 44.925C338.243 44.925 334.243 47.225 331.943 50.825C331.543 50.825 331.143 50.725 330.743 50.725C323.543 50.725 317.743 56.525 317.743 63.725C317.743 66.525 318.643 69.125 320.143 71.225C319.343 72.925 318.843 74.825 318.843 76.825C318.843 84.025 324.643 89.825 331.843 89.825C339.043 89.825 344.843 84.025 344.843 76.825C344.843 74.725 344.343 72.725 343.443 71.025C344.843 70.925 346.143 70.625 347.443 70.225C349.143 72.125 351.343 73.525 353.843 74.225C354.043 76.125 354.643 77.825 355.443 79.425C353.943 81.525 353.043 84.125 353.043 86.925C353.043 94.125 358.843 99.925 366.043 99.925C373.243 99.925 379.043 94.125 379.043 86.925C379.043 84.625 378.443 82.425 377.343 80.525C379.043 78.225 379.843 75.725 379.843 72.925Z" fill="#172D39"/>
<path d="M343.543 67.325C334.743 67.225 327.443 74.025 326.843 82.725C326.543 86.625 326.143 92.025 325.443 96.525C324.243 104.325 325.443 115.925 337.743 118.725C350.043 121.525 362.043 109.725 364.743 99.525C367.543 89.325 369.743 74.425 355.243 69.525C351.043 68.125 347.043 67.425 343.543 67.325Z" fill="#B28D93"/>
<path d="M360.843 94.625C360.843 94.625 358.943 93.025 358.343 86.525C358.243 85.725 357.643 85.025 356.843 84.825C354.643 84.325 350.643 82.025 349.243 72.925C349.243 72.925 343.643 76.925 336.643 78.625C329.843 80.225 325.543 74.025 323.343 70.825C319.443 65.125 319.943 63.725 321.743 61.525C330.643 50.525 346.443 55.125 349.343 56.125C352.243 57.125 362.543 56.325 369.643 63.925C376.743 71.525 375.143 82.425 373.243 89.125C371.443 95.825 361.843 107.725 361.843 108.625C361.843 109.525 360.843 94.625 360.843 94.625Z" fill="#172D39"/>
<path d="M359.443 95.125C359.443 95.125 361.343 90.125 365.643 90.825C369.043 91.325 369.743 103.025 361.443 104.725" fill="#B28D93"/>
<path d="M333.542 89.725C333.642 90.825 333.242 91.925 332.742 92.925C332.442 93.425 332.142 93.825 331.742 94.325C331.542 94.525 331.442 94.725 331.342 94.825C331.242 95.025 331.142 95.125 331.042 95.325C330.742 95.925 330.842 96.625 331.242 97.425C331.642 98.225 332.342 98.925 333.242 99.625C332.142 99.625 331.042 99.125 330.142 98.325C329.742 97.925 329.342 97.325 329.242 96.625C329.042 95.925 329.142 95.225 329.442 94.525C329.542 94.225 329.742 93.925 329.942 93.625C330.142 93.425 330.442 93.125 330.542 93.025C330.942 92.725 331.242 92.325 331.642 92.025C332.242 91.325 332.842 90.625 333.542 89.725Z" fill="#172D39"/>
<path d="M340.042 106.725C341.942 106.425 344.542 105.425 345.642 102.625" stroke="#172D39" stroke-width="1.8" stroke-miterlimit="10" stroke-linecap="round" stroke-linejoin="round"/>
<path d="M344.043 84.025C343.443 83.325 343.443 81.525 344.643 81.125C345.843 80.625 349.043 81.125 351.143 83.825C353.243 86.425 349.043 84.425 347.843 84.225C346.643 84.025 344.543 84.525 344.043 84.025Z" fill="#172D39"/>
<path d="M332.143 83.125C332.743 83.325 333.343 83.025 333.543 82.425C333.743 81.625 333.743 81.025 333.343 80.525C332.843 79.825 328.743 80.325 328.043 82.225C327.543 83.525 330.143 82.425 331.043 82.725C331.343 82.725 331.743 82.925 332.143 83.125Z" fill="#172D39"/>
<path d="M331.143 89.525C331.243 88.625 330.643 87.825 329.743 87.725C328.843 87.625 328.043 88.225 327.943 89.125V89.525L331.143 89.925V89.525Z" fill="#172D39"/>
<path d="M346.642 91.425C346.742 90.525 346.142 89.725 345.242 89.625C344.342 89.525 343.543 90.125 343.443 91.025V91.325L346.642 91.725V91.425Z" fill="#172D39"/>
<path d="M366.142 95.325C365.842 95.125 365.442 95.025 365.242 95.025C365.042 95.025 364.942 95.225 364.742 95.325L364.642 95.425V95.525C364.642 95.625 364.642 95.625 364.642 95.725C364.642 95.925 364.642 96.225 364.642 96.525C364.642 97.225 364.742 97.925 364.542 98.825C364.442 99.225 364.142 99.725 363.742 100.025C363.342 100.325 362.843 100.325 362.443 100.225C362.743 99.925 363.042 99.725 363.042 99.425C363.142 99.225 363.142 98.925 363.042 98.625C362.942 98.125 362.842 97.425 362.742 96.625C362.742 96.225 362.742 95.825 362.842 95.325C362.942 95.125 363.042 94.825 363.242 94.525C363.342 94.425 363.442 94.325 363.642 94.225L363.943 94.025C364.343 93.825 365.043 93.725 365.443 94.025C366.043 94.525 366.142 94.925 366.142 95.325Z" fill="#172D39"/>
<path d="M331.752 90.8935C332.212 86.5549 329.869 82.7499 326.519 82.3948C323.168 82.0397 320.08 85.269 319.62 89.6076C319.16 93.9462 321.503 97.7512 324.853 98.1063C328.203 98.4614 331.292 95.2321 331.752 90.8935Z" stroke="#172D39" stroke-width="1.8" stroke-miterlimit="10" stroke-linecap="round" stroke-linejoin="round"/>
<path d="M353.768 92.6278C354.228 88.2892 351.485 84.4417 347.64 84.0342C343.796 83.6267 340.307 86.8136 339.847 91.1522C339.387 95.4908 342.13 99.3383 345.975 99.7457C349.819 100.153 353.308 96.9664 353.768 92.6278Z" stroke="#172D39" stroke-width="1.8" stroke-miterlimit="10" stroke-linecap="round" stroke-linejoin="round"/>
<path d="M331.843 89.825C331.843 89.825 333.843 88.225 339.943 90.725" stroke="#172D39" stroke-width="1.8" stroke-miterlimit="10" stroke-linecap="round" stroke-linejoin="round"/>
<path d="M353.742 91.925L360.842 92.925" stroke="#172D39" stroke-width="1.8" stroke-miterlimit="10" stroke-linecap="round" stroke-linejoin="round"/>
<path d="M246.943 251.025C245.743 251.025 250.943 238.825 256.243 240.525C261.543 242.125 253.643 251.025 246.943 251.025Z" fill="#599F75"/>
<path d="M247.543 252.625C247.543 252.625 241.743 245.425 236.043 247.025C230.343 248.725 237.443 256.925 247.543 252.625Z" fill="#599F75"/>
<path d="M245.842 245.425C245.842 245.425 254.442 230.625 250.742 227.125C244.342 220.825 236.242 239.425 245.842 245.425Z" fill="#599F75"/>
<path d="M260.243 279.025L247.643 281.825C244.143 282.625 240.543 280.725 239.143 277.425L233.443 263.625C232.343 260.925 233.943 257.925 236.743 257.325L259.543 252.225C262.343 251.625 265.043 253.625 265.243 256.525L265.943 271.425C266.143 275.025 263.743 278.225 260.243 279.025Z" fill="#172D39"/>
<path d="M248.343 255.725C248.343 255.725 244.343 243.625 245.843 237.925" stroke="#172D39" stroke-width="1.8" stroke-miterlimit="10" stroke-linecap="round" stroke-linejoin="round"/>
<path d="M418.284 62.864C418.284 60.7021 416.577 58.9954 414.415 58.9954C412.253 58.9954 410.547 60.7021 410.547 62.864C410.547 65.0259 412.253 66.7327 414.415 66.7327C416.577 66.7327 418.284 65.0259 418.284 62.864Z" fill="#172D39"/>
<path d="M436.945 20.8777C437.4 27.4772 435.01 33.5077 431.028 37.8315C426.704 42.4967 424.315 48.641 424.315 55.0129V58.9954C424.315 61.1573 422.494 62.9778 420.332 62.9778H408.726C406.564 62.9778 404.744 61.1573 404.744 58.9954V55.0129C404.744 48.641 402.354 42.4967 398.031 37.9453C394.276 33.9629 392 28.5012 392 22.5845C392 9.61307 403.037 -0.855075 416.122 0.0551981C427.159 0.737903 436.148 9.72685 436.945 20.8777Z" fill="#FFE779"/>
<path d="M404.63 55.0129H424.201" stroke="#172D39" stroke-width="1.8" stroke-miterlimit="10" stroke-linecap="round" stroke-linejoin="round"/>
<path d="M404.63 58.8816H424.201" stroke="#172D39" stroke-width="1.8" stroke-miterlimit="10" stroke-linecap="round" stroke-linejoin="round"/>
<path d="M412.368 55.0129V23.8361C412.368 20.9915 409.182 19.2847 406.792 20.8777C404.972 22.1293 404.744 24.8601 406.451 26.4531L407.816 27.7047" stroke="#172D39" stroke-width="1.8" stroke-miterlimit="10" stroke-linecap="round" stroke-linejoin="round"/>
<path d="M416.464 55.0129V23.8361C416.464 20.9915 419.65 19.2847 422.039 20.8777C423.86 22.1293 424.087 24.8601 422.381 26.4531L421.015 27.7047" stroke="#172D39" stroke-width="1.8" stroke-miterlimit="10" stroke-linecap="round" stroke-linejoin="round"/>
</g>
</svg>
