<svg width="696" height="556" viewBox="0 0 696 556" fill="none" xmlns="http://www.w3.org/2000/svg">
<g opacity="0.9">
<path d="M602.9 454.614L82.9 439.714C58.7 439.014 38.8 420.514 36.4 396.414L11.3 148.414C8.49998 120.314 30.3 95.8138 58.5 95.4138L637.3 87.4138C666.5 87.0138 689.4 112.514 685.8 141.514L652.1 412.514C649 437.114 627.7 455.414 602.9 454.614Z" fill="#EAEAEA"/>
<mask id="mask0_355_12" style="mask-type:alpha" maskUnits="userSpaceOnUse" x="11" y="87" width="676" height="368">
<path d="M602.9 454.614L82.9 439.714C58.7 439.014 38.8 420.514 36.4 396.414L11.3 148.414C8.49998 120.314 30.3 95.8138 58.5 95.4138L637.3 87.4138C666.5 87.0138 689.4 112.514 685.8 141.514L652.1 412.514C649 437.114 627.7 455.414 602.9 454.614Z" fill="#EAF9F3"/>
</mask>
<g mask="url(#mask0_355_12)">
<path d="M178.5 499.714H-237C-245.3 499.714 -252 493.014 -252 484.714V249.014C-252 240.714 -245.3 234.014 -237 234.014H178.5C186.8 234.014 193.5 240.714 193.5 249.014V484.614C193.5 492.914 186.8 499.714 178.5 499.714Z" stroke="#B8D8C7" stroke-width="1.8" stroke-miterlimit="10" stroke-linecap="round" stroke-linejoin="round"/>
<path d="M727.6 483.814H308.5C300.2 483.814 293.5 477.114 293.5 468.814V124.514C293.5 116.214 300.2 109.514 308.5 109.514H727.6C735.9 109.514 742.6 116.214 742.6 124.514V468.814C742.6 477.114 735.9 483.814 727.6 483.814Z" stroke="#B8D8C7" stroke-width="1.8" stroke-miterlimit="10" stroke-linecap="round" stroke-linejoin="round"/>
<path d="M63.7 234.014H43.4C41.2 234.014 39.4 232.414 39.1 230.214L37.5 215.814C37.2 213.314 39.2 211.014 41.8 211.014H65.3C67.9 211.014 69.8 213.214 69.6 215.814L68 230.214C67.7 232.414 65.9 234.014 63.7 234.014Z" stroke="#B8D8C7" stroke-width="1.8" stroke-miterlimit="10" stroke-linecap="round" stroke-linejoin="round"/>
<path d="M51.1 211.114C51.1 211.114 43.1 210.314 41.5 199.514C41.5 199.514 48.7 201.614 51 206.714C51 206.714 52 195.314 57.4 194.214C57.4 194.214 59.8 202.714 56 206.914C56 206.914 58.9 202.114 66.3 202.214C66.3 202.214 64.4 209.014 57.1 211.014" fill="#B8D8C7"/>
<path d="M175.4 283.714H85.2C82.9 283.714 81 281.814 81 279.514V252.114C81 249.814 82.9 247.914 85.2 247.914H175.4C177.7 247.914 179.6 249.814 179.6 252.114V279.514C179.6 281.814 177.7 283.714 175.4 283.714Z" stroke="#B8D8C7" stroke-width="1.8" stroke-miterlimit="10" stroke-linecap="round" stroke-linejoin="round"/>
<path d="M140.6 257.614H119.8C119 257.614 118.3 256.914 118.3 256.114C118.3 255.314 119 254.614 119.8 254.614H140.6C141.4 254.614 142.1 255.314 142.1 256.114C142.1 256.914 141.5 257.614 140.6 257.614Z" fill="#B8D8C7"/>
<path d="M175.4 329.514H85.2C82.9 329.514 81 327.614 81 325.314V297.914C81 295.614 82.9 293.714 85.2 293.714H175.4C177.7 293.714 179.6 295.614 179.6 297.914V325.314C179.6 327.614 177.7 329.514 175.4 329.514Z" stroke="#B8D8C7" stroke-width="1.8" stroke-miterlimit="10" stroke-linecap="round" stroke-linejoin="round"/>
<path d="M140.6 303.414H119.8C119 303.414 118.3 302.714 118.3 301.914C118.3 301.114 119 300.414 119.8 300.414H140.6C141.4 300.414 142.1 301.114 142.1 301.914C142.1 302.714 141.5 303.414 140.6 303.414Z" fill="#B8D8C7"/>
<path d="M638.5 361.914H548.3C546 361.914 544.1 360.014 544.1 357.714V330.314C544.1 328.014 546 326.114 548.3 326.114H638.5C640.8 326.114 642.7 328.014 642.7 330.314V357.714C642.8 360.014 640.9 361.914 638.5 361.914Z" stroke="#B8D8C7" stroke-width="1.8" stroke-miterlimit="10" stroke-linecap="round" stroke-linejoin="round"/>
<path d="M603.8 335.714H583C582.2 335.714 581.5 335.014 581.5 334.214C581.5 333.414 582.2 332.714 583 332.714H603.8C604.6 332.714 605.3 333.414 605.3 334.214C605.3 335.114 604.6 335.714 603.8 335.714Z" fill="#B8D8C7"/>
<path d="M522.7 361.914H432.5C430.2 361.914 428.3 360.014 428.3 357.714V330.314C428.3 328.014 430.2 326.114 432.5 326.114H522.7C525 326.114 526.9 328.014 526.9 330.314V357.714C527 360.014 525.1 361.914 522.7 361.914Z" stroke="#B8D8C7" stroke-width="1.8" stroke-miterlimit="10" stroke-linecap="round" stroke-linejoin="round"/>
<path d="M488 335.714H467.2C466.4 335.714 465.7 335.014 465.7 334.214C465.7 333.414 466.4 332.714 467.2 332.714H488C488.8 332.714 489.5 333.414 489.5 334.214C489.5 335.114 488.8 335.714 488 335.714Z" fill="#B8D8C7"/>
<path d="M60.4 283.714H-29.8C-32.1 283.714 -34 281.814 -34 279.514V252.114C-34 249.814 -32.1 247.914 -29.8 247.914H60.4C62.7 247.914 64.6 249.814 64.6 252.114V279.514C64.6 281.814 62.7 283.714 60.4 283.714Z" stroke="#B8D8C7" stroke-width="1.8" stroke-miterlimit="10" stroke-linecap="round" stroke-linejoin="round"/>
<path d="M25.6 257.614H4.79999C3.99999 257.614 3.29999 256.914 3.29999 256.114C3.29999 255.314 3.99999 254.614 4.79999 254.614H25.6C26.4 254.614 27.1 255.314 27.1 256.114C27.1 256.914 26.5 257.614 25.6 257.614Z" fill="#B8D8C7"/>
<path d="M60.4 329.514H-29.8C-32.1 329.514 -34 327.614 -34 325.314V297.914C-34 295.614 -32.1 293.714 -29.8 293.714H60.4C62.7 293.714 64.6 295.614 64.6 297.914V325.314C64.6 327.614 62.7 329.514 60.4 329.514Z" stroke="#B8D8C7" stroke-width="1.8" stroke-miterlimit="10" stroke-linecap="round" stroke-linejoin="round"/>
<path d="M25.6 303.414H4.79999C3.99999 303.414 3.29999 302.714 3.29999 301.914C3.29999 301.114 3.99999 300.414 4.79999 300.414H25.6C26.4 300.414 27.1 301.114 27.1 301.914C27.1 302.714 26.5 303.414 25.6 303.414Z" fill="#B8D8C7"/>
<path d="M769.9 214.414H314.9C312.4 214.414 310.3 212.314 310.3 209.814V130.114C310.3 127.614 312.4 125.514 314.9 125.514H769.9C772.4 125.514 774.5 127.614 774.5 130.114V209.814C774.5 212.314 772.4 214.414 769.9 214.414Z" stroke="#B8D8C7" stroke-width="1.8" stroke-miterlimit="10" stroke-linecap="round" stroke-linejoin="round"/>
<path d="M769.9 313.314H314.9C312.4 313.314 310.3 311.214 310.3 308.714V229.014C310.3 226.514 312.4 224.414 314.9 224.414H769.9C772.4 224.414 774.5 226.514 774.5 229.014V308.714C774.5 311.214 772.4 313.314 769.9 313.314Z" stroke="#B8D8C7" stroke-width="1.8" stroke-miterlimit="10" stroke-linecap="round" stroke-linejoin="round"/>
<path d="M350.8 164.114H340.9V214.414H350.8V164.114Z" stroke="#B8D8C7" stroke-width="1.8" stroke-miterlimit="10" stroke-linecap="round" stroke-linejoin="round"/>
<path d="M361 177.814H350.7V214.414H361V177.814Z" stroke="#B8D8C7" stroke-width="1.8" stroke-miterlimit="10" stroke-linecap="round" stroke-linejoin="round"/>
<path d="M649.2 262.914H639.3V313.214H649.2V262.914Z" stroke="#B8D8C7" stroke-width="1.8" stroke-miterlimit="10" stroke-linecap="round" stroke-linejoin="round"/>
<path d="M659.4 276.614H649.1V313.214H659.4V276.614Z" stroke="#B8D8C7" stroke-width="1.8" stroke-miterlimit="10" stroke-linecap="round" stroke-linejoin="round"/>
<path d="M629 262.914H619.1V313.214H629V262.914Z" stroke="#B8D8C7" stroke-width="1.8" stroke-miterlimit="10" stroke-linecap="round" stroke-linejoin="round"/>
<path d="M619.233 264.776L609.792 261.795L594.647 309.761L604.088 312.742L619.233 264.776Z" stroke="#B8D8C7" stroke-width="1.8" stroke-miterlimit="10" stroke-linecap="round" stroke-linejoin="round"/>
<path d="M639.3 276.614H629V313.214H639.3V276.614Z" stroke="#B8D8C7" stroke-width="1.8" stroke-miterlimit="10" stroke-linecap="round" stroke-linejoin="round"/>
<path d="M515.6 164.114H505.7V214.414H515.6V164.114Z" stroke="#B8D8C7" stroke-width="1.8" stroke-miterlimit="10" stroke-linecap="round" stroke-linejoin="round"/>
<path d="M525.9 177.814H515.6V214.414H525.9V177.814Z" stroke="#B8D8C7" stroke-width="1.8" stroke-miterlimit="10" stroke-linecap="round" stroke-linejoin="round"/>
<path d="M417.9 164.114H408V214.414H417.9V164.114Z" stroke="#B8D8C7" stroke-width="1.8" stroke-miterlimit="10" stroke-linecap="round" stroke-linejoin="round"/>
<path d="M408.154 165.895L398.713 162.914L383.568 210.88L393.009 213.861L408.154 165.895Z" stroke="#B8D8C7" stroke-width="1.8" stroke-miterlimit="10" stroke-linecap="round" stroke-linejoin="round"/>
<path d="M428.1 177.814H417.8V214.414H428.1V177.814Z" stroke="#B8D8C7" stroke-width="1.8" stroke-miterlimit="10" stroke-linecap="round" stroke-linejoin="round"/>
<path d="M649 170.614L650.1 155.714C650.2 154.714 649.4 153.914 648.4 153.914H644.1H639.8C638.8 153.914 638.1 154.714 638.1 155.714L639.2 170.614C639.2 170.614 630.2 176.414 630.3 181.214C630.4 184.914 632.6 202.614 633.6 210.414C633.9 212.614 635.7 214.214 637.9 214.214H644.1H650.3C652.5 214.214 654.3 212.614 654.6 210.414C655.6 202.614 657.8 184.914 657.9 181.214C658 176.414 649 170.614 649 170.614Z" fill="#B8D8C7"/>
<path d="M609.2 170.614L610.3 155.714C610.4 154.714 609.6 153.914 608.6 153.914H604.3H600C599 153.914 598.3 154.714 598.3 155.714L599.4 170.614C599.4 170.614 590.4 176.414 590.5 181.214C590.6 184.914 592.8 202.614 593.8 210.414C594.1 212.614 595.9 214.214 598.1 214.214H604.3H610.5C612.7 214.214 614.5 212.614 614.8 210.414C615.8 202.614 618 184.914 618.1 181.214C618.2 176.414 609.2 170.614 609.2 170.614Z" fill="#B8D8C7"/>
<path d="M9.90002 407.714H965.7" stroke="#B8D8C7" stroke-width="1.8" stroke-miterlimit="10" stroke-linecap="round" stroke-linejoin="round"/>
</g>
<path d="M499.757 123.537C499.757 123.537 493.523 135.88 493.021 143.726C492.518 151.572 501.266 183.051 515.544 207.068C515.544 207.068 529.018 202.858 529.018 198.935C529.018 195.012 521.074 148.606 521.577 147.266C522.08 145.926 527.61 136.071 527.61 131.861C527.61 127.747 501.869 118.944 499.757 123.537Z" fill="#F4C2C9"/>
<path d="M527.61 131.861C527.61 127.651 501.97 118.944 499.858 123.537C499.858 123.537 499.054 125.259 497.948 127.747C506.092 133.775 514.84 138.942 524.795 140.664C526.202 137.602 527.61 133.966 527.61 131.861Z" fill="#E26E85"/>
<path d="M526.504 71.1023C526.504 71.1023 516.449 74.3555 508.807 90.813C501.065 107.366 493.021 121.049 493.021 121.049C493.021 121.049 505.589 132.914 521.678 138.942C537.766 145.161 538.369 72.6332 526.504 71.1023Z" fill="#599F75"/>
<path d="M495.836 116.169C495.836 116.169 513.03 129.565 529.018 135.401" stroke="#172D39" stroke-width="1.8" stroke-miterlimit="10" stroke-linecap="round" stroke-linejoin="round"/>
<path d="M560.088 428C560.088 428 559.183 448.093 559.384 450.007C559.585 452.016 552.345 456.035 543.396 455.748C534.548 455.461 533.643 452.973 533.643 452.973C533.643 452.973 531.632 431.253 531.431 428.191C531.23 425.129 558.278 423.886 560.088 428Z" fill="#F4C2C9"/>
<path d="M559.585 439.578C559.786 433.837 560.088 428 560.088 428C558.278 423.886 531.23 425.129 531.431 428.191C531.531 429.627 532.034 434.985 532.436 440.343C540.38 444.075 550.837 443.118 559.585 439.578Z" fill="#172D39"/>
<path d="M559.384 449.433C559.384 449.433 560.188 455.078 560.49 461.202C560.792 467.421 561.797 478.521 560.691 480.434C559.485 482.348 553.452 483.974 539.073 485.027C524.694 486.079 511.421 485.123 509.109 483.4C506.796 481.678 507.5 479.095 509.712 477.085C511.924 475.076 520.672 466.177 524.292 462.541C529.018 457.757 532.436 452.877 532.436 452.303C532.738 450.007 533.241 450.007 533.241 450.007C533.241 450.007 533.844 451.442 534.649 451.347C535.453 451.251 536.559 446.945 541.385 447.998C546.312 449.05 548.223 452.208 550.033 452.208C551.843 452.112 556.77 451.538 559.384 449.433Z" fill="#172D39"/>
<path d="M597.794 432.019C597.794 432.019 600.509 452.686 601.012 453.93C601.515 455.174 606.542 458.618 614.385 458.236C622.228 457.853 625.245 455.652 625.546 455.174C625.848 454.695 625.345 431.062 625.144 429.531C624.943 428 599.604 428.383 597.794 432.019Z" fill="#F4C2C9"/>
<path d="M625.446 440.152C625.345 434.889 625.144 430.009 625.044 429.339C624.742 427.808 599.604 428.287 597.694 431.923C597.694 431.923 598.297 436.516 599.001 441.491C608.05 443.501 617.1 442.926 625.446 440.152Z" fill="#172D39"/>
<path d="M600.61 452.112C600.409 453.643 600.308 455.078 600.409 456.609C600.509 457.853 600.61 459.575 600.61 461.68C600.71 466.082 601.113 481.295 602.219 483.496C603.325 485.697 615.994 487.515 625.546 487.61C635.099 487.706 642.137 485.314 643.243 482.826C644.349 480.338 643.746 476.703 640.428 472.684C637.11 468.665 629.468 462.446 628.563 459.48C627.658 456.513 626.25 453.069 625.647 452.112C625.647 452.112 624.34 453.834 622.932 454.217C621.625 454.6 619.714 449.433 615.592 449.241C611.469 448.954 609.659 450.581 607.045 454.217C606.944 454.217 603.325 454.504 600.61 452.112Z" fill="#172D39"/>
<path d="M512.427 182.477C512.427 182.477 510.013 192.907 508.807 206.972C507.6 221.038 511.823 308.205 512.427 314.998C513.03 321.792 515.343 360.543 517.957 379.393C520.069 394.894 518.56 426.182 523.487 430.583C528.414 434.985 543.497 437.377 552.848 434.985C562.199 432.593 566.523 428.191 567.629 424.555C568.735 420.919 564.311 393.267 564.612 379.202C564.914 365.136 564.612 323.61 564.11 313.754C564.11 313.754 568.232 263.425 573.159 251.943C578.086 240.461 585.225 198.169 571.55 185.922C557.674 173.674 513.633 180.468 512.427 182.477Z" fill="#172D39"/>
<path d="M534.447 188.027C534.447 188.027 534.347 206.972 535.151 221.133C535.453 226.492 535.956 231.18 536.659 233.955C539.173 243.906 544.603 244.671 548.725 246.968C552.848 249.36 567.629 305.621 573.662 320.261C573.662 320.261 578.287 353.941 581.907 374.035C585.426 394.128 584.924 418.432 587.639 426.756C590.353 435.08 606.24 436.707 613.983 436.037C621.725 435.368 632.082 432.497 631.78 423.886C631.479 415.274 629.97 390.779 628.663 369.92C627.256 349.061 624.842 317.964 624.239 310.693C624.239 310.693 621.223 276.247 619.614 258.545C618.005 240.844 618.91 222.76 616.497 192.237C613.882 161.618 534.347 170.995 534.447 188.027Z" fill="#172D39"/>
<path d="M535.151 221.133C535.453 226.492 535.956 231.18 536.66 233.955C539.173 243.906 544.603 244.671 548.726 246.968C552.848 249.36 567.629 305.621 573.662 320.261" stroke="#63737A" stroke-width="1.8" stroke-miterlimit="10" stroke-linecap="round" stroke-linejoin="round"/>
<path d="M548.726 246.968C548.726 246.968 536.961 241.227 531.733 243.332" stroke="#63737A" stroke-width="1.8" stroke-miterlimit="10" stroke-linecap="round" stroke-linejoin="round"/>
<path d="M530.727 328.968C538.057 328.968 544 322.756 544 315.094C544 307.432 538.057 301.22 530.727 301.22C523.397 301.22 517.454 307.432 517.454 315.094C517.454 322.756 523.397 328.968 530.727 328.968Z" stroke="#63737A" stroke-width="1.8" stroke-miterlimit="10" stroke-linecap="round" stroke-linejoin="round"/>
<path d="M600.107 328.107C607.659 328.107 613.782 321.895 613.782 314.233C613.782 306.57 607.659 300.359 600.107 300.359C592.555 300.359 586.432 306.57 586.432 314.233C586.432 321.895 592.555 328.107 600.107 328.107Z" stroke="#63737A" stroke-width="1.8" stroke-miterlimit="10" stroke-linecap="round" stroke-linejoin="round"/>
<path d="M536.559 441.778C536.559 441.778 536.257 439.769 536.559 438.908" stroke="#63737A" stroke-width="1.8" stroke-miterlimit="10" stroke-linecap="round" stroke-linejoin="round"/>
<path d="M544.905 443.022C544.905 443.022 544.905 439.291 544.905 438.908" stroke="#63737A" stroke-width="1.8" stroke-miterlimit="10" stroke-linecap="round" stroke-linejoin="round"/>
<path d="M555.06 441.108C555.06 441.108 555.161 438.716 555.06 437.664" stroke="#63737A" stroke-width="1.8" stroke-miterlimit="10" stroke-linecap="round" stroke-linejoin="round"/>
<path d="M603.325 442.352C603.325 442.352 602.822 439.769 602.822 439.003" stroke="#63737A" stroke-width="1.8" stroke-miterlimit="10" stroke-linecap="round" stroke-linejoin="round"/>
<path d="M613.38 442.735C613.38 442.735 613.581 439.482 613.38 438.621" stroke="#63737A" stroke-width="1.8" stroke-miterlimit="10" stroke-linecap="round" stroke-linejoin="round"/>
<path d="M622.027 441.204C622.027 441.204 622.228 439.003 622.027 437.951" stroke="#63737A" stroke-width="1.8" stroke-miterlimit="10" stroke-linecap="round" stroke-linejoin="round"/>
<path d="M527.107 461.106C527.107 461.106 534.749 455.27 549.731 463.307" stroke="white" stroke-width="1.8" stroke-miterlimit="10" stroke-linecap="round" stroke-linejoin="round"/>
<path d="M521.376 468.474C521.376 468.474 530.828 461.298 544.905 470.005" stroke="white" stroke-width="1.8" stroke-miterlimit="10" stroke-linecap="round" stroke-linejoin="round"/>
<path d="M630.876 465.316C630.876 465.316 621.725 461.489 609.358 467.708" stroke="white" stroke-width="1.8" stroke-miterlimit="10" stroke-linecap="round" stroke-linejoin="round"/>
<path d="M634.998 471.823C634.998 471.823 624.44 467.421 611.67 475.363" stroke="white" stroke-width="1.8" stroke-miterlimit="10" stroke-linecap="round" stroke-linejoin="round"/>
<path d="M575.17 67.7534C575.17 67.7534 580.198 69.1887 590.856 69.38C601.515 69.5714 613.681 72.5376 618.407 78.1829C623.133 83.8282 624.641 125.45 623.937 144.3C623.234 163.054 609.056 191.184 609.056 191.184C609.056 191.184 575.17 194.82 547.418 193.577C519.666 192.237 513.03 186.496 511.12 184.678C509.209 182.86 508.103 178.459 509.209 176.545C510.315 174.727 515.745 159.8 517.756 145.544C519.666 131.191 515.544 111.385 517.454 93.8749C519.365 76.3649 526.504 71.198 526.504 71.198C526.504 71.198 535.453 68.3275 550.938 67.8491C566.322 67.1793 575.17 67.7534 575.17 67.7534Z" fill="#45677C"/>
<path d="M573.662 118.178C577.272 118.178 580.198 115.394 580.198 111.959C580.198 108.524 577.272 105.74 573.662 105.74C570.053 105.74 567.126 108.524 567.126 111.959C567.126 115.394 570.053 118.178 573.662 118.178Z" fill="#DBB146"/>
<path d="M551.742 64.1175C549.027 64.2132 546.916 65.7441 545.005 67.5621C543.799 68.7103 542.693 70.2412 542.19 72.2506C538.369 89.8562 544.201 111.098 551.642 110.906C560.993 110.619 573.562 94.449 583.416 76.0779C587.438 68.5189 579.695 63.2563 575.17 63.2563C571.651 63.1607 557.373 63.8304 551.742 64.1175Z" fill="#599F75"/>
<path d="M594.677 26.8968C594.677 26.8968 594.677 34.6471 589.951 42.3018C585.226 49.9564 579.494 53.9751 577.584 57.4197C575.673 60.8643 576.176 51.8701 577.584 47.5643C578.991 43.3543 587.337 20.2947 594.677 26.8968Z" fill="#172D39"/>
<path d="M549.631 55.9845C549.631 55.9845 548.524 65.2657 547.821 68.806C547.117 72.3462 545.508 81.6275 557.976 82.2016C569.137 82.7757 575.17 74.5469 577.382 70.5283C578.086 69.2844 578.388 67.9448 578.287 66.6053C577.986 62.3952 577.382 52.0614 577.684 43.6413C578.086 32.9248 549.631 48.4255 549.631 55.9845Z" fill="#F4C2C9"/>
<path d="M571.752 56.6542C565.819 61.1513 557.071 63.2563 548.826 62.1081C548.525 64.5959 548.122 67.275 547.821 68.8059C547.72 69.2843 547.62 69.8584 547.519 70.5282C557.675 71.0066 569.238 66.2225 571.752 56.6542Z" fill="#E26E85"/>
<path d="M537.766 21.5385C537.766 21.5385 535.051 25.2702 535.453 28.1407C535.855 31.0112 541.587 40.6751 544.503 40.3881C547.419 40.101 550.435 28.2364 547.016 24.3133C543.497 20.3903 538.872 19.7206 537.766 21.5385Z" fill="#172D39"/>
<path d="M540.078 26.9924C540.078 26.9924 540.38 33.6903 539.073 41.3449C537.766 48.9995 536.861 60.4815 548.826 63.639C560.792 66.7966 574.869 62.4908 579.293 46.7988C583.717 31.1068 586.935 15.2234 571.651 10.6306C556.367 6.03786 538.268 11.9702 540.078 26.9924Z" fill="#F4C2C9"/>
<path d="M545.206 34.6471C545.508 35.6996 545.407 36.9435 545.005 38.0917C544.804 38.6658 544.503 39.1442 544.1 39.6226C543.899 39.9097 543.698 40.101 543.497 40.2924C543.396 40.3881 543.296 40.5794 543.195 40.6751C543.095 40.9622 543.095 41.2492 543.195 41.5363C543.296 41.919 543.598 42.3017 543.899 42.6845C544.503 43.4499 545.407 44.1197 546.312 44.6938C545.106 44.7895 543.899 44.4068 542.894 43.6413C542.391 43.2586 541.888 42.7802 541.587 42.1104C541.285 41.4406 541.184 40.5794 541.587 39.9097C541.788 39.5269 541.989 39.2399 542.29 39.0485C542.491 38.8571 542.693 38.7615 542.793 38.5701C543.095 38.1874 543.497 37.8046 543.698 37.4219C544.301 36.5607 544.804 35.6996 545.206 34.6471Z" fill="#172D39"/>
<path d="M578.69 39.0485C578.69 39.0485 577.181 36.8478 576.478 32.4464C575.874 28.045 570.947 28.332 568.635 20.199C566.322 12.0659 560.691 22.1126 551.742 25.7486C542.793 29.3845 535.755 23.5479 532.135 17.0414C528.615 10.6307 534.648 4.79402 538.771 2.1149C542.894 -0.564229 547.217 3.7415 555.261 1.82784C563.305 -0.085817 576.276 -2.47789 582.511 6.13358C588.745 14.745 595.18 16.8501 594.778 26.227C594.275 35.6039 582.812 46.0334 582.108 46.1291C581.304 46.3204 578.69 39.0485 578.69 39.0485Z" fill="#172D39"/>
<path d="M557.473 30.0544C557.172 29.2889 556.87 27.8537 557.976 27.0882C559.082 26.3227 561.596 26.6098 564.009 28.045C566.121 29.2889 566.724 31.2983 565.316 31.1069C563.909 30.9155 562.803 30.3414 561.093 30.2457C559.283 30.1501 557.775 30.7242 557.473 30.0544Z" fill="#172D39"/>
<path d="M545.407 29.0019C545.609 28.3321 545.81 27.0882 545.106 26.2271C544.503 25.4616 542.894 25.5573 541.385 26.6098C540.078 27.5666 539.676 29.3846 540.581 29.2889C541.486 29.1932 542.089 28.8105 543.195 28.9062C544.301 29.0019 545.206 29.576 545.407 29.0019Z" fill="#172D39"/>
<path d="M538.469 46.2247C538.469 46.2247 538.369 47.3729 540.078 47.6599C541.788 47.8513 541.989 45.4592 544.905 45.0765C546.715 44.8851 553.049 45.3635 555.664 47.6599C558.278 49.9563 561.898 52.6354 567.126 51.1045C572.355 49.5736 575.472 42.5887 576.478 32.4463C577.383 23.1651 581.002 32.1593 581.002 34.36C581.002 35.8909 579.494 33.6902 577.684 39.9096C576.88 42.6844 577.684 50.5304 574.567 56.2714C572.154 60.6728 565.417 65.1699 556.87 65.744C548.323 66.3181 541.285 62.9692 539.173 57.611C537.062 52.4441 537.866 46.6074 538.469 46.2247Z" fill="#172D39"/>
<path d="M542.592 36.178C543.397 36.2737 544.1 35.6996 544.201 34.9342L544.301 34.1687C544.402 33.4032 543.799 32.7334 542.994 32.6378C542.19 32.5421 541.486 33.1162 541.385 33.8816L541.285 34.6471C541.184 35.4126 541.788 36.0823 542.592 36.178Z" fill="#172D39"/>
<path d="M558.58 37.1348C559.384 37.2305 560.088 36.6564 560.188 35.8909L560.289 35.1255C560.39 34.36 559.786 33.6902 558.982 33.5945C558.177 33.4989 557.474 34.073 557.373 34.8384L557.272 35.6039C557.172 36.465 557.775 37.1348 558.58 37.1348Z" fill="#172D39"/>
<path d="M577.584 39.9097C577.584 39.9097 580.299 34.1688 585.024 34.8385C589.851 35.604 587.438 47.6601 578.69 47.5644" fill="#F4C2C9"/>
<path d="M584.723 39.1441C584.421 38.8571 584.119 38.57 583.918 38.4744C583.617 38.3787 583.717 38.57 583.516 38.6657C583.516 38.7614 583.315 39.5269 583.214 40.1967C583.114 40.8664 582.913 41.6319 582.511 42.3017C582.309 42.6844 582.108 43.0671 581.706 43.3542C581.304 43.6412 580.801 43.7369 580.399 43.5456C580.801 43.3542 580.902 43.0671 581.002 42.7801C581.103 42.4931 581.103 42.206 581.203 41.9189C581.304 41.2492 581.304 40.5794 581.505 39.8139C581.606 39.4312 581.706 39.0485 581.807 38.6657C581.907 38.4744 582.008 38.283 582.108 38.0916C582.209 37.9959 582.209 37.9003 582.41 37.8046C582.511 37.7089 582.712 37.6132 582.812 37.5175C583.013 37.4219 583.315 37.3262 583.717 37.3262C584.119 37.4219 584.32 37.6132 584.522 37.8046C584.823 38.283 584.823 38.7614 584.723 39.1441Z" fill="#172D39"/>
<path d="M549.631 51.583C549.631 51.583 552.345 52.7312 555.06 52.2528" stroke="#F4C2C9" stroke-width="1.8" stroke-miterlimit="10" stroke-linecap="round" stroke-linejoin="round"/>
<path d="M544.777 33.4269C545.257 28.6397 542.958 24.5146 539.641 24.2133C536.324 23.912 533.245 27.5485 532.765 32.3357C532.285 37.1229 534.585 41.2479 537.902 41.5492C541.218 41.8505 544.297 38.214 544.777 33.4269Z" stroke="#172D39" stroke-width="1.8" stroke-miterlimit="10" stroke-linecap="round" stroke-linejoin="round"/>
<path d="M567.137 35.2903C567.617 30.5031 564.556 26.3089 560.299 25.9222C556.042 25.5355 552.202 29.1028 551.722 33.89C551.242 38.6772 554.303 42.8715 558.56 43.2581C562.817 43.6448 566.657 40.0775 567.137 35.2903Z" stroke="#172D39" stroke-width="1.8" stroke-miterlimit="10" stroke-linecap="round" stroke-linejoin="round"/>
<path d="M544.503 34.8385C544.503 34.8385 546.212 31.7766 551.642 35.4126" stroke="#172D39" stroke-width="1.8" stroke-miterlimit="10" stroke-linecap="round" stroke-linejoin="round"/>
<path d="M567.026 35.3169L578.388 37.6133" stroke="#172D39" stroke-width="1.8" stroke-miterlimit="10" stroke-linecap="round" stroke-linejoin="round"/>
<path d="M610.564 140.951L615.893 151.189C615.893 151.189 610.263 158.461 604.23 172.239C598.197 186.018 593.772 203.049 589.65 207.929C589.65 207.929 593.672 217.115 603.526 221.133C603.526 221.133 622.731 194.342 631.479 182.669C640.227 170.995 648.572 156.069 647.969 148.606C647.064 137.602 638.316 121.336 637.512 116.935C636.707 112.533 610.765 128.225 610.564 140.951Z" fill="#F4C2C9"/>
<path d="M637.411 116.935C636.707 112.629 610.765 128.225 610.564 140.951L611.369 142.386C620.519 135.784 630.775 131.287 641.735 128.129C639.623 123.154 637.713 118.848 637.411 116.935Z" fill="#E26E85"/>
<path d="M594.677 197.978C596.085 200.274 600.911 206.398 612.173 208.886C612.575 208.982 612.676 209.364 612.475 209.651L607.347 216.253C607.246 216.445 606.944 216.445 606.743 216.445C594.175 212.809 590.856 206.781 590.354 205.633C590.253 205.537 590.253 205.346 590.354 205.25L593.772 198.074C593.973 197.595 594.476 197.595 594.677 197.978Z" fill="#172D39"/>
<path d="M601.79 209.593C603.175 207.425 602.529 204.645 600.346 203.381C598.163 202.118 595.271 202.851 593.886 205.019C592.501 207.186 593.148 209.967 595.33 211.23C597.513 212.493 600.405 211.76 601.79 209.593Z" fill="white"/>
<path d="M613.48 77.4174C615.894 77.0347 618.307 77.8958 619.815 79.7138C622.128 82.4886 625.949 87.8468 630.674 97.0324C638.618 112.437 644.148 122.58 644.148 122.58C644.148 122.58 616.597 136.741 610.564 140.951C610.564 140.951 599.403 123.058 595.783 115.595C592.264 108.514 593.27 80.9577 613.48 77.4174Z" fill="#599F75"/>
<path d="M607.146 135.401C607.146 135.401 622.228 124.685 641.031 116.839" stroke="#172D39" stroke-width="1.8" stroke-miterlimit="10" stroke-linecap="round" stroke-linejoin="round"/>
<path d="M585.728 201.614C585.728 201.614 590.454 218.359 609.86 224.195" stroke="#63737A" stroke-width="1.8" stroke-miterlimit="10" stroke-linecap="round" stroke-linejoin="round"/>
<path d="M615.894 151.189C615.894 151.189 618.508 147.936 624.139 146.692" stroke="#E26E85" stroke-width="1.8" stroke-miterlimit="10" stroke-linecap="round" stroke-linejoin="round"/>
<path d="M110.1 321.614L97.4 499.214C97.3 500.714 98.5 502.014 100 502.014C101.4 502.014 102.5 501.014 102.6 499.614L117.9 321.614H110.1Z" fill="#B8D8C7"/>
<path d="M624.2 321.614L636.9 499.214C637 500.714 635.8 502.014 634.3 502.014C632.9 502.014 631.8 501.014 631.7 499.614L616.4 321.614H624.2Z" fill="#B8D8C7"/>
<path d="M221.3 101.814C221.3 101.814 230.2 119.914 236.6 136.214C243 152.514 244.1 167.614 237.9 170.814C229.2 175.314 219.5 175.614 208.3 154.414C197.1 133.214 205.5 85.3139 221.3 101.814Z" fill="#172D39"/>
<path d="M173.4 432.414C173.5 433.614 169.9 453.914 170.1 455.414C170.4 456.914 154.8 460.814 147.3 454.114C147.3 454.114 148.4 427.614 148.4 423.614C148.4 419.714 172.7 421.214 173.4 432.414Z" fill="#F4C2C9"/>
<path d="M170.4 451.814C170.4 451.814 172.1 459.314 174.6 463.914C177.1 468.514 190.9 481.414 189.4 485.814C187.9 490.214 175.2 490.614 165.4 490.214C155.6 489.814 151.2 486.414 147.3 479.414C143.3 472.414 146 467.714 146.5 454.114C146.5 454.114 146.8 451.814 147.4 451.414C147.4 451.414 149.4 454.914 151.7 455.214C154 455.414 156.3 449.914 161.9 449.314C167.5 448.814 168.2 454.314 168.8 454.314C169.5 454.314 170.2 453.414 170.4 451.814Z" fill="#599F75"/>
<path d="M179.5 473.314C179.5 473.314 172.5 470.314 159.5 475.214" stroke="#172D39" stroke-width="1.8" stroke-miterlimit="10" stroke-linecap="round" stroke-linejoin="round"/>
<path d="M177 467.814C177 467.814 170 464.814 157 469.714" stroke="#172D39" stroke-width="1.8" stroke-miterlimit="10" stroke-linecap="round" stroke-linejoin="round"/>
<path d="M223.4 428.914C223.5 430.114 219.9 450.414 220.1 451.914C220.4 453.414 204.8 457.314 197.3 450.614C197.3 450.614 198.4 424.114 198.4 420.114C198.4 416.214 222.8 417.714 223.4 428.914Z" fill="#F4C2C9"/>
<path d="M220.5 448.214C220.5 448.214 222.2 455.714 224.7 460.314C227.2 464.914 241 477.814 239.5 482.214C238 486.614 225.3 487.014 215.5 486.614C205.7 486.214 201.3 482.814 197.4 475.814C193.4 468.814 196.1 464.114 196.6 450.514C196.6 450.514 196.9 448.214 197.5 447.814C197.5 447.814 199.5 451.314 201.8 451.614C204.1 451.814 206.4 446.314 212 445.714C217.6 445.214 218.3 450.714 218.9 450.714C219.6 450.814 220.3 449.914 220.5 448.214Z" fill="#599F75"/>
<path d="M229.5 469.814C229.5 469.814 222.5 466.814 209.5 471.714" stroke="#172D39" stroke-width="1.8" stroke-miterlimit="10" stroke-linecap="round" stroke-linejoin="round"/>
<path d="M227.1 464.314C227.1 464.314 220.1 461.314 207.1 466.214" stroke="#172D39" stroke-width="1.8" stroke-miterlimit="10" stroke-linecap="round" stroke-linejoin="round"/>
<path d="M128.7 213.114C128.7 213.114 125.7 230.614 134.3 271.714C136.9 284.214 139 300.514 140.5 317.614C144 356.614 141 396.414 139.2 412.114C136.6 434.614 148.1 438.914 160.5 439.914C172.9 440.914 177.5 435.214 178.1 428.914C178.7 422.614 186.1 338.614 188.9 319.614C191.8 300.614 192 274.614 191.1 270.814C190.2 267.014 201 267.814 196.5 220.814C192.1 173.614 132.3 200.614 128.7 213.114Z" fill="#45677C"/>
<path d="M214.8 215.414C214.8 215.414 229.8 279.614 231.6 299.614C233.4 319.614 229.7 417.714 229.8 423.614C230 429.514 224.5 434.814 211.1 435.114C197.7 435.414 192.3 426.514 192.4 421.714C192.7 405.714 192.9 342.014 191.9 332.214C190.9 322.414 176.3 274.214 173.4 269.614C170.5 264.914 164.1 230.414 176.7 224.414C189.3 218.414 209.1 209.414 214.8 215.414Z" fill="#45677C"/>
<path d="M195.9 87.3138C195.9 87.3138 170.3 86.4138 158.4 84.8138C146.5 83.2138 124.3 83.1138 115.5 101.014C106.7 118.914 134 127.714 133.3 140.414C132.7 153.014 130.8 174.614 130.8 174.614C130.8 174.614 128.3 198.714 125.5 207.814C122.7 216.914 128 221.514 130.5 222.314C133 223.114 159 228.414 178.7 227.314C198.4 226.214 214.5 221.714 215.9 217.314C217.4 212.914 215 200.014 215.9 186.514C216.8 173.014 219.4 149.414 219.4 140.414C219.4 131.414 223.8 108.614 219.4 99.2138C215 89.8138 204.4 87.6138 195.9 87.3138Z" fill="#599F75"/>
<path d="M162.3 76.7139C162.3 76.7139 158.2 77.3139 156.8 80.0139C155.9 81.7139 154.8 84.8139 154.9 88.0139C155 91.2139 159.8 100.014 173.7 101.614C187.7 103.214 192.6 96.4139 193.2 93.8139C193.8 91.2139 192.8 84.2139 191.8 83.0139C190.9 81.7139 189.4 80.4139 184.4 79.8139C179.5 79.0139 163.9 76.1139 162.3 76.7139Z" fill="#172D39"/>
<path d="M182.4 137.514C182.4 137.514 186.5 133.214 188.6 130.014C190.7 126.814 193.5 123.314 195.8 122.014C198.1 120.614 202.9 119.814 204.2 119.114C205.6 118.414 207 120.914 204.2 123.214C201.4 125.514 202.6 132.214 198.7 135.814C194.7 139.414 183.8 141.614 182.4 137.514Z" fill="#B28D93"/>
<path d="M211.5 78.3138L262 75.0138C263.5 74.9138 264.7 76.2138 264.5 77.7138L252.1 153.914C251.8 155.614 250.5 156.914 248.8 157.114L200.5 163.714C199 163.914 197.7 162.614 197.8 161.114L208 81.7138C208.1 79.8138 209.6 78.4138 211.5 78.3138Z" fill="#45677C"/>
<path d="M247.2 78.5138L228.1 79.5138C227.4 79.5138 226.8 78.9138 226.9 78.2138L227.2 76.2138C227.3 75.4138 228 74.8138 228.7 74.8138L247.8 73.8138C248.5 73.8138 249.1 74.4138 249 75.1138L248.7 77.1138C248.6 77.9138 247.9 78.4138 247.2 78.5138Z" fill="#599F75"/>
<path d="M135.8 155.714C135.8 155.714 142.1 130.414 143.7 120.714C145.3 111.014 139.2 100.214 129.8 97.8138C118.8 95.1138 115.4 100.914 115.4 100.914C115.4 100.914 111 108.614 106.6 132.814C102.2 157.014 99.7 179.514 115.4 185.014C131.1 190.514 163.3 172.614 173.6 164.914C183.9 157.314 187.7 154.014 189.7 153.514C191.7 153.014 199.6 155.114 203.8 150.414C208 145.714 211.6 142.014 212 142.014C212.4 142.014 222.4 143.514 224.1 142.214C226 140.714 223.2 139.214 221.2 138.914C219.3 138.614 213.5 136.714 213.5 136.714C213.5 136.714 218 135.314 221.2 134.114C224.4 132.814 227.7 132.214 227.5 130.514C227.3 128.714 225.3 129.014 223.3 128.914C221.3 128.814 218.6 129.414 218.6 129.414C218.6 129.414 224.1 127.914 225.5 126.314C227 124.614 225.7 123.314 222.8 123.614C220.5 123.814 217.3 124.614 217.3 124.614C217.3 124.614 222.9 124.114 222.5 121.614C222.2 119.914 217.2 120.814 213.9 121.214C210.6 121.614 206.4 122.414 202.8 123.314C200.4 123.914 198.2 124.614 196.7 125.314C193.2 127.014 184.4 135.414 183 137.114C181.6 138.814 164 141.614 149.6 144.814C135.2 147.914 126.8 150.614 122.4 154.714L135.8 155.714Z" fill="#B28D93"/>
<path d="M214.1 121.114C210.8 121.514 206.6 122.314 203 123.214C200.6 123.814 198.4 124.514 196.9 125.214" stroke="#896068" stroke-width="1.8" stroke-miterlimit="10" stroke-linecap="round" stroke-linejoin="round"/>
<path d="M186 155.714C183.5 157.514 179.7 160.514 173.7 164.914C163.4 172.514 131.2 190.414 115.5 185.014C99.9 179.514 102.4 157.014 106.7 132.814C111.1 108.614 115.5 100.914 115.5 100.914C115.5 100.914 118.9 95.1138 129.9 97.8138C139.2 100.114 145.4 110.914 143.8 120.714C142.8 126.814 139.9 139.214 137.9 147.514C141.4 146.514 145.4 145.614 150 144.614C160.2 142.414 172.1 140.314 178.6 138.714C178.5 139.014 177.2 144.414 179.7 149.514C182 154.714 186 155.714 186 155.714Z" fill="#172D39"/>
<path d="M105.7 175.514C105.7 175.514 105.5 170.114 112.1 170.814C118.6 171.514 135.8 177.714 130.9 185.014" stroke="#63737A" stroke-width="1.8" stroke-miterlimit="10" stroke-linecap="round" stroke-linejoin="round"/>
<path d="M170.6 140.514C170.6 140.514 169.1 146.314 171.8 152.214C174.5 158.014 179.4 160.814 179.4 160.814" stroke="#63737A" stroke-width="1.8" stroke-miterlimit="10" stroke-linecap="round" stroke-linejoin="round"/>
<path d="M161.5 61.0138C161.5 61.0138 161.2 73.8138 160.4 81.8138C159.6 89.8138 174.5 93.1138 181.7 91.7138C188.9 90.3138 190 88.1138 190 88.1138C190 88.1138 189.4 77.3138 190 73.4138C190.6 69.5138 161.6 56.8138 161.5 61.0138Z" fill="#B28D93"/>
<path d="M189.8 85.2138C189.7 83.6138 189.7 81.5138 189.7 79.4138C183.6 79.7138 178.2 74.1138 173.8 69.5138C172.6 79.1138 180.9 85.3138 189.8 85.2138Z" fill="#896068"/>
<path d="M201.6 44.0139C201.6 44.0139 206.6 41.4139 208.1 33.2139C209.6 24.9139 207.8 12.8139 202.2 11.4139C196.5 9.91387 200.5 27.2139 196.7 30.4139C192.9 33.5139 201.6 39.5139 201.6 44.0139Z" fill="#172D39"/>
<path d="M201.4 29.9139C201.4 29.9139 203.1 36.8139 202.5 46.9139C201.9 57.1139 203.9 74.3139 192.8 79.3139C181.7 84.3139 167 79.1139 161 62.7139C155 46.3139 154.9 30.0139 164.1 23.0139C173.4 15.9139 198.1 16.9139 201.4 29.9139Z" fill="#B28D93"/>
<path d="M162.2 49.6138C162.2 49.6138 165.6 48.5138 165.7 42.4138C165.7 36.2138 169 31.1138 175.6 32.9138C182.2 34.7138 191.4 39.8138 196.8 39.7138C203.2 39.5138 205.2 32.6138 205.7 24.1138C206.2 15.5138 203.4 10.3138 200.1 11.2138C196.8 12.1138 194 14.9138 189.9 9.71383C184.3 2.71383 179.3 2.91383 175.3 6.21383C168.3 12.1138 169.9 15.2138 163.5 12.7138C159.8 11.2138 157.2 11.6138 155.4 18.5138C153.6 25.4138 154.3 27.3138 150 26.7138C145.6 26.1138 148.4 48.9138 155.4 54.0138C155.5 54.0138 160.9 49.1138 162.2 49.6138Z" fill="#172D39"/>
<path d="M196.6 51.3138C197 52.4138 197.2 53.5138 197.5 54.5138C197.8 55.5138 198.1 56.6138 198.4 57.4138C198.6 57.9138 198.9 58.6138 198.9 59.3138C198.9 60.0138 198.8 60.8138 198.3 61.3138C197.4 62.4138 196.1 62.7138 194.9 62.6138C195.9 62.0138 196.8 61.3138 197.1 60.6138C197.4 59.9138 197.2 59.1138 196.7 58.2138C196.2 57.0138 196 55.9138 196 54.7138C196.1 53.5138 196.3 52.4138 196.6 51.3138Z" fill="#172D39"/>
<path d="M186.9 42.6138C187.8 42.7138 188.5 41.9138 188.2 41.0138C187.9 40.1138 187.7 39.3138 186.7 39.1138C184.6 38.6138 180.1 39.0138 177.4 41.0138C174.7 43.0138 177.3 43.4138 180.7 42.7138C183.1 42.3138 185.3 42.4138 186.9 42.6138Z" fill="#172D39"/>
<path d="M182.3 62.7139C187.768 62.7139 192.2 58.1024 192.2 52.4139C192.2 46.7253 187.768 42.1139 182.3 42.1139C176.832 42.1139 172.4 46.7253 172.4 52.4139C172.4 58.1024 176.832 62.7139 182.3 62.7139Z" stroke="#172D39" stroke-width="1.8" stroke-miterlimit="10" stroke-linecap="round" stroke-linejoin="round"/>
<path d="M203 61.8139C206.535 61.8139 209.4 57.6054 209.4 52.4139C209.4 47.2224 206.535 43.0139 203 43.0139C199.465 43.0139 196.6 47.2224 196.6 52.4139C196.6 57.6054 199.465 61.8139 203 61.8139Z" stroke="#172D39" stroke-width="1.8" stroke-miterlimit="10" stroke-linecap="round" stroke-linejoin="round"/>
<path d="M196.8 50.3139C196.8 50.3139 195.5 48.5139 192 50.3139" stroke="#172D39" stroke-width="1.8" stroke-miterlimit="10" stroke-linecap="round" stroke-linejoin="round"/>
<path d="M172.8 49.5139L160.9 48.6139" stroke="#172D39" stroke-width="1.8" stroke-miterlimit="10" stroke-linecap="round" stroke-linejoin="round"/>
<path d="M188.3 69.7138C188.3 69.7138 183.8 69.4138 181.5 65.0138" stroke="#172D39" stroke-width="1.8" stroke-miterlimit="10" stroke-linecap="round" stroke-linejoin="round"/>
<path d="M183.8 56.2138C184.7 56.3138 185.5 55.6138 185.6 54.6138L185.7 53.6138C185.8 52.7138 185.1 51.9138 184.1 51.8138C183.2 51.7138 182.4 52.4138 182.3 53.4138L182.2 54.4138C182.1 55.4138 182.8 56.1138 183.8 56.2138Z" fill="#172D39"/>
<path d="M198.6 56.5139C199.5 56.6139 200.3 55.9139 200.4 54.9139L200.5 53.9139C200.6 53.0139 199.9 52.2139 198.9 52.1139C198 52.0139 197.2 52.7139 197.1 53.7139L197 54.7139C197 55.6139 197.7 56.4139 198.6 56.5139Z" fill="#172D39"/>
<path d="M161.8 49.9138C161.8 49.9138 158.9 44.9138 155 46.2138C151.1 47.5138 151.2 53.5138 153.1 57.1138C155.5 61.7138 161 63.1138 163.9 62.6138" fill="#B28D93"/>
<path d="M154.9 53.5138C154.7 53.0138 154.6 52.5138 154.7 51.9138C154.7 51.6138 154.9 51.3138 155.1 51.0138C155.4 50.7138 155.8 50.5138 156.2 50.5138C156.9 50.5138 157.6 50.8138 158 51.3138C158.4 51.7138 158.7 52.2138 159 52.7138C159.5 53.6138 159.7 54.5138 160 55.3138C160.2 55.7138 160.3 56.0138 160.5 56.2138C160.7 56.4138 161.2 56.4138 161.7 56.4138C161.4 56.8138 160.9 57.2138 160.2 57.1138C159.5 56.9138 159.1 56.5138 158.7 56.1138C158.1 55.2138 157.7 54.4138 157.3 53.6138C156.9 52.8138 156.5 52.2138 156.1 52.1138C156 52.1138 155.9 52.0138 155.8 52.1138C155.7 52.1138 155.6 52.2138 155.5 52.4138C155.3 52.5138 155.1 53.0138 154.9 53.5138Z" fill="#172D39"/>
<path d="M214.1 136.814C214.1 136.814 212.2 136.314 210.8 136.214C209.4 136.014 208.4 136.214 208.4 136.214" stroke="#896068" stroke-width="1.8" stroke-miterlimit="10" stroke-linecap="round" stroke-linejoin="round"/>
<path d="M218.7 129.314C218.7 129.314 208.5 131.514 207.6 132.214" stroke="#896068" stroke-width="1.8" stroke-miterlimit="10" stroke-linecap="round" stroke-linejoin="round"/>
<path d="M217.5 124.514C217.5 124.514 210.5 126.014 210.1 126.114C208.8 126.514 206.4 127.214 206.4 127.214" stroke="#896068" stroke-width="1.8" stroke-miterlimit="10" stroke-linecap="round" stroke-linejoin="round"/>
<path d="M137.9 254.214C137.9 254.214 149.6 249.214 149.6 232.214" stroke="#172D39" stroke-width="1.8" stroke-miterlimit="10" stroke-linecap="round" stroke-linejoin="round"/>
<path d="M25.7 393.414L19.9 513.814C19.8 515.214 20.9 516.314 22.3 516.314C23.5 516.314 24.6 515.414 24.7 514.114L34.8 393.314H25.7V393.414Z" fill="#B8D8C7"/>
<path d="M82.8 393.414L88.6 513.814C88.7 515.214 87.6 516.314 86.2 516.314C85 516.314 83.9 515.414 83.8 514.114L73.7 393.314H82.8V393.414Z" fill="#B8D8C7"/>
<path d="M64.7 369.714L64.6 490.214C64.6 491.614 63.5 492.614 62.1 492.614C60.9 492.514 59.9 491.514 59.8 490.314L55.6 369.214L64.7 369.714Z" fill="#B8D8C7"/>
<path d="M86.8 381.714C77.6 380.414 65.8 379.614 52.8 379.614C39.9 379.614 28 380.414 18.8 381.714H0V388.514C0 393.414 23.6 397.414 52.8 397.414C81.9 397.414 105.6 393.414 105.6 388.514V381.714H86.8Z" fill="#172D39"/>
<path d="M52.8 390.614C81.9606 390.614 105.6 386.629 105.6 381.714C105.6 376.799 81.9606 372.814 52.8 372.814C23.6394 372.814 0 376.799 0 381.714C0 386.629 23.6394 390.614 52.8 390.614Z" fill="#63737A"/>
<path d="M90.5 475.714C90.5 475.714 89.2 485.314 87.4 488.214C85.5 491.114 82.6 498.314 82.7 500.014C83 503.114 92.6 511.014 98.2 515.814C103.8 520.614 108.4 520.814 118.8 521.614C129.2 522.414 133.4 520.814 133.4 517.614C133.4 514.514 131.3 512.914 126.7 507.614C122.2 502.314 114.9 494.814 112.5 490.514C110.1 486.214 114.9 479.714 117.1 475.714C119.3 471.714 95.1 464.414 90.5 475.714Z" fill="#172D39"/>
<path d="M117.1 475.714C115 479.714 110.2 486.214 112.5 490.514C112.7 490.914 113 491.314 113.2 491.714C112.6 490.914 110.5 488.314 106.4 488.314C101.6 488.314 99 493.914 95.3 491.214C92.9 489.414 89.8 487.414 88 486.314C89.4 482.414 90.3 475.614 90.3 475.614C95.1 464.414 119.3 471.714 117.1 475.714Z" fill="#F4C2C9"/>
<path d="M86.9001 312.414C86.9001 312.414 91.1001 322.614 93.2001 325.514C95.3001 328.414 146.8 333.414 152.3 354.314C157.8 375.214 125.2 463.414 121.7 471.714C118.2 480.014 117.7 487.314 105.9 486.114C94 484.814 84.6001 477.314 86.9001 469.014C89.2001 460.714 98.2 438.614 101.9 412.114C105.7 385.614 119 380.014 95 371.914C71 363.814 51.9001 366.414 58.5001 344.014C65.1001 321.614 82.3001 310.014 86.9001 312.414Z" fill="#599F75"/>
<path d="M124.1 490.314C124.1 490.314 128.3 505.314 128.3 506.914C128.3 508.614 125.6 521.414 126.2 525.214C126.8 529.014 132 531.114 138.9 537.414C146.3 544.314 152.3 543.914 161.4 543.214C169.2 542.614 179.6 538.814 180.7 535.714C181.9 532.514 180.6 530.414 174.4 527.114C168.9 524.114 155.1 508.814 154.4 507.114C153.7 505.414 149.5 483.114 149.3 481.014C149.1 478.814 121.6 484.614 124.1 490.314Z" fill="#172D39"/>
<path d="M153.7 505.014C151.6 502.414 148.6 500.214 144.6 502.614C140.4 505.114 140 510.514 137.8 510.814C135.6 511.114 135.4 508.014 132.5 507.114C129.6 506.314 127.8 504.314 127.8 504.314C126.7 499.614 124.1 490.214 124.1 490.214C121.6 484.514 149.1 478.714 149.2 480.914C149.4 482.814 152.4 499.014 153.7 505.014Z" fill="#F4C2C9"/>
<path d="M160.4 515.914C160.4 515.914 155.2 513.914 145 519.014" stroke="white" stroke-width="1.8" stroke-miterlimit="10" stroke-linecap="round" stroke-linejoin="round"/>
<path d="M167.6 522.314C167.6 522.314 159.9 520.314 149.7 525.414" stroke="white" stroke-width="1.8" stroke-miterlimit="10" stroke-linecap="round" stroke-linejoin="round"/>
<path d="M16.5 310.814C16.5 310.814 11.7 323.414 8.80003 331.314C5.90003 339.214 2.20002 355.414 10.5 368.514C18.8 381.614 34.8 383.914 60.5 387.114C85.9 390.214 91.4 392.214 91.4 392.214C91.4 392.214 97.2 418.114 106.6 443.514C116 468.914 119.5 483.714 119.9 487.314C120.3 490.814 122.2 494.414 128.5 495.914C134.8 497.414 151.2 493.814 152.3 486.514C153.3 479.214 146.3 456.914 141.7 427.314C137.1 397.714 135 372.914 126.3 361.414C117.5 349.914 83.3 348.714 83.3 345.414C83.2 342.214 33.2 302.814 16.5 310.814Z" fill="#599F75"/>
<path d="M141.6 427.314C137 397.714 134.9 372.914 126.2 361.414C117.4 349.914 84.9 346.714 83.2 345.414C83.2 345.414 75.2 339.914 64.1 340.014" stroke="#172D39" stroke-width="1.8" stroke-miterlimit="10" stroke-linecap="round" stroke-linejoin="round"/>
<path d="M83.2001 345.414C83.2001 345.414 84.0001 340.214 83.2001 337.814" stroke="#172D39" stroke-width="1.8" stroke-miterlimit="10" stroke-linecap="round" stroke-linejoin="round"/>
<path d="M10.5 349.314C10.5 349.314 27.2 349.014 30.9 330.814" stroke="#172D39" stroke-width="1.8" stroke-miterlimit="10" stroke-linecap="round" stroke-linejoin="round"/>
<path d="M91.3001 392.214C91.3001 392.214 91.1001 387.614 95.1001 384.114" stroke="#172D39" stroke-width="1.8" stroke-miterlimit="10" stroke-linecap="round" stroke-linejoin="round"/>
<path d="M125.7 506.314C125.7 506.314 123.6 500.614 106.8 505.214" stroke="white" stroke-width="1.8" stroke-miterlimit="10" stroke-linecap="round" stroke-linejoin="round"/>
<path d="M117.3 497.314C117.3 497.314 115.7 493.114 102.3 498.814" stroke="white" stroke-width="1.8" stroke-miterlimit="10" stroke-linecap="round" stroke-linejoin="round"/>
<path d="M511.2 374.114V380.914C511.2 385.314 489.1 388.914 461.7 388.914C434.4 388.914 412.2 385.314 412.2 380.914V374.114H435.5C443.1 373.314 452.1 372.914 461.7 372.914C471.3 372.914 480.3 373.314 487.9 374.114H511.2Z" fill="#172D39"/>
<path d="M461.7 382.114C489.038 382.114 511.2 378.532 511.2 374.114C511.2 369.695 489.038 366.114 461.7 366.114C434.362 366.114 412.2 369.695 412.2 374.114C412.2 378.532 434.362 382.114 461.7 382.114Z" fill="#63737A"/>
<path d="M461.7 462.914C460.4 462.914 459.4 461.914 459.4 460.614V382.214H464.1V460.614C464.1 461.914 463 462.914 461.7 462.914Z" fill="#172D39"/>
<path d="M461.7 460.414C461.7 460.414 434.5 462.414 425.9 480.514" stroke="#172D39" stroke-width="4" stroke-miterlimit="10" stroke-linecap="round" stroke-linejoin="round"/>
<path d="M497.6 480.514C488.9 462.414 461.8 460.414 461.8 460.414C461.8 460.414 457.3 463.914 455.4 484.614" stroke="#172D39" stroke-width="4" stroke-miterlimit="10" stroke-linecap="round" stroke-linejoin="round"/>
<path d="M456.972 493.96C460.895 493.034 463.325 489.102 462.398 485.178C461.472 481.255 457.54 478.825 453.617 479.751C449.693 480.678 447.263 484.61 448.19 488.533C449.116 492.457 453.048 494.887 456.972 493.96Z" fill="#599F75"/>
<path d="M502.716 487.157C505.567 484.306 505.567 479.684 502.716 476.833C499.865 473.982 495.243 473.982 492.392 476.833C489.541 479.684 489.541 484.306 492.392 487.157C495.243 490.007 499.865 490.007 502.716 487.157Z" fill="#599F75"/>
<path d="M427.569 489.061C431.492 488.135 433.922 484.203 432.995 480.28C432.069 476.356 428.137 473.926 424.213 474.853C420.29 475.779 417.86 479.711 418.787 483.635C419.713 487.558 423.645 489.988 427.569 489.061Z" stroke="#172D39" stroke-width="1.8" stroke-miterlimit="10" stroke-linecap="round" stroke-linejoin="round"/>
<path d="M488.7 300.414C493.5 311.914 502 330.414 501.9 351.214C501.9 376.414 471.4 386.714 468.3 390.714C465.2 394.814 401.7 399.114 395.2 386.414C388.7 373.614 389.1 360.314 406.5 328.214C418.1 306.714 416.6 300.714 416.7 300.414C416.7 300.414 418.3 302.114 419 295.414C419.7 288.714 485.8 293.614 488.7 300.414Z" fill="#172D39"/>
<path d="M410.3 360.314C404.1 361.314 393.7 364.614 392.6 381.114C391.6 397.614 404.7 461.614 404.9 472.914C405.1 484.214 404 484.714 396.3 491.614C388.6 498.514 373.3 506.014 374.6 511.314C375.9 516.614 393.4 521.114 404.9 519.014C416.5 516.914 419 503.814 421.2 502.714C423.4 501.614 424.8 497.514 425.1 494.914C425.4 492.214 433.5 400.514 434.3 387.014C435.4 370.314 428.5 357.414 410.3 360.314Z" fill="#F4C2C9"/>
<path d="M425.9 487.114C425.5 491.514 425.2 494.314 425.2 494.814C424.9 497.514 423.5 501.514 421.3 502.614C419.1 503.714 416.6 516.814 405 518.914C393.4 521.014 375.9 516.514 374.7 511.214C373.7 507.114 382.8 501.614 390.5 496.114C390.3 496.314 388.1 498.514 390.5 499.014C393 499.514 397.5 497.614 406.1 502.414C414.7 507.214 417.2 499.714 418.9 494.614C420.4 490.314 423.4 491.714 425.9 487.114Z" fill="#172D39"/>
<path d="M440.5 363.314C433 368.314 430 374.414 428.6 397.414C426.7 429.014 423.3 478.714 421.7 484.014C420.1 489.314 418.1 491.714 416.2 497.014C414.3 502.314 398.2 517.614 399.2 523.414C400.1 529.214 409.4 535.014 415.2 536.914C421 538.814 427.9 539.614 432.1 536.914C436.3 534.214 438.4 517.314 439.5 513.314C440.6 509.214 441.8 506.314 442.8 499.214C443.7 492.214 451.1 460.114 454.2 450.914C457.3 441.814 471.2 397.014 471.6 379.514C471.8 362.014 451.5 356.114 440.5 363.314Z" fill="#F4C2C9"/>
<path d="M440.5 363.314C433 368.314 430 374.414 428.6 397.414C426.7 429.014 423.3 478.714 421.7 484.014C420.1 489.314 418.1 491.714 416.2 497.014" stroke="#E26E85" stroke-width="1.8" stroke-miterlimit="10" stroke-linecap="round" stroke-linejoin="round"/>
<path d="M443.9 492.914C443.3 495.714 442.9 497.914 442.8 499.214C441.9 506.214 440.6 509.214 439.5 513.314C438.4 517.414 436.4 534.314 432.2 536.914C428 539.614 421.1 538.814 415.3 536.914C409.5 535.014 400.3 529.214 399.3 523.514C398.6 519.314 406.8 510.214 412.1 503.414C411.8 503.814 408 509.514 414.8 514.514C420.7 518.914 431.7 521.614 434.5 515.014C437.3 508.414 438.8 502.214 440.1 500.214C441.4 498.314 443 496.214 443.9 492.914Z" fill="#172D39"/>
<path d="M423.944 518.018C424.725 515.892 423.046 513.32 420.195 512.273C417.344 511.225 414.399 512.099 413.619 514.225C412.838 516.351 414.516 518.923 417.368 519.97C420.219 521.017 423.163 520.143 423.944 518.018Z" fill="white"/>
<path d="M401.7 501.014C401.4 503.114 398.8 504.414 396 504.014C393.2 503.614 391.1 501.514 391.4 499.414C391.7 497.314 394.3 496.014 397.1 496.414C400 496.814 402 498.914 401.7 501.014Z" fill="white"/>
<path d="M419.1 216.814C419.1 216.814 405.5 217.014 396.3 237.314C387.1 257.514 372.5 286.214 374.6 298.314C376.7 310.414 404.6 298.314 417.8 275.614C430.9 252.914 429.7 217.414 419.1 216.814Z" fill="#599F75"/>
<path d="M429.6 176.414C429.6 176.414 422.7 176.014 420.5 167.114C418.3 158.214 427.4 147.114 435.8 144.414C444.2 141.714 446.3 146.914 451.8 147.514C457.3 148.114 472 146.514 477.9 159.614C483.8 172.714 474 185.114 481.5 194.914C489 204.814 495.3 222.914 473.2 230.714C451.1 238.514 425.7 232.414 417.8 218.314C410 204.214 425.1 195.914 427.4 188.614C429.9 181.414 431 179.614 429.6 176.414Z" fill="#172D39"/>
<path d="M452 211.614C452 211.614 431.6 211.414 420.5 215.614C417.2 216.814 414.4 218.914 413.6 229.314C412.9 238.714 412.4 238.614 409.8 243.214C405.7 250.614 404 259.114 411.9 272.914C417 281.914 415.4 298.814 414.6 307.314C413.8 315.914 414.8 319.614 431.3 323.814C447.8 328.014 483.2 323.814 487.2 319.814C491.2 315.814 493 276.214 492.2 268.514C491.4 260.814 506.2 240.314 505.1 232.214C504.1 224.114 494.4 213.014 452 211.614Z" fill="#45677C"/>
<path d="M440.8 209.914C440.8 209.914 431.6 210.314 428.6 213.414C426.5 215.614 428.2 217.014 430.7 218.914C432.4 220.214 426.4 223.614 429.5 227.514C431.8 230.414 437 226.814 439 229.514C441.3 232.714 441.7 233.914 445.2 234.014C449.6 234.114 450 229.414 453.3 229.914C457.3 230.514 458.2 231.914 461.1 231.614C465.6 231.114 465.7 226.614 465.1 223.914C464.5 221.214 466.1 221.114 469.6 220.114C473.1 219.114 473.8 212.314 460.9 210.414C448.1 208.514 440.8 209.914 440.8 209.914Z" fill="white"/>
<path d="M463.6 191.814C463.6 191.814 461.5 201.914 461.7 212.714C461.7 212.714 458.2 223.214 446.2 222.514C435 221.914 437.6 212.914 437.6 212.914C437.6 212.914 440.3 202.914 440.4 200.314C440.6 197.714 460.8 189.114 463.6 191.814Z" fill="#F4C2C9"/>
<path d="M454.7 203.214C449.9 206.414 444.3 208.314 439 207.914C438.3 210.614 437.7 212.914 437.7 212.914C437.7 212.914 437.6 213.414 437.5 214.214C445.3 214.014 452.3 210.514 454.7 203.214Z" fill="#E26E85"/>
<path d="M428.3 166.414C428.3 166.714 428.6 174.414 427.2 183.014C425.8 191.614 427.3 205.214 436.6 208.414C449.5 212.814 462.9 204.014 466.2 191.214C469.5 178.414 471.2 162.714 454.8 158.014C438.3 153.214 429.2 160.114 428.3 166.414Z" fill="#F4C2C9"/>
<path d="M427.8 170.014C427.8 170.014 427.1 166.914 430 166.314C432.9 165.714 435.6 164.414 438.3 163.214C440.2 162.314 442.6 162.614 444.5 166.814C448.7 175.814 454 189.314 465 185.514C465 185.514 469.2 186.414 470.4 179.414C471.6 172.414 471.1 163.014 458.9 157.314C446.7 151.714 432.7 155.514 430.1 158.414C426.1 162.914 427.8 170.014 427.8 170.014Z" fill="#172D39"/>
<path d="M460.3 186.914C460.3 186.914 464.8 180.714 469 184.314C473.2 187.914 467.4 197.014 461.6 196.714" fill="#F4C2C9"/>
<path d="M466.8 197.414C466.8 196.014 465.6 193.414 464.2 193.414C462.8 193.414 461.6 196.014 461.6 197.414C461.6 198.814 462.8 200.014 464.2 200.014C465.6 200.014 466.8 198.914 466.8 197.414Z" fill="#45677C"/>
<path d="M467.5 188.514C467.1 188.314 466.8 188.014 466.5 187.914C466.2 187.714 465.9 187.814 465.8 187.914C465.7 187.914 465.7 188.014 465.6 188.114C465.5 188.214 465.4 188.314 465.4 188.414C465.3 188.614 465.3 188.814 465.2 189.114C465.1 189.714 465.2 190.514 465 191.414C464.9 191.914 464.6 192.414 464.1 192.714C463.6 193.014 463.1 192.814 462.7 192.714C463.1 192.514 463.4 192.314 463.5 192.014C463.6 191.814 463.6 191.514 463.6 191.214C463.6 190.614 463.4 189.814 463.5 188.914C463.5 188.414 463.7 187.914 464.1 187.414C464.3 187.214 464.5 187.014 464.7 186.814C465 186.714 465.3 186.514 465.6 186.514C466.3 186.514 466.8 186.914 467 187.314C467.4 187.714 467.5 188.114 467.5 188.514Z" fill="#172D39"/>
<path d="M431.7 182.414C432.1 183.314 432.1 184.314 431.9 185.314C431.7 186.314 431.3 187.214 430.6 188.014C430.4 188.314 430.3 188.314 430.3 188.614C430.3 188.814 430.4 189.114 430.6 189.514C430.8 189.814 431 190.214 431.3 190.514C431.6 190.814 431.9 191.214 432.3 191.314C431.8 191.514 431.3 191.414 430.8 191.214C430.3 191.014 429.9 190.714 429.5 190.414C429.1 190.014 428.8 189.514 428.7 188.814C428.7 188.614 428.7 188.514 428.7 188.314C428.7 188.114 428.8 187.914 428.8 187.814C428.9 187.614 428.9 187.514 429 187.314C429.1 187.214 429.2 187.014 429.3 186.914C430.3 185.714 431 184.214 431.7 182.414Z" fill="#172D39"/>
<path d="M436.2 196.614C436.2 196.614 439.9 197.114 442.6 194.814" stroke="#172D39" stroke-width="1.8" stroke-miterlimit="10" stroke-linecap="round" stroke-linejoin="round"/>
<path d="M440.5 174.814C440.3 174.214 440.6 173.314 440.9 172.914C441.7 171.914 444.3 171.814 446.3 173.114C448.3 174.314 449.1 176.214 448.5 176.414C447.6 176.714 446.7 175.514 444.6 175.314C442.5 175.014 440.9 175.914 440.5 174.814Z" fill="#172D39"/>
<path d="M430.2 174.514C430.7 174.614 431.2 174.314 431.2 173.814C431.3 173.114 431.3 172.314 431 171.814C430.4 170.914 428.8 171.914 428.3 172.614C427.8 173.314 428 174.514 428.3 174.514C428.5 174.514 429.4 174.314 430.2 174.514Z" fill="#172D39"/>
<path d="M442.5 184.214C443.3 184.314 443.9 183.714 444 182.914L444.1 182.114C444.2 181.314 443.6 180.714 442.8 180.614C442 180.514 441.4 181.114 441.3 181.914L441.2 182.714C441.2 183.514 441.7 184.214 442.5 184.214Z" fill="#172D39"/>
<path d="M429.6 183.214C430.4 183.314 431 182.714 431.1 181.914L431.2 181.114C431.3 180.314 430.7 179.714 429.9 179.614C429.1 179.514 428.5 180.114 428.4 180.914L428.3 181.714C428.3 182.514 428.9 183.114 429.6 183.214Z" fill="#172D39"/>
<path d="M293 338.914L298.8 474.514C298.9 476.014 297.8 477.314 296.4 477.314C295.2 477.314 294.1 476.214 294 474.814L283.9 338.814H293V338.914Z" fill="#B8D8C7"/>
<path d="M305.5 323.014L311 452.014C311.1 453.514 310 454.714 308.7 454.714C307.5 454.714 306.5 453.714 306.4 452.414L296.8 323.014H305.5V323.014Z" fill="#B8D8C7"/>
<path d="M202.1 339.014L183.9 473.514C183.7 475.014 184.7 476.414 186 476.514C187.2 476.614 188.4 475.614 188.6 474.314L211.1 339.814L202.1 339.014Z" fill="#B8D8C7"/>
<path d="M323.5 195.114C323.5 195.114 329.4 197.814 324.3 221.514C319.2 245.214 309.8 276.614 311.1 312.114C312.3 347.614 289.1 362.314 251 359.614C212.9 356.914 272.7 249.314 272.7 249.314C272.7 249.314 315.6 185.414 323.5 195.114Z" fill="#B8D8C7"/>
<path d="M221.3 202.314C222.3 197.914 224.4 190.814 232.3 187.914C240.2 185.014 323.2 186.414 324.3 196.714C325.3 206.914 303.7 255.014 303.8 289.414C303.9 323.714 310 352.314 269.5 358.014C229 363.714 185.6 355.314 190 341.514C194.4 327.814 207.8 309.214 211.9 271.314C216 233.414 217.6 219.314 221.3 202.314Z" fill="white"/>
<path d="M202.5 312.414C202.5 312.414 172 350.614 171.1 363.314C170.2 376.014 221.2 375.514 221.3 372.914C221.5 370.314 229.9 355.514 233.9 355.214C236.5 355.014 240.5 354.814 241.2 358.014C242.2 362.514 241.2 371.914 241.2 371.914L285.1 392.514L289.4 374.214C289.4 374.214 296.8 362.314 296.8 342.714C296.8 323.114 291.1 294.214 291.1 294.214C291.1 294.214 207.5 303.014 202.5 312.414Z" fill="#172D39"/>
<path d="M238.5 496.614C238.5 496.614 235.8 498.414 235.2 502.914C234.6 507.414 232.2 514.114 230.6 519.614C229 525.114 224.3 535.814 226.7 537.614C230.1 540.314 239.1 542.214 249.5 543.114C259.9 544.014 264.9 543.414 266.5 540.414C268 537.414 264.7 520.214 264.1 513.714C263.5 507.214 264.1 500.414 262.9 498.114C261.7 495.914 243.3 490.414 238.5 496.614Z" fill="#172D39"/>
<path d="M201.6 490.814C201.6 490.814 200.4 492.714 199.2 496.714C198 500.614 187.4 517.014 187.5 522.214C187.7 527.514 197.7 527.514 201.6 527.714C206.3 527.914 218.2 527.014 222.1 524.314C226 521.614 226.1 512.314 226.4 509.314C227 503.314 226.9 499.714 225.5 490.714C225.1 487.814 220.7 487.014 218.3 488.714C215.9 490.314 203.4 486.914 201.6 490.814Z" fill="#172D39"/>
<path d="M240.1 484.714C240.1 484.714 238.3 497.814 238.1 499.414C237.9 500.914 240.8 504.514 249.2 506.314C256.4 507.914 260.7 505.214 261.4 504.214C262.1 503.214 265.4 486.514 266.5 482.714C267.6 479.014 242.4 480.214 240.1 484.714Z" fill="#F4C2C9"/>
<path d="M199.2 481.914C199.2 481.914 201.9 491.114 201.9 492.314C201.9 493.514 206.5 496.014 212.9 495.814C219.2 495.614 224.7 492.114 224.7 490.414C224.7 488.714 222.8 472.414 222.8 472.414C222.8 472.414 199.8 477.314 199.2 481.914Z" fill="#F4C2C9"/>
<path d="M236.4 519.914C236.4 519.914 248.7 515.814 260.3 525.414" stroke="white" stroke-width="1.8" stroke-miterlimit="10" stroke-linecap="round" stroke-linejoin="round"/>
<path d="M239.6 512.614C239.6 512.614 251.7 510.414 259.4 516.714" stroke="white" stroke-width="1.8" stroke-miterlimit="10" stroke-linecap="round" stroke-linejoin="round"/>
<path d="M238.6 501.914C238.6 501.914 240.6 503.114 242.9 501.914C245.2 500.714 247.6 498.514 252.3 499.414C258 500.514 259.1 506.414 262.2 503.814C262.2 503.814 262.3 507.814 254.5 508.214C246.7 508.614 238.7 503.214 238.6 501.914Z" fill="#172D39"/>
<path d="M201.5 492.514C201.5 492.514 202.6 493.714 204.4 492.014C206.2 490.414 206 488.414 210.9 487.714C214.1 487.314 216.8 489.614 219.2 491.514C221.6 493.414 224 490.814 224.5 488.614C224.5 488.614 226.1 494.314 223.9 497.114C222.3 499.214 216.1 497.714 212.4 497.814C208.8 497.914 200.7 496.114 200.7 496.114L201.5 492.514Z" fill="#172D39"/>
<path d="M194.7 507.214C194.7 507.214 204.1 501.414 217 509.214" stroke="white" stroke-width="1.8" stroke-miterlimit="10" stroke-linecap="round" stroke-linejoin="round"/>
<path d="M199.2 501.214C199.2 501.214 207.4 495.414 218.7 503.214" stroke="white" stroke-width="1.8" stroke-miterlimit="10" stroke-linecap="round" stroke-linejoin="round"/>
<path d="M253 352.214C253 352.214 240.9 353.914 240.1 384.114C239.3 414.314 236.8 462.814 233.4 469.614C230.1 476.414 231.2 484.414 237.5 487.614C243.8 490.814 251.1 494.514 260.3 493.514C269.5 492.614 273.9 487.214 273.9 476.514C273.9 465.714 277.8 435.814 283.8 411.414C289.7 387.014 293.8 362.914 281.6 354.214C269.4 345.514 253 352.214 253 352.214Z" fill="#172D39"/>
<path d="M181.3 349.814C181.3 349.814 163.1 352.114 173.4 397.214C183.7 442.214 190.6 466.014 189 472.914C187.4 479.814 192.4 483.514 198.1 484.814C203.7 486.114 214.7 485.914 220.9 482.414C227.2 478.914 227.8 473.314 225.3 462.614C222.8 451.914 222.2 409.114 221.9 394.414C221.6 379.714 225.3 354.714 207.5 347.514C189.6 340.214 181.3 349.814 181.3 349.814Z" fill="#172D39"/>
<path d="M192.7 379.614C200.708 379.614 207.2 373.212 207.2 365.314C207.2 357.416 200.708 351.014 192.7 351.014C184.692 351.014 178.2 357.416 178.2 365.314C178.2 373.212 184.692 379.614 192.7 379.614Z" stroke="#63737A" stroke-width="1.8" stroke-miterlimit="10" stroke-linecap="round" stroke-linejoin="round"/>
<path d="M264.4 390.614C272.408 390.614 278.9 384.212 278.9 376.314C278.9 368.416 272.408 362.014 264.4 362.014C256.392 362.014 249.9 368.416 249.9 376.314C249.9 384.212 256.392 390.614 264.4 390.614Z" stroke="#63737A" stroke-width="1.8" stroke-miterlimit="10" stroke-linecap="round" stroke-linejoin="round"/>
<path d="M297.8 163.314C297.8 163.314 303.7 161.414 305.6 157.114C307.6 152.814 307.3 139.814 303.8 135.714C300.3 131.614 290.5 133.414 284.3 131.614C278.1 129.814 273.8 125.814 262.3 128.014C250.8 130.214 240.2 140.514 239.7 146.114C239.2 151.714 242.5 154.014 241.3 157.614C240 161.114 238.5 164.714 244.1 170.214C249.7 175.714 247.5 179.314 251.7 179.314C255.9 179.314 248.3 166.514 253.7 155.514C259.2 144.614 294.8 150.914 297.8 163.314Z" fill="#172D39"/>
<path d="M181.6 229.514C181.6 229.514 168.4 246.914 166.1 260.014C163.8 273.114 170.9 281.614 179.7 283.014C188.5 284.414 218 245.914 219.4 238.114C220.7 230.314 185.8 223.414 181.6 229.514Z" fill="#F4C2C9"/>
<path d="M223.7 195.514C223.7 195.514 217 193.614 200.9 207.514C187.4 219.114 176.7 230.214 176.7 230.214C176.7 230.214 205.1 256.014 209 262.714C209 262.714 226.5 242.514 228 222.114C229.5 201.614 226.2 194.714 223.7 195.514Z" fill="#63737A"/>
<path d="M181.6 225.614C181.6 225.614 202.1 242.114 213.2 257.314" stroke="#172D39" stroke-width="1.8" stroke-miterlimit="10" stroke-linecap="round" stroke-linejoin="round"/>
<path d="M215.8 204.014C218.3 198.414 223.3 194.314 229.5 194.114C235.5 193.914 244.6 194.014 257.8 194.914C286.2 196.914 308.1 205.014 313.9 209.214C319.7 213.414 312.6 239.414 306.6 253.814C300.6 268.214 294.1 281.314 293 286.314C292 291.314 295.9 314.914 293.8 319.714C291.7 324.514 269.4 332.814 241 331.214C212.6 329.514 200.8 320.414 199.9 317.014C199.1 313.714 202.6 284.114 204.3 274.014C206 263.914 207.2 241.714 207.4 238.514C209.2 217.914 213.2 209.814 215.8 204.014Z" fill="#172D39"/>
<path d="M339.8 250.514C332.7 238.314 308.1 262.614 308.7 268.014C308.7 268.014 313.1 277.214 313.1 278.214C313.1 279.214 308.7 304.514 305.7 318.714C304.8 323.114 302.1 328.014 298.8 332.714C306.6 335.614 314.5 338.014 322.6 339.614C333.2 321.114 345.4 292.814 347.3 285.814C350.8 272.714 346.9 262.714 339.8 250.514Z" fill="#F4C2C9"/>
<path d="M313.1 278.214C313.1 278.214 314.9 273.914 319.5 272.014" stroke="#E26E85" stroke-width="1.8" stroke-miterlimit="10" stroke-linecap="round" stroke-linejoin="round"/>
<path d="M313.9 209.114C313.9 209.114 322 213.614 330 227.114C337.9 240.614 344.2 252.914 344.2 252.914L309 271.314C309 271.314 298.8 254.614 294.6 247.114C290.4 239.614 290 224.214 295.9 215.614C301.6 207.114 311.1 207.214 313.9 209.114Z" fill="#63737A"/>
<path d="M305.7 266.014C305.7 266.014 326.2 252.514 341.3 247.514" stroke="#172D39" stroke-width="1.8" stroke-miterlimit="10" stroke-linecap="round" stroke-linejoin="round"/>
<path d="M303.7 324.314C303.7 324.314 289.6 325.714 286.4 327.514C283.3 329.314 278.4 340.214 278.8 341.214C279.1 342.214 282.2 341.214 282.2 341.214C282.2 341.214 281.8 343.314 284.2 343.314C286.6 343.314 287 342.314 287 342.314C287 342.314 286.6 344.914 289.4 344.814C292.2 344.614 298 339.614 298 339.614C298 339.614 294.9 345.114 296.8 346.414C298.6 347.714 302.8 343.114 303.4 342.214C304 341.314 319.9 350.914 326 333.214C326 333.214 314.5 320.714 303.7 324.314Z" fill="#F4C2C9"/>
<path d="M244.4 193.514C244.4 193.514 239.6 194.014 238.6 194.914C237.6 195.814 234.6 203.614 238.6 211.714C242.6 219.714 254.2 223.814 266 220.114C277.8 216.514 282.8 205.114 282.4 201.614C282 198.114 279.9 197.014 275.6 195.914C271.3 194.814 244.4 193.514 244.4 193.514Z" fill="#63737A"/>
<path d="M250.1 168.414C250.1 168.414 250.4 177.614 248.1 185.114C247.1 188.514 245.5 191.614 244.5 193.414C243.7 194.914 243.1 196.514 242.9 198.114C242.3 202.214 242.6 209.314 250.1 212.714C262.1 218.114 274.7 208.214 276.4 200.314C276.4 200.314 277.1 192.114 278.9 188.814C280.7 185.614 255.9 165.314 250.1 168.414Z" fill="#F4C2C9"/>
<path d="M275.6 202.614C276 201.814 276.2 201.014 276.4 200.314C276.4 200.314 276.5 198.714 276.9 196.614C268.6 195.214 261.3 190.414 256.8 183.914C257.4 193.714 265.8 201.214 275.6 202.614Z" fill="#E26E85"/>
<path d="M174.8 281.414C174.8 281.414 179.7 286.914 201.5 281.414C223.2 275.914 251.4 260.714 255.6 259.214C259.8 257.614 261.4 258.414 265.9 258.414C276.6 258.614 281 257.614 282.4 256.914C285.2 255.514 286.5 253.414 286 251.614C285.5 249.814 287 249.314 287.3 247.714C287.8 244.714 286.7 244.314 287 244.114C287.3 243.914 290.3 243.014 290.9 242.214C292.4 239.914 291.2 238.414 291.2 238.414C291.2 238.414 295 237.414 299.5 237.014C304 236.614 306.7 235.014 305.4 233.414C304.1 231.814 295.3 232.314 289.6 232.314C283.9 232.314 281.9 232.414 281.5 232.214C279.3 231.514 275 230.214 272.9 230.414C270.8 230.614 268.4 232.314 264.3 234.514C260.2 236.714 255.6 238.514 249.6 240.014C245 241.214 214.1 243.614 195 247.214C192.3 247.714 189.8 248.214 187.7 248.814C185.1 249.514 183 250.214 181.6 250.914C171.2 256.514 162.1 271.214 174.8 281.414Z" fill="#F4C2C9"/>
<path d="M291.1 238.414C291.1 238.414 288.5 238.014 287.6 237.814C286.6 237.614 285.2 237.614 285.2 237.614" stroke="#E26E85" stroke-width="1.8" stroke-miterlimit="10" stroke-linecap="round" stroke-linejoin="round"/>
<path d="M287 244.114C287 244.114 285.2 244.614 284.5 244.914" stroke="#E26E85" stroke-width="1.8" stroke-miterlimit="10" stroke-linecap="round" stroke-linejoin="round"/>
<path d="M286 250.514C286 250.514 284.1 251.614 283.3 251.914" stroke="#E26E85" stroke-width="1.8" stroke-miterlimit="10" stroke-linecap="round" stroke-linejoin="round"/>
<path d="M255.6 259.214C247.9 250.114 251.8 239.414 251.8 239.414L243.2 241.014C238.3 253.114 247 263.314 247 263.314L255.6 259.214Z" fill="#172D39"/>
<path d="M281.4 232.214C281.4 232.214 276 232.314 275.1 232.714" stroke="#E26E85" stroke-width="1.8" stroke-miterlimit="10" stroke-linecap="round" stroke-linejoin="round"/>
<path d="M195 247.214C192.3 247.714 189.8 248.214 187.7 248.814C185.1 249.514 183 250.214 181.6 250.914" stroke="#E26E85" stroke-width="1.8" stroke-miterlimit="10" stroke-linecap="round" stroke-linejoin="round"/>
<path d="M251.6 250.514C251.6 247.614 249.3 245.314 246.4 245.314C243.5 245.314 241.2 247.614 241.2 250.514C241.2 253.414 243.5 255.714 246.4 255.714C249.2 255.614 251.6 253.314 251.6 250.514Z" fill="white"/>
<path d="M299 146.314C299 146.314 301.2 152.914 298.1 162.714C295 172.614 292.9 176.214 290.3 184.014C287.6 191.814 281.4 198.614 270.7 197.514C259.5 196.314 250.7 186.114 250.2 173.414C249.7 160.714 248.6 140.914 263.7 137.414C278.6 134.014 296.4 142.914 299 146.314Z" fill="#F4C2C9"/>
<path d="M289.1 167.514C289.1 168.714 289.1 169.814 289.3 170.914C289.4 171.414 289.5 172.014 289.6 172.514C289.7 172.814 289.7 173.014 289.8 173.314L289.9 173.714L290 174.214C290.2 174.914 290.2 175.614 290 176.414C289.7 177.114 289.2 177.814 288.6 178.114C287.4 178.814 286.1 178.914 284.9 178.614C286 178.114 287.1 177.614 287.7 177.014C288.4 176.314 288.5 175.614 288.2 174.714L288.1 174.414L288 173.914C287.9 173.614 287.9 173.314 287.8 173.014C287.7 172.414 287.7 171.714 287.7 171.114C288 169.714 288.4 168.414 289.1 167.514Z" fill="#172D39"/>
<path d="M252.8 162.114C252.8 162.114 256.1 161.314 258.2 152.614C258.2 152.614 258.9 150.614 262.4 153.314C265.8 156.014 271.7 160.414 281.9 155.614C292.1 150.814 293.4 149.214 294.8 150.914C294.8 150.914 296.3 158.514 301.5 156.114C306.7 153.814 303.9 140.214 286.7 135.814C269.5 131.414 257.3 132.914 251.8 142.514C246.2 152.214 248.4 161.514 252.8 162.114Z" fill="#172D39"/>
<path d="M284.2 158.914C284.8 158.214 285.4 156.614 284.6 155.514C283.5 153.814 276 152.614 274.2 154.114C272.4 155.614 276.9 155.814 279 156.814C281.1 157.914 283.6 159.614 284.2 158.914Z" fill="#172D39"/>
<path d="M293.5 163.214C293.7 162.614 294.3 161.914 295 161.614C296.1 161.114 298.4 163.414 298 164.914C297.6 166.414 296.5 164.714 295.5 164.514C294.5 164.114 293.2 163.814 293.5 163.214Z" fill="#172D39"/>
<path d="M278.5 164.714C278.8 163.914 278.4 163.014 277.5 162.714C276.7 162.414 275.8 162.814 275.5 163.714L275.3 164.214L278.2 165.314L278.5 164.714Z" fill="#172D39"/>
<path d="M293.5 170.314C293.8 169.514 293.4 168.614 292.5 168.314C291.7 168.014 290.8 168.414 290.5 169.314L290.3 169.814L293.2 170.914L293.5 170.314Z" fill="#172D39"/>
<path d="M254.6 163.814C254.6 163.814 252.9 157.014 247.9 157.114C242.9 157.214 240.6 170.814 252.1 172.914" fill="#F4C2C9"/>
<path d="M247.1 163.314C247.1 162.814 247.2 162.414 247.6 161.914C247.8 161.714 248.1 161.514 248.5 161.514C248.8 161.514 249.2 161.614 249.4 161.714C249.5 161.714 249.7 161.914 249.8 162.014C250 162.114 250 162.314 250.1 162.414C250.2 162.614 250.2 162.714 250.3 162.814C250.3 162.914 250.4 163.114 250.4 163.214C250.5 163.714 250.5 164.114 250.5 164.514C250.5 165.314 250.5 166.114 250.5 166.814C250.5 167.114 250.6 167.414 250.8 167.714C251 168.014 251.3 168.214 251.7 168.414C251.3 168.614 250.8 168.614 250.3 168.414C249.8 168.214 249.4 167.714 249.2 167.214C248.8 166.314 248.7 165.414 248.7 164.514C248.7 163.714 248.6 162.814 248.6 162.814C248.4 162.614 248.3 162.514 248 162.514C247.8 162.714 247.5 163.014 247.1 163.314Z" fill="#172D39"/>
<path d="M278.2 185.114C278.6 184.514 279 183.914 279.2 183.414C279.6 182.514 279.2 181.514 278.3 181.214C277.3 180.814 276 180.114 274.5 178.914C271.4 176.414 270 178.614 270.2 181.414C273.2 181.714 275.9 183.614 278.2 185.114Z" fill="#172D39"/>
<path d="M270.2 181.314C270.4 183.714 271.7 186.614 274.3 187.014C276 187.314 277.3 186.314 278.2 185.114C275.9 183.614 273.2 181.714 270.2 181.314Z" fill="#E26E85"/>
<path d="M70.5 346.914L55.8 551.914C55.7 553.614 57.1 555.114 58.8 555.114C60.4 555.114 61.7 553.914 61.8 552.414L79.5 347.014H70.5V346.914Z" fill="#B8D8C7"/>
<path d="M663.8 346.914L678.5 551.914C678.6 553.614 677.2 555.114 675.5 555.114C673.9 555.114 672.6 553.914 672.5 552.414L654.8 347.014H663.8V346.914Z" fill="#B8D8C7"/>
<path d="M695.1 342.614H39.2L114.2 312.414H620L695.1 342.614Z" fill="white"/>
<path d="M695.2 342.614H39.2V350.114H695.2V342.614Z" fill="#B8D8C7"/>
<path d="M300 307.414H342.1C343.2 307.414 344.3 307.714 345.3 308.414L383.5 333.914C384.8 334.714 384.2 336.714 382.7 336.714H321.8C320.4 336.714 319.1 336.114 318.2 334.914L298.8 309.914C298 308.914 298.7 307.414 300 307.414Z" fill="#45677C"/>
<path d="M326 328.814H365.3" stroke="#599F75" stroke-width="1.8" stroke-miterlimit="10" stroke-linecap="round" stroke-linejoin="round"/>
<path d="M354.4 321.314L346.2 315.114C345.8 314.814 345.4 314.714 345 314.714H334.3C333.9 314.714 333.8 315.114 334 315.414L340.2 321.414C340.6 321.814 341.1 322.014 341.6 322.014H354.2C354.6 322.014 354.7 321.614 354.4 321.314Z" fill="#172D39"/>
<path d="M332.2 322.014H321.4" stroke="#599F75" stroke-width="1.8" stroke-miterlimit="10" stroke-linecap="round" stroke-linejoin="round"/>
<path d="M328.7 317.914H319" stroke="#599F75" stroke-width="1.8" stroke-miterlimit="10" stroke-linecap="round" stroke-linejoin="round"/>
<path d="M543.1 340.814L531.1 341.714C530.1 341.814 529 341.714 528 341.414L473.2 326.414C472 326.114 471.1 324.914 471.1 323.614L564.3 321.314L543.1 340.814Z" fill="#63737A"/>
<path d="M529.7 337.414L552.9 275.714C553.7 273.514 555.9 272.014 558.2 272.114L653.4 273.914C655.5 273.914 657 276.114 656.1 278.114L634.1 332.014C633.3 334.014 631.4 335.314 629.3 335.514L532.7 341.614C530.6 341.614 529 339.414 529.7 337.414Z" fill="#172D39"/>
<path d="M533.1 341.614L531.1 341.714C530.1 341.814 529 341.714 528 341.414L473.2 326.414C472 326.014 471.1 324.914 471.1 323.614L531.2 338.014L533.1 341.614Z" fill="#172D39"/>
<path d="M610.2 305.414C609.1 309.214 605.2 312.314 601.4 312.314C597.6 312.314 595.4 309.214 596.5 305.414C597.6 301.614 601.5 298.514 605.3 298.514C609.1 298.414 611.3 301.614 610.2 305.414Z" fill="#63737A"/>
<path d="M73.2 210.014C73.2 210.014 83 207.314 91.6 222.714C100.2 238.114 104.5 266.714 107.2 269.614C109.9 272.514 114.3 274.714 128.5 283.814C142.7 292.914 143.5 293.214 155.8 294.714C168.1 296.214 168.9 300.414 172.7 304.614C176.5 308.814 179.2 311.714 175.6 312.014C172.1 312.314 168.1 307.114 165.8 308.614C163.5 310.114 161.8 311.314 157.7 312.414C153.5 313.414 154.8 315.114 150.9 314.714C147 314.314 139.4 314.514 141.8 312.414C144.1 310.314 141.8 309.814 141.8 309.814C141.8 309.814 99.5 304.114 85.8 293.014C72 281.914 68.5 245.114 65.8 232.914C63 220.614 69.8 210.014 73.2 210.014Z" fill="#FFE7CA"/>
<path d="M107.2 269.614C107.2 269.614 103.4 269.214 100.7 270.614" stroke="#DBB146" stroke-width="1.8" stroke-miterlimit="10" stroke-linecap="round" stroke-linejoin="round"/>
<path d="M78 161.314C78 161.314 85.4 154.314 82.5 145.214C79.6 136.014 70.6 135.214 63.3 137.414C56 139.714 36 135.914 28.7 147.014C21.4 158.114 26 168.114 21.4 171.014C16.8 173.914 10.3 176.014 11.4 183.314C12.4 190.614 32 201.214 26 209.614C20 217.914 14.3 237.514 37.5 248.614C60.6 259.714 62.1 233.214 63.6 217.814C65.1 202.414 60.5 184.614 67.1 178.014C73.8 171.214 79.3 167.514 78 161.314Z" fill="#172D39"/>
<path d="M44.2 206.414C44.2 206.414 70.7 207.014 75.3 209.114C79.9 211.214 82 218.314 83.4 223.714C84.9 229.114 95.3 235.614 97.2 247.514C99.1 259.414 88.9 273.214 88.4 275.414C88 277.714 87.8 300.014 89 304.614C90.3 309.214 92.3 316.714 92.1 320.014C91.9 323.314 77.9 329.814 57.1 328.614C36.3 327.414 14.5 316.914 13.8 314.614C13.2 312.314 20 301.514 18.1 278.914C16.2 256.414 5.39998 232.014 13.3 218.614C21.2 205.414 40.2 206.314 44.2 206.414Z" fill="#172D39"/>
<path d="M43.2 187.414C43.2 187.414 44.3 199.014 44.1 206.414C44.1 206.414 47 212.614 56.1 214.414C67.1 216.714 69.3 210.414 67.8 207.714C67.8 207.714 65.2 198.114 64.9 191.514C64.7 185.114 43.7 186.514 43.2 187.414Z" fill="#FFE7CA"/>
<path d="M52.2 197.014C56.3 203.414 60.5 206.014 67.7 206.514C67.3 205.114 66.8 202.614 66.2 199.914C60.5 200.614 57.8 198.614 52.2 197.014Z" fill="#DBB146"/>
<path d="M39.4 206.414C39.4 206.414 45.2 210.214 51 218.414C56.7 226.614 64 232.714 69.1 232.114C74.2 231.514 76.6 224.814 70 208.014C70 208.014 54 205.414 39.4 206.414Z" fill="#FFE7CA"/>
<path d="M133.7 301.014L175.6 298.414C176.1 298.414 176.7 297.314 176.9 297.714C177 297.814 176.9 299.414 176.9 299.514C176.9 299.814 176.8 300.214 176.6 300.414L145 332.814C143.7 334.114 141.9 334.814 140 334.614L98.8 330.514C98.4 330.514 98 330.214 97.9 329.914C97.8 329.714 96.2 327.014 96.3 326.714C96.3 326.414 98.6 326.414 98.9 326.214L130.9 302.114C131.6 301.514 132.6 301.114 133.7 301.014Z" fill="#63737A"/>
<path d="M133.2 298.414L175.7 296.614C176.8 296.614 177.4 297.914 176.6 298.714L143.9 330.914C142.6 332.214 140.7 332.914 138.8 332.614L97.1 327.514C96 327.414 95.6 326.014 96.5 325.314L130.2 299.414C131 298.814 132.1 298.414 133.2 298.414Z" fill="#172D39"/>
<path d="M152 296.514C152 296.514 150.9 296.714 150.9 298.814C150.9 300.814 151.7 306.514 149.6 306.914C147.6 307.314 146.6 304.814 145.6 302.614C144.6 300.414 141.6 300.314 139.7 297.114" fill="#FFE7CA"/>
<path d="M75.4 150.614C75.4 150.614 78.3 158.314 78.6 167.014C78.9 175.814 81.9 180.814 80.2 188.414C78.5 196.114 72.5 201.914 65.1 202.214C57.7 202.514 46.9 195.914 41 188.014C35.1 180.014 33.3 163.614 36.8 155.614C40.1 147.714 66.3 139.414 75.4 150.614Z" fill="#FFE7CA"/>
<path d="M78.8 159.214C78.8 159.214 74.5 159.714 71.8 155.314C71.8 155.314 65.3 170.314 54.8 171.314C47.6 172.014 46.2 168.614 43.2 171.314C40.2 174.014 48.9 189.614 46.2 202.314C43.5 215.014 30.7 218.514 21.7 210.714C10.4 200.814 22.7 198.914 25 184.914C27.3 171.014 25 160.314 32.4 152.214C39.8 144.114 47.1 139.114 58.8 140.214C70.6 141.314 75.4 143.114 78.8 159.214Z" fill="#172D39"/>
<path d="M47.9 169.414C47.9 169.414 47.2 174.714 47.5 176.414C47.8 178.114 44.4 174.514 41.3 176.814C39.6 178.114 38 169.914 41.3 167.414C44.5 164.914 46.4 167.014 47.9 169.414Z" fill="#172D39"/>
<path d="M46 176.514C46 176.514 42.2 171.614 38.1 174.614C34 177.714 39.3 186.714 45.5 186.014" fill="#FFE7CA"/>
<path d="M130.1 323.914C130.1 323.914 135.8 328.614 138 330.214C140.1 331.814 138.8 333.214 136.4 333.214C133.9 333.314 126.1 326.914 130.1 323.914Z" fill="#FFE7CA"/>
<path d="M16.8 214.514C14.4 215.614 12.5 217.514 11.2 219.814C8.8 224.314 5.4 233.114 7.9 244.514C11.6 261.414 20.3 286.814 24.2 292.814C28.1 298.814 46.4 310.814 59.3 318.814C72.2 326.814 82.1 331.214 84.5 333.014C87 334.814 91.7 339.414 100.8 340.514C110 341.614 112.9 338.314 115.7 339.014C118.6 339.714 123.2 342.914 125.8 342.614C128.4 342.214 127 340.314 126 339.314C125 338.314 119.1 333.014 119.1 333.014C119.1 333.014 122.7 334.514 127.9 337.614C132.3 340.214 134.4 340.314 135.6 340.214C136.8 340.214 138.2 339.714 138 338.614C138 338.614 139.2 339.314 140.2 338.414C141.2 337.514 141.5 336.714 139.1 334.014C136.6 331.314 130.6 324.214 127.6 321.114C124.5 317.914 121.1 317.714 113.7 318.114C106.3 318.414 95.9 316.914 95.6 317.214C95.3 317.514 63.5 283.814 53.9 274.214C53.9 274.214 46.2 249.114 43.9 238.314C39.2 216.614 27.8 209.314 16.8 214.514Z" fill="#FFE7CA"/>
<path d="M138 338.714C138 338.714 138 337.514 135 335.414C132 333.414 127.3 328.814 125.8 327.714C124.3 326.514 122.5 325.214 122.2 325.214" stroke="#DBB146" stroke-width="1.8" stroke-miterlimit="10" stroke-linecap="round" stroke-linejoin="round"/>
<path d="M119.1 333.114C119.1 333.114 116.8 331.114 115.7 331.414" stroke="#DBB146" stroke-width="1.8" stroke-miterlimit="10" stroke-linecap="round" stroke-linejoin="round"/>
<path d="M53.9 274.214C53.9 274.214 49.2 273.714 45.5 277.514" stroke="#DBB146" stroke-width="1.8" stroke-miterlimit="10" stroke-linecap="round" stroke-linejoin="round"/>
<path d="M74.9 172.314C75.6 173.214 76.2 174.114 76.8 174.914C77.1 175.314 77.4 175.714 77.8 176.014C78 176.214 78.1 176.314 78.3 176.514L78.6 176.714C78.7 176.814 78.9 176.914 79 177.114C79.5 177.714 79.7 178.514 79.7 179.214C79.7 179.914 79.4 180.514 79.1 181.014C78.5 182.014 77.6 182.914 76.4 183.214C77.1 182.314 77.5 181.414 77.8 180.414C78.1 179.514 78 178.614 77.6 178.214C77.6 178.114 77.5 178.114 77.4 178.014C77.3 177.914 77.2 177.814 77 177.714C76.8 177.514 76.5 177.214 76.4 177.014C76 176.514 75.7 176.014 75.5 175.514C75.2 174.614 74.9 173.514 74.9 172.314Z" fill="#172D39"/>
<path d="M71.8 190.314C71.8 190.314 68.9 191.214 66.3 188.514" stroke="#172D39" stroke-width="1.8" stroke-miterlimit="10" stroke-linecap="round" stroke-linejoin="round"/>
<path d="M65 176.914C65.9 176.814 66.5 175.914 66.3 175.014L66.1 174.114C66 173.214 65.1 172.614 64.2 172.814C63.3 172.914 62.7 173.814 62.9 174.714L63.1 175.614C63.3 176.414 64.1 177.014 65 176.914Z" fill="#172D39"/>
<path d="M77.2 174.914C78.1 174.814 78.7 173.914 78.5 173.014L78.3 172.114C78.2 171.214 77.3 170.614 76.4 170.814C75.5 170.914 74.9 171.814 75.1 172.714L75.3 173.614C75.5 174.414 76.3 175.114 77.2 174.914Z" fill="#172D39"/>
<path d="M64.1 166.514C65 166.614 65.7 165.814 65.6 164.914C65.5 164.114 65.3 163.314 64.9 162.814C64 161.814 60.5 162.114 57.9 164.114C55.2 166.114 54.2 168.714 55.5 168.814C56.8 168.914 58.7 167.214 60.8 166.714C61.8 166.314 63.1 166.414 64.1 166.514Z" fill="#172D39"/>
<path d="M77.2 165.014C76.8 165.314 76.3 165.014 76.2 164.614C76 163.814 75.8 162.614 76.1 162.314C76.6 161.714 78.1 162.114 78.4 163.014C78.7 163.914 78.8 164.414 78.5 164.414C78.3 164.314 77.7 164.614 77.2 165.014Z" fill="#172D39"/>
<path d="M39.7 179.114C39.4 178.814 39.3 178.414 39.3 177.914C39.3 177.714 39.4 177.414 39.6 177.114C39.8 176.814 40 176.714 40.3 176.514C40.4 176.514 40.5 176.414 40.7 176.414C40.9 176.414 41.2 176.414 41.4 176.514C41.8 176.714 42 177.014 42.1 177.214C42.4 177.614 42.5 178.014 42.7 178.414C43 179.114 43.1 179.814 43.3 180.314C43.4 180.614 43.5 180.814 43.7 181.014C43.9 181.214 44.3 181.314 44.7 181.314C44.4 181.614 44 181.814 43.5 181.814C43 181.814 42.5 181.514 42.2 181.114C41.6 180.414 41.3 179.614 41 179.014C40.9 178.714 40.8 178.314 40.7 178.114C40.7 178.014 40.6 177.914 40.7 177.914H40.8H40.7C40.5 177.914 40.4 177.914 40.2 178.114C39.9 178.314 39.8 178.714 39.7 179.114Z" fill="#172D39"/>
<path d="M280.9 335.014V335.314C280.9 336.314 280.1 337.114 279.1 337.114H194.3C193.3 337.114 192.5 336.314 192.5 335.314C192.5 334.714 192.8 334.114 193.2 333.614L209.6 317.414C210.4 316.614 211.4 316.214 212.4 316.214H268.1C269.5 316.214 270.9 317.014 271.6 318.214L280.6 333.714C280.7 334.214 280.9 334.614 280.9 335.014Z" fill="#172D39"/>
<path d="M238.6 330.714C238.6 331.014 238 331.314 237.2 331.314C236.4 331.314 235.8 331.014 235.8 330.714C235.8 330.414 236.4 330.114 237.2 330.114C238 330.114 238.6 330.414 238.6 330.714Z" fill="#63737A"/>
<path d="M575.7 423.914C575.7 423.914 568 407.414 587.3 397.014C606.6 386.614 633.4 396.914 631 400.514C629.5 402.714 625.6 409.114 618.3 417.014C612.2 423.714 594.7 434.114 575.7 423.914Z" fill="#599F75"/>
<path d="M627.6 399.814C627.6 399.814 585.2 390.314 575.6 423.914C566.1 457.514 569 489.714 569 489.714" stroke="#172D39" stroke-width="1.8" stroke-miterlimit="10" stroke-linecap="round" stroke-linejoin="round"/>
<path d="M537.5 461.714L544.4 543.014C544.4 546.114 557 548.514 572.6 548.514C588.1 548.514 600.8 546.014 600.8 543.014L607.7 461.714H537.5Z" fill="#172D39"/>
<path d="M572.6 467.014C591.93 467.014 607.6 464.641 607.6 461.714C607.6 458.787 591.93 456.414 572.6 456.414C553.27 456.414 537.6 458.787 537.6 461.714C537.6 464.641 553.27 467.014 572.6 467.014Z" fill="#599F75"/>
<path d="M563.7 444.814C563.7 444.814 552.4 439.214 545.1 451.814C537.8 464.514 543.2 483.414 548.2 486.214C553.2 489.014 574 479.514 574 460.414C574 443.414 563.7 444.814 563.7 444.814Z" fill="#599F75"/>
<path d="M563.7 444.814C563.7 444.814 552.4 444.014 549 483.614" stroke="#172D39" stroke-width="1.8" stroke-miterlimit="10" stroke-linecap="round" stroke-linejoin="round"/>
<path d="M555.1 421.714C555.1 421.714 543.2 403.214 519.4 415.114C495.6 427.014 496.3 459.814 500 461.714C503.8 463.614 559.4 444.214 555.1 421.714Z" fill="#599F75"/>
<path d="M574 460.414C574 460.414 566.6 434.414 555.1 421.614C543.5 408.814 507.9 423.514 501.6 454.414" stroke="#172D39" stroke-width="1.8" stroke-miterlimit="10" stroke-linecap="round" stroke-linejoin="round"/>
<path d="M587.3 432.114C587.3 432.114 577.2 428.614 572.6 441.114C568.1 453.314 573.4 481.114 599.4 489.514C600.8 489.914 602.3 489.514 603.2 488.414C606.4 484.714 613.1 475.014 613.1 460.414C613 440.114 601.8 425.414 587.3 432.114Z" fill="#599F75"/>
<path d="M587.3 432.114C587.3 432.114 608.3 442.414 600.6 485.714" stroke="#172D39" stroke-width="1.8" stroke-miterlimit="10" stroke-linecap="round" stroke-linejoin="round"/>
<path d="M374.6 298.314C374.6 298.314 375 310.914 393.2 312.114C411.3 313.414 446.6 309.314 453.5 307.414C460.4 305.514 460 294.414 455.6 291.314C451.2 288.214 424.8 286.814 411.3 284.814C408.2 284.314 404.6 283.714 400.9 283.414C397.7 283.114 394.5 282.914 391.4 283.014C382.3 283.414 374.7 286.914 374.6 298.314Z" fill="#599F75"/>
<path d="M374.4 294.814C374.4 294.814 374.4 292.214 378.3 292.914C386.8 294.514 394 312.814 385.3 310.514" stroke="#172D39" stroke-width="1.8" stroke-miterlimit="10" stroke-linecap="round" stroke-linejoin="round"/>
<path d="M411.2 284.814C408.1 284.314 404.5 283.714 400.8 283.414C397.6 283.114 394.4 282.914 391.3 283.014" stroke="#172D39" stroke-width="1.8" stroke-miterlimit="10" stroke-linecap="round" stroke-linejoin="round"/>
<path d="M500.5 226.414C503.8 227.514 506.2 230.114 510.4 242.814C515.9 259.414 522.9 294.614 519.3 304.114C515.7 313.614 508.5 318.514 484.3 319.614C460.1 320.714 436.6 318.814 433.5 318.814C430.4 318.814 425.2 307.414 428.5 299.914C428.5 299.914 449 294.914 460.6 291.814C472.2 288.714 485 285.414 490.3 284.814C490.3 284.814 481.7 263.714 478.9 256.314C476.1 248.914 478.4 236.314 485 230.614C491.5 225.014 497.7 225.514 500.5 226.414Z" fill="#599F75"/>
<path d="M490.2 284.814C490.2 284.814 500.1 282.814 506 284.814" stroke="#172D39" stroke-width="1.8" stroke-miterlimit="10" stroke-linecap="round" stroke-linejoin="round"/>
<path d="M520.3 298.314C520.3 298.314 518.2 293.314 509.7 298.914C503 303.314 501 316.514 508.3 315.714" stroke="#172D39" stroke-width="1.8" stroke-miterlimit="10" stroke-linecap="round" stroke-linejoin="round"/>
<path d="M430.5 300.114C430.5 300.114 425.2 300.614 419.8 300.614C414.4 300.614 407.1 301.514 405.4 302.314C403.7 303.014 386.5 320.314 386.9 322.614C387.2 324.914 390.5 323.414 393.3 321.514C396 319.514 401.3 314.414 402.4 313.714C402.4 313.714 401 316.914 399.7 321.714C398.4 326.514 397.1 331.314 398.4 332.114C400.1 333.114 401.7 331.414 402.2 330.414C402.2 330.414 402.1 332.914 404.1 333.014C406.1 333.114 408 329.314 409.6 326.114C411.3 322.914 414.7 318.714 414.7 318.714C414.7 318.714 413.1 323.814 412.5 326.614C411.9 329.414 411.5 332.714 413 333.014C415.3 333.514 417.4 326.714 418.7 324.114C420.1 321.414 425.1 323.214 428.8 320.914C432.6 318.514 434.6 317.914 434.6 317.914C434.6 317.914 437.1 315.414 437.1 310.014C437.1 304.514 432.6 299.914 430.5 300.114Z" fill="#F4C2C9"/>
<path d="M402 330.514C402 330.514 406.8 316.514 408.8 313.814C410.8 311.114 411.5 310.914 412.1 310.514" stroke="#E26E85" stroke-width="1.8" stroke-miterlimit="10" stroke-linecap="round" stroke-linejoin="round"/>
<path d="M402.2 313.814C402.2 313.814 403 312.214 404.3 309.814C405 308.614 406.5 307.414 406.5 307.414" stroke="#E26E85" stroke-width="1.8" stroke-miterlimit="10" stroke-linecap="round" stroke-linejoin="round"/>
<path d="M414.5 318.714C414.5 318.714 415.9 315.314 417.3 314.914" stroke="#E26E85" stroke-width="1.8" stroke-miterlimit="10" stroke-linecap="round" stroke-linejoin="round"/>
<path d="M446.4 289.914C446.4 289.914 450.4 288.614 454.1 286.914C457.8 285.214 459.3 284.514 462.2 284.314C465.1 284.014 474.2 284.014 475.5 284.814C476.8 285.614 478.5 289.414 479.4 291.314C480.3 293.214 477.4 300.714 477.4 300.714C477.4 300.714 478.7 307.314 477.1 308.014C476.1 308.414 475.2 308.214 473.9 304.714C473.9 304.714 474.8 307.714 473 307.914C471.2 308.114 469.2 302.914 467.9 300.614C466.6 298.314 464.1 295.414 464.1 295.414C464.1 295.414 465.2 299.014 465.4 300.214C465.6 301.514 466.4 304.514 465.9 305.714C465.4 306.914 463.6 305.314 461.8 301.214C460 297.114 459.4 295.714 458.3 295.814C452.1 296.414 452.5 295.014 449.5 294.814L442.9 296.514C442.8 296.414 442.1 292.414 446.4 289.914Z" fill="#F4C2C9"/>
<path d="M473.9 304.614C473.9 304.614 471.9 298.114 471.2 296.114C470.5 294.214 468.2 290.614 468.2 290.614" stroke="#E26E85" stroke-width="1.8" stroke-miterlimit="10" stroke-linecap="round" stroke-linejoin="round"/>
<path d="M477.4 300.614C477.4 300.614 476.2 293.614 475.7 291.914C475.2 290.314 474.4 288.814 474.4 288.814" stroke="#E26E85" stroke-width="1.8" stroke-miterlimit="10" stroke-linecap="round" stroke-linejoin="round"/>
<path d="M464 295.314C464 295.314 463.4 293.314 463.1 292.714" stroke="#E26E85" stroke-width="1.8" stroke-miterlimit="10" stroke-linecap="round" stroke-linejoin="round"/>
</g>
</svg>
